M48
;Layer_Color=9474304
;FILE_FORMAT=4:4
METRIC,LZ
;TYPE=PLATED
T1F00S00C0.2032
T2F00S00C0.3000
T3F00S00C0.7000
T4F00S00C1.0000
T5F00S00C1.0668
%
T01
X00135Y00048
Y00056
X00133Y00063
Y0007
X00142Y00052
X0009848Y00105997
X00065Y0014
X00191623Y00178206
T02
X0001832Y0000832
X0003864
X0007928
X00088Y0005
Y0006
Y0007
X00096Y00075
Y00065
Y00055
Y00045
X00104Y0005
Y0006
Y0007
X00089464Y00138464
X001Y0016
X00098Y00174
X00086759Y00173141
X00103Y00193
X00163901Y00193412
X00178Y00176
X00172Y00154549
X00183Y00151
X00197Y00128
X00162642Y0012008
X00157121Y00108586
X00162673Y0009856
X00169Y00103
X00183558Y0007793
X0019225Y00041
X00176Y00032
X00178Y00024
X00171Y0000475
X00137732Y001645
X00034Y00179
X00044Y00107
T03
X0017Y0006
Y0008
T04
X000669Y00015
X000923
X001177Y00015
X001431
Y00185
X001177
X000923Y00185
X000669
T05
X00025Y000365
Y000619
Y000873
Y001127
Y001381
Y001635
M30
