G04*
G04 #@! TF.GenerationSoftware,Altium Limited,Altium Designer,21.9.2 (33)*
G04*
G04 Layer_Color=32896*
%FSLAX44Y44*%
%MOMM*%
G71*
G04*
G04 #@! TF.SameCoordinates,8D6B135D-26D1-4348-B727-2CCB693FEEA9*
G04*
G04*
G04 #@! TF.FilePolarity,Positive*
G04*
G01*
G75*
%ADD12C,0.2000*%
%ADD14C,0.1300*%
%ADD63C,0.1500*%
D12*
X118500Y125000D02*
X121500D01*
X118500Y119000D02*
X121500D01*
X183000Y18500D02*
Y21500D01*
X189000Y18500D02*
Y21500D01*
X155800Y2300D02*
Y27700D01*
X54200Y2300D02*
X155800D01*
X54200Y27700D02*
X155800D01*
X54200Y2300D02*
Y27700D01*
X155800Y172300D02*
Y197700D01*
X54200Y172300D02*
X155800D01*
X54200Y197700D02*
X155800D01*
X54200Y172300D02*
Y197700D01*
X178500Y187000D02*
X181500D01*
X178500Y193000D02*
X181500D01*
X136873Y73999D02*
X137250Y74000D01*
X144750D02*
X145127Y74001D01*
X171000Y18500D02*
Y21500D01*
X165000Y18500D02*
Y21500D01*
X118500Y96000D02*
X121500D01*
X118500Y102000D02*
X121500D01*
X118500Y108000D02*
X121500D01*
X118500Y114000D02*
X121500D01*
X118500Y130000D02*
X121500D01*
X118500Y136000D02*
X121500D01*
X120873Y154999D02*
X121250Y155000D01*
X128750D02*
X129127Y155001D01*
X105873Y154999D02*
X106250Y155000D01*
X113750D02*
X114127Y155001D01*
D14*
X43978Y32345D02*
X46644D01*
X45311D01*
Y40342D01*
X43978D01*
X46644D01*
X55974D02*
X50642D01*
X55974Y35011D01*
Y33678D01*
X54641Y32345D01*
X51975D01*
X50642Y33678D01*
X63971D02*
X62639Y32345D01*
X59973D01*
X58640Y33678D01*
Y39009D01*
X59973Y40342D01*
X62639D01*
X63971Y39009D01*
X74635Y32345D02*
Y40342D01*
X78633D01*
X79966Y39009D01*
Y33678D01*
X78633Y32345D01*
X74635D01*
X82632Y35011D02*
Y40342D01*
Y37677D01*
X83965Y36344D01*
X85298Y35011D01*
X86631D01*
X90630Y40342D02*
X93295D01*
X91962D01*
Y35011D01*
X90630D01*
X97294D02*
X99960Y40342D01*
X102626Y35011D01*
X109290Y40342D02*
X106624D01*
X105291Y39009D01*
Y36344D01*
X106624Y35011D01*
X109290D01*
X110623Y36344D01*
Y37677D01*
X105291D01*
X113289Y35011D02*
Y40342D01*
Y37677D01*
X114622Y36344D01*
X115955Y35011D01*
X117288D01*
X195727Y56813D02*
Y51482D01*
X187730D01*
Y56813D01*
X191729Y51482D02*
Y54148D01*
X187730Y59479D02*
X195727D01*
Y63478D01*
X194394Y64811D01*
X191729D01*
X190396Y63478D01*
Y59479D01*
Y62145D02*
X187730Y64811D01*
Y80806D02*
Y75474D01*
X193062Y80806D01*
X194394D01*
X195727Y79473D01*
Y76807D01*
X194394Y75474D01*
Y83471D02*
X195727Y84804D01*
Y87470D01*
X194394Y88803D01*
X189063D01*
X187730Y87470D01*
Y84804D01*
X189063Y83471D01*
X194394D01*
X187730Y96800D02*
Y91469D01*
X193062Y96800D01*
X194394D01*
X195727Y95468D01*
Y92802D01*
X194394Y91469D01*
Y99466D02*
X195727Y100799D01*
Y103465D01*
X194394Y104798D01*
X193062D01*
X191729Y103465D01*
Y102132D01*
Y103465D01*
X190396Y104798D01*
X189063D01*
X187730Y103465D01*
Y100799D01*
X189063Y99466D01*
D63*
X45108Y114760D02*
Y145240D01*
X94892Y100000D02*
Y145240D01*
M02*
