G04*
G04 #@! TF.GenerationSoftware,Altium Limited,Altium Designer,21.9.2 (33)*
G04*
G04 Layer_Physical_Order=1*
G04 Layer_Color=255*
%FSLAX44Y44*%
%MOMM*%
G71*
G04*
G04 #@! TF.SameCoordinates,8D6B135D-26D1-4348-B727-2CCB693FEEA9*
G04*
G04*
G04 #@! TF.FilePolarity,Positive*
G04*
G01*
G75*
%ADD12C,0.2000*%
%ADD17R,1.9812X0.5334*%
G04:AMPARAMS|DCode=18|XSize=0.8mm|YSize=0.9mm|CornerRadius=0.06mm|HoleSize=0mm|Usage=FLASHONLY|Rotation=270.000|XOffset=0mm|YOffset=0mm|HoleType=Round|Shape=RoundedRectangle|*
%AMROUNDEDRECTD18*
21,1,0.8000,0.7800,0,0,270.0*
21,1,0.6800,0.9000,0,0,270.0*
1,1,0.1200,-0.3900,-0.3400*
1,1,0.1200,-0.3900,0.3400*
1,1,0.1200,0.3900,0.3400*
1,1,0.1200,0.3900,-0.3400*
%
%ADD18ROUNDEDRECTD18*%
%ADD19R,3.2512X3.2512*%
%ADD20R,0.3048X0.8128*%
%ADD21R,0.8128X0.3048*%
%ADD22O,2.0000X1.5000*%
%ADD23R,2.0000X1.5000*%
G04:AMPARAMS|DCode=24|XSize=0.4mm|YSize=1.9mm|CornerRadius=0.06mm|HoleSize=0mm|Usage=FLASHONLY|Rotation=270.000|XOffset=0mm|YOffset=0mm|HoleType=Round|Shape=RoundedRectangle|*
%AMROUNDEDRECTD24*
21,1,0.4000,1.7800,0,0,270.0*
21,1,0.2800,1.9000,0,0,270.0*
1,1,0.1200,-0.8900,-0.1400*
1,1,0.1200,-0.8900,0.1400*
1,1,0.1200,0.8900,0.1400*
1,1,0.1200,0.8900,-0.1400*
%
%ADD24ROUNDEDRECTD24*%
G04:AMPARAMS|DCode=25|XSize=0.8mm|YSize=0.9mm|CornerRadius=0.06mm|HoleSize=0mm|Usage=FLASHONLY|Rotation=0.000|XOffset=0mm|YOffset=0mm|HoleType=Round|Shape=RoundedRectangle|*
%AMROUNDEDRECTD25*
21,1,0.8000,0.7800,0,0,0.0*
21,1,0.6800,0.9000,0,0,0.0*
1,1,0.1200,0.3400,-0.3900*
1,1,0.1200,-0.3400,-0.3900*
1,1,0.1200,-0.3400,0.3900*
1,1,0.1200,0.3400,0.3900*
%
%ADD25ROUNDEDRECTD25*%
%ADD26R,2.3876X3.2004*%
%ADD43R,0.9000X1.0000*%
%ADD44C,0.2500*%
%ADD45C,0.5000*%
%ADD46C,0.4000*%
%ADD47C,0.3000*%
%ADD48C,1.5000*%
%ADD49R,1.5000X1.5000*%
%ADD50O,2.1336X1.8796*%
%ADD51O,2.1336X1.8288*%
%ADD52R,2.1336X1.8288*%
%ADD53O,2.0000X1.5000*%
%ADD54R,2.0000X1.5000*%
%ADD55C,0.5000*%
%ADD56C,0.4064*%
G36*
X185000Y185000D02*
X182750D01*
X181500Y187000D01*
X179500Y190000D01*
X181500Y193000D01*
X182750Y195000D01*
X185000D01*
Y185000D01*
D02*
G37*
G36*
X178750Y193000D02*
X176750Y190000D01*
X178750Y187000D01*
X180000Y185000D01*
X175000D01*
Y195000D01*
X180000D01*
X178750Y193000D01*
D02*
G37*
G36*
X200000Y131962D02*
X198730Y131342D01*
X197746Y131750D01*
X196254D01*
X194876Y131179D01*
X193821Y130124D01*
X193250Y128746D01*
Y127254D01*
X193821Y125876D01*
X194876Y124821D01*
X196254Y124250D01*
X197746D01*
X198730Y124658D01*
X200000Y124038D01*
Y88846D01*
X198730Y88461D01*
X198622Y88622D01*
X192372Y94872D01*
X191628Y95370D01*
X190750Y95544D01*
X166620D01*
X166009Y96814D01*
X166423Y97814D01*
Y98634D01*
X167605Y99519D01*
X168254Y99250D01*
X169746D01*
X171124Y99821D01*
X172179Y100876D01*
X172750Y102254D01*
Y103746D01*
X172260Y104929D01*
X172639Y105535D01*
X173106Y105953D01*
X174879Y105218D01*
X177500Y104873D01*
X178730D01*
Y115000D01*
Y125127D01*
X177500D01*
X174879Y124782D01*
X172437Y123770D01*
X171141Y122776D01*
X169871Y123402D01*
Y133992D01*
X171074Y134400D01*
X171259Y134159D01*
X173087Y132756D01*
X175215Y131874D01*
X177500Y131574D01*
X182500D01*
X184784Y131874D01*
X186912Y132756D01*
X188740Y134159D01*
X190143Y135986D01*
X191024Y138115D01*
X191325Y140399D01*
X191024Y142683D01*
X190143Y144812D01*
X188740Y146640D01*
X187042Y147943D01*
X186179Y148876D01*
X186750Y150254D01*
Y151746D01*
X186179Y153124D01*
X185124Y154179D01*
X183746Y154750D01*
X182254D01*
X180876Y154179D01*
X179821Y153124D01*
X179250Y151746D01*
Y150254D01*
X178562Y149225D01*
X177500D01*
X175215Y148924D01*
X173087Y148042D01*
X171259Y146640D01*
X171074Y146398D01*
X169871Y146806D01*
Y149176D01*
X171494Y150799D01*
X172746D01*
X174124Y151370D01*
X175179Y152425D01*
X175750Y153803D01*
Y155295D01*
X175550Y155779D01*
X176398Y157049D01*
X191250D01*
Y174549D01*
X182221D01*
X181750Y175254D01*
Y176746D01*
X181179Y178124D01*
X180124Y179179D01*
X178746Y179750D01*
X177254D01*
X175876Y179179D01*
X174821Y178124D01*
X174250Y176746D01*
Y175254D01*
X173779Y174549D01*
X168750D01*
Y157049D01*
X168750Y157049D01*
X168494Y155885D01*
X168250Y155295D01*
Y154044D01*
X165955Y151748D01*
X165457Y151004D01*
X165283Y150126D01*
Y124401D01*
X164013Y123571D01*
X163388Y123830D01*
X161896D01*
X160518Y123259D01*
X159463Y122204D01*
X159421Y122103D01*
X154952D01*
Y130476D01*
X156242D01*
Y133270D01*
X149638D01*
Y135810D01*
X156242D01*
Y138604D01*
X154952D01*
Y152300D01*
X145300D01*
Y161952D01*
X135276D01*
Y173932D01*
X137594Y176250D01*
X151850D01*
Y192568D01*
X160192D01*
X160722Y191288D01*
X161777Y190233D01*
X163155Y189662D01*
X164647D01*
X164695Y189682D01*
X165751Y188976D01*
Y183751D01*
X174749D01*
X175000Y183647D01*
X180000D01*
X180191Y183726D01*
X180663Y183547D01*
X181411Y182973D01*
X181461Y182888D01*
Y182461D01*
X187231D01*
Y190001D01*
Y197541D01*
X181461D01*
Y197112D01*
X181411Y197027D01*
X180663Y196453D01*
X180191Y196274D01*
X180000Y196353D01*
X175000D01*
X174753Y196251D01*
X166366D01*
X166026Y196591D01*
X164647Y197162D01*
X163155D01*
X162595Y196930D01*
X162517Y196982D01*
X161639Y197157D01*
X112241D01*
X111364Y196982D01*
X110619Y196485D01*
X107923Y193789D01*
X106555Y194216D01*
X106179Y195124D01*
X105124Y196179D01*
X103746Y196750D01*
X102254D01*
X100876Y196179D01*
X99821Y195124D01*
X99332Y193945D01*
X99226Y193833D01*
X98643Y193540D01*
X97980Y193314D01*
X96176Y194356D01*
X93622Y195040D01*
X93570D01*
Y185000D01*
Y174870D01*
X93683Y174849D01*
X94250Y173814D01*
Y173254D01*
X94821Y171876D01*
X95876Y170821D01*
X97254Y170250D01*
X98746D01*
X99990Y170765D01*
X107534Y163222D01*
X107008Y161952D01*
X104700D01*
Y152300D01*
X98441D01*
X96544Y154197D01*
Y165328D01*
X96369Y166206D01*
X95872Y166951D01*
X90485Y172338D01*
X90509Y172395D01*
Y173771D01*
X90593Y173983D01*
X91030Y174489D01*
Y183730D01*
X82260D01*
Y183678D01*
X82945Y181125D01*
X84266Y178836D01*
X85181Y177921D01*
X84883Y176423D01*
X84635Y176320D01*
X83580Y175265D01*
X83233Y174429D01*
X81835Y174030D01*
X74757Y181109D01*
X75054Y181623D01*
X75650Y183848D01*
Y186152D01*
X75054Y188378D01*
X73902Y190373D01*
X72273Y192002D01*
X70278Y193154D01*
X68052Y193750D01*
X65748D01*
X63523Y193154D01*
X61528Y192002D01*
X59899Y190373D01*
X58747Y188378D01*
X58150Y186152D01*
Y183848D01*
X58747Y181623D01*
X59899Y179628D01*
X61528Y177999D01*
X63523Y176847D01*
X65748Y176250D01*
X68052D01*
X70278Y176847D01*
X70792Y177143D01*
X79696Y168239D01*
Y165786D01*
X79100D01*
X78378Y165643D01*
X77766Y165234D01*
X77357Y164622D01*
X77333Y164500D01*
X73982D01*
X73858Y165125D01*
X73164Y166164D01*
X72125Y166858D01*
X70900Y167101D01*
X68770D01*
Y160000D01*
X67500D01*
Y158730D01*
X60898D01*
Y156100D01*
X61142Y154875D01*
X61836Y153836D01*
X62863Y153150D01*
X62875Y153086D01*
Y151914D01*
X62863Y151850D01*
X61836Y151164D01*
X61142Y150125D01*
X60898Y148900D01*
Y146270D01*
X67500D01*
Y145000D01*
X68770D01*
Y137899D01*
X70900D01*
X72125Y138142D01*
X73164Y138836D01*
X73858Y139875D01*
X73982Y140500D01*
X77333D01*
X77357Y140378D01*
X77766Y139766D01*
X78378Y139357D01*
X79100Y139214D01*
X79696D01*
Y136423D01*
X78998Y135426D01*
X78465Y135286D01*
X61100D01*
X60378Y135143D01*
X59766Y134734D01*
X59357Y134122D01*
X59214Y133400D01*
Y130600D01*
X59357Y129878D01*
X59766Y129266D01*
X60378Y128857D01*
X61100Y128714D01*
X70961D01*
X71000Y128706D01*
X78050D01*
X88824Y117932D01*
X89568Y117435D01*
X90446Y117260D01*
X90918D01*
X91024Y117121D01*
X91385Y115990D01*
X85944Y110549D01*
X80357D01*
X80234Y110734D01*
X79622Y111143D01*
X78900Y111286D01*
X61100D01*
X60378Y111143D01*
X59766Y110734D01*
X59357Y110122D01*
X59214Y109400D01*
Y106600D01*
X59357Y105878D01*
X59766Y105266D01*
X60378Y104857D01*
X61100Y104714D01*
X78900D01*
X79622Y104857D01*
X80234Y105266D01*
X80357Y105451D01*
X87000D01*
X87975Y105645D01*
X88802Y106198D01*
X93932Y111327D01*
X95048Y111700D01*
X95048Y111700D01*
Y111700D01*
X95048Y111700D01*
X104700D01*
Y102048D01*
X104700Y102048D01*
X104700D01*
X104700Y102048D01*
X104327Y100932D01*
X101944Y98549D01*
X64551D01*
X63575Y98355D01*
X62748Y97802D01*
X54247Y89301D01*
X53694Y88474D01*
X53500Y87498D01*
Y72447D01*
X52230Y72062D01*
X52163Y72163D01*
X52163Y72163D01*
X50163Y74163D01*
X50163Y74163D01*
X49171Y74826D01*
X48000Y75059D01*
X48000Y75059D01*
X30821D01*
X30569Y76329D01*
X32416Y77094D01*
X34857Y78967D01*
X36730Y81408D01*
X37907Y84250D01*
X38142Y86030D01*
X25000D01*
X11858D01*
X12093Y84250D01*
X13270Y81408D01*
X15143Y78967D01*
X17584Y77094D01*
X19431Y76329D01*
X19179Y75059D01*
X12000D01*
X10829Y74826D01*
X9837Y74163D01*
X7837Y72163D01*
X7174Y71171D01*
X6941Y70000D01*
X6941Y70000D01*
Y54000D01*
X7174Y52829D01*
X7837Y51837D01*
X7837Y51837D01*
X9837Y49837D01*
X9837Y49837D01*
X10829Y49174D01*
X12000Y48941D01*
X12000Y48941D01*
X35588D01*
X36314Y48039D01*
X35828Y46914D01*
X13062D01*
Y26086D01*
X36938D01*
Y45940D01*
X38208Y46466D01*
X51837Y32837D01*
X52829Y32174D01*
X54000Y31941D01*
X54000Y31941D01*
X79000D01*
X80170Y32174D01*
X81163Y32837D01*
X83163Y34837D01*
X83826Y35830D01*
X84059Y37000D01*
X84059Y37000D01*
Y38728D01*
X84000Y39024D01*
D01*
X84000Y39024D01*
Y39325D01*
X83885Y39604D01*
X83826Y39899D01*
X83659Y40149D01*
X83543Y40428D01*
X83330Y40641D01*
X83163Y40891D01*
X83128Y40915D01*
X83071Y41000D01*
X83000D01*
Y41301D01*
Y45059D01*
Y45059D01*
X82767Y46229D01*
X82104Y47222D01*
X82104Y47222D01*
X81163Y48163D01*
X80170Y48826D01*
X79000Y49059D01*
X79000Y49059D01*
X60267Y49059D01*
X53059Y56267D01*
Y66641D01*
X53981Y67035D01*
X54329Y67066D01*
X56848Y64548D01*
X57675Y63995D01*
X58650Y63801D01*
X60206D01*
Y62433D01*
X82518D01*
Y70267D01*
X60206D01*
Y70267D01*
X59069Y70589D01*
X58598Y70904D01*
Y86442D01*
X65607Y93451D01*
X81583D01*
X82109Y92181D01*
X75733Y85805D01*
X75181Y84978D01*
X74987Y84003D01*
Y83016D01*
X74000D01*
X73754Y82967D01*
X60206D01*
Y75133D01*
X82518D01*
Y82967D01*
X81764D01*
X81278Y84140D01*
X85589Y88451D01*
X106000D01*
X106975Y88645D01*
X107802Y89198D01*
X114356Y95752D01*
X114909Y96579D01*
X115103Y97554D01*
Y102048D01*
X120166D01*
Y95944D01*
X120341Y95066D01*
X120838Y94322D01*
X126782Y88378D01*
X127526Y87880D01*
X128404Y87706D01*
X188454D01*
X191456Y84704D01*
Y76200D01*
X190283Y75714D01*
X187514Y78482D01*
X187308Y78620D01*
Y78676D01*
X186737Y80054D01*
X185682Y81109D01*
X184304Y81680D01*
X182812D01*
X181434Y81109D01*
X180379Y80054D01*
X179808Y78676D01*
Y77184D01*
X180379Y75806D01*
X181434Y74751D01*
X182452Y74329D01*
X182199Y73059D01*
X158267D01*
X157163Y74163D01*
X156171Y74826D01*
X155000Y75059D01*
X155000Y75059D01*
X113000D01*
X111830Y74826D01*
X110837Y74163D01*
X109896Y73222D01*
X109233Y72229D01*
X109000Y71059D01*
Y71059D01*
D01*
Y61941D01*
X109233Y60771D01*
X109896Y59778D01*
Y59222D01*
X109233Y58229D01*
X109000Y57059D01*
Y57059D01*
D01*
Y47941D01*
X109233Y46771D01*
X109896Y45778D01*
X110837Y44837D01*
X111830Y44174D01*
X113000Y43941D01*
X113000Y43941D01*
X129733D01*
X130837Y42837D01*
X131830Y42174D01*
X133000Y41941D01*
X133000Y41941D01*
X136956D01*
X137442Y40768D01*
X135000Y38326D01*
Y38326D01*
X127733Y31059D01*
X110000D01*
X109705Y31000D01*
X108829Y30826D01*
X107837Y30163D01*
X105837Y28163D01*
X105174Y27171D01*
X104941Y26000D01*
X104941Y26000D01*
Y6000D01*
X105174Y4830D01*
X105837Y3837D01*
X107837Y1837D01*
X107938Y242D01*
X107745Y0D01*
X0D01*
Y200000D01*
X0Y200000D01*
X200000D01*
Y131962D01*
D02*
G37*
G36*
X136078Y57941D02*
X136078Y57941D01*
X136078Y57941D01*
X140059D01*
X143941Y54059D01*
Y53078D01*
X143941Y53078D01*
Y53078D01*
X143973Y52917D01*
Y51083D01*
X143941Y50922D01*
X143941Y50922D01*
X143941Y50922D01*
Y49941D01*
X139000Y45000D01*
X133000D01*
X131000Y47000D01*
X113000D01*
X112059Y47941D01*
Y57059D01*
X112951Y57951D01*
X113000Y57941D01*
X113000Y57941D01*
X133922D01*
X133922Y57941D01*
X133922D01*
X134083Y57973D01*
X135917D01*
X136078Y57941D01*
D02*
G37*
G36*
X50000Y70000D02*
Y55000D01*
X59000Y46000D01*
X79000Y46000D01*
X79941Y45059D01*
Y41000D01*
X80174Y39829D01*
X80837Y38837D01*
X81000Y38728D01*
Y37000D01*
X79000Y35000D01*
X54000D01*
X37000Y52000D01*
X12000D01*
X10000Y54000D01*
Y70000D01*
X12000Y72000D01*
X48000D01*
X50000Y70000D01*
D02*
G37*
G36*
X157000Y70000D02*
X185000D01*
X185667Y69333D01*
Y47616D01*
X184186Y46135D01*
X183247Y44729D01*
X182917Y43071D01*
Y40000D01*
X161000D01*
X156000Y35000D01*
Y6000D01*
X154000Y4000D01*
X110000D01*
X108000Y6000D01*
Y26000D01*
X110000Y28000D01*
X129000D01*
X147000Y46000D01*
Y50922D01*
X147032Y50999D01*
Y53001D01*
X147000Y53078D01*
Y59000D01*
X145000Y61000D01*
X136078D01*
X136001Y61032D01*
X133999D01*
X133922Y61000D01*
X113000D01*
X112059Y61941D01*
Y71059D01*
X113000Y72000D01*
X155000D01*
X157000Y70000D01*
D02*
G37*
%LPC*%
G36*
X195541Y197541D02*
X189771D01*
Y191271D01*
X195541D01*
Y197541D01*
D02*
G37*
G36*
X15229Y196539D02*
X9459D01*
Y190269D01*
X15229D01*
Y196539D01*
D02*
G37*
G36*
X91030Y195040D02*
X90979D01*
X88425Y194356D01*
X86136Y193034D01*
X84266Y191165D01*
X82945Y188876D01*
X82260Y186322D01*
Y186270D01*
X91030D01*
Y195040D01*
D02*
G37*
G36*
X195541Y188731D02*
X189771D01*
Y182461D01*
X195541D01*
Y188731D01*
D02*
G37*
G36*
X15229Y187729D02*
X9459D01*
Y181459D01*
X15229D01*
Y187729D01*
D02*
G37*
G36*
X23539Y196539D02*
X17769D01*
Y188999D01*
Y181459D01*
X23539D01*
Y181888D01*
X23589Y181973D01*
X24337Y182547D01*
X24809Y182726D01*
X25000Y182647D01*
X30000D01*
X30422Y182437D01*
X30821Y181124D01*
X30250Y179746D01*
Y178254D01*
X30821Y176876D01*
X31876Y175821D01*
X33254Y175250D01*
X34746D01*
X36124Y175821D01*
X37179Y176876D01*
X37750Y178254D01*
Y179746D01*
X37179Y181124D01*
X36824Y181479D01*
X37350Y182749D01*
X39249D01*
Y195249D01*
X30251D01*
X30000Y195353D01*
X25000D01*
X24809Y195274D01*
X24337Y195453D01*
X23589Y196028D01*
X23539Y196112D01*
Y196539D01*
D02*
G37*
G36*
X66230Y167101D02*
X64100D01*
X62875Y166858D01*
X61836Y166164D01*
X61142Y165125D01*
X60898Y163900D01*
Y161270D01*
X66230D01*
Y167101D01*
D02*
G37*
G36*
X26524Y173984D02*
X23476D01*
X20763Y173626D01*
X18234Y172579D01*
X16063Y170913D01*
X14397Y168742D01*
X13349Y166213D01*
X12992Y163500D01*
X13349Y160787D01*
X14397Y158258D01*
X16063Y156087D01*
X18234Y154421D01*
X20763Y153373D01*
X23476Y153016D01*
X26524D01*
X29237Y153373D01*
X31766Y154421D01*
X33937Y156087D01*
X35603Y158258D01*
X36651Y160787D01*
X37008Y163500D01*
X36651Y166213D01*
X35603Y168742D01*
X33937Y170913D01*
X31766Y172579D01*
X29237Y173626D01*
X26524Y173984D01*
D02*
G37*
G36*
X66230Y143730D02*
X60898D01*
Y141100D01*
X61142Y139875D01*
X61836Y138836D01*
X62875Y138142D01*
X64100Y137899D01*
X66230D01*
Y143730D01*
D02*
G37*
G36*
X26524Y148584D02*
X23476D01*
X20763Y148226D01*
X18234Y147179D01*
X16063Y145513D01*
X14397Y143342D01*
X13349Y140813D01*
X12992Y138100D01*
X13349Y135387D01*
X14397Y132858D01*
X16063Y130687D01*
X18234Y129021D01*
X20763Y127973D01*
X23476Y127616D01*
X26524D01*
X29237Y127973D01*
X31766Y129021D01*
X33937Y130687D01*
X35603Y132858D01*
X36651Y135387D01*
X37008Y138100D01*
X36651Y140813D01*
X35603Y143342D01*
X33937Y145513D01*
X31766Y147179D01*
X29237Y148226D01*
X26524Y148584D01*
D02*
G37*
G36*
X78900Y124601D02*
X71270D01*
Y121270D01*
X82101D01*
Y121400D01*
X81858Y122625D01*
X81164Y123664D01*
X80125Y124358D01*
X78900Y124601D01*
D02*
G37*
G36*
X68730D02*
X61100D01*
X59875Y124358D01*
X58836Y123664D01*
X58142Y122625D01*
X57899Y121400D01*
Y121270D01*
X68730D01*
Y124601D01*
D02*
G37*
G36*
X182500Y125127D02*
X181270D01*
Y116270D01*
X192459D01*
X192282Y117621D01*
X191270Y120063D01*
X189661Y122161D01*
X187563Y123770D01*
X185121Y124782D01*
X182500Y125127D01*
D02*
G37*
G36*
X82101Y118730D02*
X71270D01*
Y115399D01*
X78900D01*
X80125Y115642D01*
X81164Y116336D01*
X81858Y117375D01*
X82101Y118600D01*
Y118730D01*
D02*
G37*
G36*
X68730D02*
X57899D01*
Y118600D01*
X58142Y117375D01*
X58836Y116336D01*
X59875Y115642D01*
X61100Y115399D01*
X68730D01*
Y118730D01*
D02*
G37*
G36*
X192459Y113730D02*
X181270D01*
Y104873D01*
X182500D01*
X185121Y105218D01*
X187563Y106230D01*
X189661Y107839D01*
X191270Y109937D01*
X192282Y112379D01*
X192459Y113730D01*
D02*
G37*
G36*
X26270Y123460D02*
X23730D01*
X20945Y123093D01*
X18350Y122018D01*
X16121Y120309D01*
X14411Y118080D01*
X13337Y115485D01*
X12970Y112700D01*
X13337Y109915D01*
X14411Y107320D01*
X16121Y105091D01*
X18350Y103382D01*
X20945Y102307D01*
X23730Y101940D01*
X26270D01*
X29055Y102307D01*
X31650Y103382D01*
X33879Y105091D01*
X35589Y107320D01*
X36663Y109915D01*
X37030Y112700D01*
X36663Y115485D01*
X35589Y118080D01*
X33879Y120309D01*
X31650Y122018D01*
X29055Y123093D01*
X26270Y123460D01*
D02*
G37*
G36*
X26524Y99085D02*
X26270D01*
Y88570D01*
X38142D01*
X37907Y90350D01*
X36730Y93192D01*
X34857Y95633D01*
X32416Y97506D01*
X29574Y98683D01*
X26524Y99085D01*
D02*
G37*
G36*
X23730D02*
X23476D01*
X20426Y98683D01*
X17584Y97506D01*
X15143Y95633D01*
X13270Y93192D01*
X12093Y90350D01*
X11858Y88570D01*
X23730D01*
Y99085D01*
D02*
G37*
%LPD*%
G36*
X30000Y184000D02*
X25000D01*
X26250Y186000D01*
X28250Y189000D01*
X26250Y192000D01*
X25000Y194000D01*
X30000D01*
Y184000D01*
D02*
G37*
G36*
X23500Y192000D02*
X25500Y189000D01*
X23500Y186000D01*
X22250Y184000D01*
X20000D01*
Y194000D01*
X22250D01*
X23500Y192000D01*
D02*
G37*
D12*
X164030Y114474D02*
X167577Y118021D01*
Y150126D02*
X172000Y154549D01*
X167577Y118021D02*
Y150126D01*
X127540Y98755D02*
Y107362D01*
X133045Y93250D02*
X190750D01*
X127540Y98755D02*
X133045Y93250D01*
X152577Y103836D02*
X166328D01*
X166590Y103574D02*
X168426D01*
X166328Y103836D02*
X166590Y103574D01*
X168426D02*
X169000Y103000D01*
X160146Y97986D02*
X162099D01*
X162673Y98560D01*
X159958Y97798D02*
X160146Y97986D01*
X136202Y97798D02*
X159958D01*
X149789Y101048D02*
X152577Y103836D01*
X140070Y101048D02*
X149789D01*
X155085Y107362D02*
X156309Y108586D01*
X142526Y107362D02*
X155085D01*
X156309Y108586D02*
X157121D01*
X137970Y103148D02*
X140070Y101048D01*
X137970Y103148D02*
Y106838D01*
X132620Y101380D02*
X136202Y97798D01*
X189404Y90000D02*
X193750Y85654D01*
X128404Y90000D02*
X189404D01*
X122460Y95944D02*
X128404Y90000D01*
X86759Y172820D02*
X94250Y165328D01*
X86759Y172820D02*
Y173141D01*
X163901Y193412D02*
X168090D01*
X171501Y190001D01*
X163090Y193412D02*
X163901D01*
X161639Y194862D02*
X163090Y193412D01*
X112241Y194862D02*
X161639D01*
X107950Y190571D02*
X112241Y194862D01*
X107950Y179050D02*
Y190571D01*
X149638Y114474D02*
X164030D01*
X122460Y95944D02*
Y107362D01*
X94250Y153247D02*
Y165328D01*
X98574Y173426D02*
X100574D01*
X98000Y174000D02*
X98574Y173426D01*
X100574D02*
X110000Y164000D01*
X193750Y43312D02*
Y85654D01*
X192250Y41812D02*
X193750Y43312D01*
X192250Y41000D02*
Y41812D01*
X89711Y138711D02*
Y141996D01*
X92162Y144446D02*
X100362D01*
X89464Y138464D02*
X89711Y138711D01*
Y141996D02*
X92162Y144446D01*
X71000Y131000D02*
X79000D01*
X90446Y119554D02*
X100362D01*
X70000Y132000D02*
X71000Y131000D01*
X79000D02*
X90446Y119554D01*
X33499Y179501D02*
X34000Y179000D01*
X33499Y179501D02*
Y188999D01*
X132620Y101380D02*
Y107362D01*
X190750Y93250D02*
X197000Y87000D01*
X137446Y107362D02*
X137970Y106838D01*
X107950Y179050D02*
X122822Y164178D01*
Y157000D02*
Y164178D01*
X117218Y156800D02*
Y162782D01*
X103574Y176426D02*
X117218Y162782D01*
X110000Y164000D02*
X110000D01*
X103000Y193000D02*
X103574Y192426D01*
Y176426D02*
Y192426D01*
X110000Y164000D02*
X112043Y161957D01*
Y157149D02*
X112554Y156638D01*
X112043Y157149D02*
Y161957D01*
X94250Y153247D02*
X97298Y150199D01*
X97822Y149526D02*
X100362D01*
X97298Y150050D02*
Y150199D01*
Y150050D02*
X97822Y149526D01*
X132620Y156638D02*
X132982Y157000D01*
X127540Y156638D02*
X127902Y157000D01*
X122460Y156638D02*
X122822Y157000D01*
X117218Y156800D02*
X117380Y156638D01*
X132982Y157000D02*
Y174882D01*
X143100Y185000D01*
X127902Y157000D02*
Y174797D01*
X117700Y185000D02*
X127902Y174797D01*
X171000Y5000D02*
X195000D01*
X171000Y4750D02*
Y5000D01*
X195000D02*
X197000Y7000D01*
Y87000D01*
X182426Y142825D02*
Y150426D01*
X180000Y140399D02*
X182426Y142825D01*
X178000Y167799D02*
X180000Y165799D01*
X178000Y167799D02*
Y176000D01*
D17*
X71362Y40950D02*
D03*
Y53650D02*
D03*
Y66350D02*
D03*
Y79050D02*
D03*
X120638D02*
D03*
Y66350D02*
D03*
Y53650D02*
D03*
Y40950D02*
D03*
D18*
X186000Y27500D02*
D03*
Y12500D02*
D03*
X168000Y27500D02*
D03*
Y12500D02*
D03*
D19*
X125000Y132000D02*
D03*
D20*
X107474Y156638D02*
D03*
X112554D02*
D03*
X117380D02*
D03*
X122460D02*
D03*
X127540D02*
D03*
X132620D02*
D03*
X137446D02*
D03*
X142526D02*
D03*
Y107362D02*
D03*
X137446D02*
D03*
X132620D02*
D03*
X127540D02*
D03*
X122460D02*
D03*
X117380D02*
D03*
X112554D02*
D03*
X107474D02*
D03*
D21*
X149638Y149526D02*
D03*
Y144446D02*
D03*
Y139620D02*
D03*
Y134540D02*
D03*
Y129460D02*
D03*
Y124380D02*
D03*
Y119554D02*
D03*
Y114474D02*
D03*
X100362D02*
D03*
Y119554D02*
D03*
Y124380D02*
D03*
Y129460D02*
D03*
Y134540D02*
D03*
Y139620D02*
D03*
Y144446D02*
D03*
Y149526D02*
D03*
D22*
X180000Y140399D02*
D03*
X180000Y115000D02*
D03*
D23*
X180000Y165799D02*
D03*
D24*
X70000Y108000D02*
D03*
Y120000D02*
D03*
Y132000D02*
D03*
D25*
X82500Y145000D02*
D03*
X67500D02*
D03*
X82500Y160000D02*
D03*
X67500D02*
D03*
D26*
X96000Y60000D02*
D03*
D43*
X171501Y190001D02*
D03*
X188501D02*
D03*
X33499Y188999D02*
D03*
X16499D02*
D03*
D44*
X183558Y77930D02*
X184234D01*
X185484Y76680D02*
X185712D01*
X190000Y45821D02*
Y72392D01*
X184234Y77930D02*
X185484Y76680D01*
X185712D02*
X190000Y72392D01*
X161693Y119554D02*
X162083Y119944D01*
X149638Y119554D02*
X161693D01*
X162083Y119944D02*
X162506D01*
X187250Y38929D02*
X193000Y33179D01*
Y22816D02*
Y33179D01*
X187250Y38929D02*
Y43071D01*
X190000Y45821D01*
X193000Y22816D02*
X193000Y22816D01*
X193000Y19500D02*
Y22816D01*
X189250Y15750D02*
X193000Y19500D01*
X186000Y12500D02*
X186500D01*
X189250Y15250D01*
Y15750D01*
X186000Y12500D02*
X186000Y12500D01*
X168000Y12500D02*
X186000D01*
X112554Y97554D02*
Y107362D01*
X106000Y91000D02*
X112554Y97554D01*
X107474Y100474D02*
Y107362D01*
X103000Y96000D02*
X107474Y100474D01*
X93474Y114474D02*
X100362D01*
X87000Y108000D02*
X93474Y114474D01*
X75000Y108000D02*
X87000D01*
X185500Y27500D02*
X186000D01*
X178000Y24000D02*
X178478Y24478D01*
X182478D02*
X185500Y27500D01*
X178478Y24478D02*
X182478D01*
X170750Y30250D02*
X173573D01*
X175324Y32000D01*
X168000Y27500D02*
X170750Y30250D01*
X175324Y32000D02*
X176000D01*
X64551Y96000D02*
X103000D01*
X56049Y87498D02*
X64551Y96000D01*
X56049Y68951D02*
Y87498D01*
Y68951D02*
X58650Y66350D01*
X71362D01*
X84533Y91000D02*
X106000D01*
X77536Y84003D02*
X84533Y91000D01*
X74000Y80467D02*
X77536D01*
Y84003D01*
X71362Y79050D02*
X72583D01*
X74000Y80467D01*
D45*
X137732Y164500D02*
X137780Y164452D01*
X55000Y120000D02*
X70000D01*
X104000Y80000D02*
X104950Y79050D01*
X120638D01*
X88000Y50000D02*
Y52212D01*
X71362Y53650D02*
X86562D01*
X88000Y52212D01*
X67500Y145000D02*
Y160000D01*
D46*
X125000Y132000D02*
X127540Y134540D01*
X149638D01*
X122460Y129460D02*
X125000Y132000D01*
X117380Y139620D02*
X125000Y132000D01*
D47*
X100362Y129460D02*
X122460D01*
X100362Y139620D02*
X117380D01*
X88114Y129994D02*
X89126D01*
X93672Y134540D01*
X88114Y129994D02*
X93728Y124380D01*
X82500Y135608D02*
X88114Y129994D01*
X93672Y134540D02*
X100362D01*
X82500Y135608D02*
Y145000D01*
X93728Y124380D02*
X100362D01*
X82500Y145000D02*
Y160000D01*
X66900Y185000D02*
X82500Y169401D01*
Y160000D02*
Y169401D01*
D48*
X117700Y15000D02*
D03*
X92300Y15000D02*
D03*
X66900D02*
D03*
X117700Y185000D02*
D03*
X92300Y185000D02*
D03*
X66900D02*
D03*
D49*
X143100Y15000D02*
D03*
Y185000D02*
D03*
D50*
X25000Y112700D02*
D03*
D51*
Y87300D02*
D03*
Y61900D02*
D03*
Y138100D02*
D03*
Y163500D02*
D03*
D52*
Y36500D02*
D03*
D53*
X170000Y80000D02*
D03*
D54*
Y60000D02*
D03*
D55*
X162673Y98560D02*
D03*
X157121Y108586D02*
D03*
X183558Y77930D02*
D03*
X86759Y173141D02*
D03*
X100000Y160000D02*
D03*
X79280Y8320D02*
D03*
X38640D02*
D03*
X18320D02*
D03*
X163901Y193412D02*
D03*
X44000Y107000D02*
D03*
X162642Y120080D02*
D03*
X137732Y164500D02*
D03*
X98000Y174000D02*
D03*
X197000Y128000D02*
D03*
X192250Y41000D02*
D03*
X89464Y138464D02*
D03*
X34000Y179000D02*
D03*
X103000Y193000D02*
D03*
X171000Y4750D02*
D03*
X178000Y24000D02*
D03*
X176000Y32000D02*
D03*
X169000Y103000D02*
D03*
X172000Y154549D02*
D03*
X183000Y151000D02*
D03*
X178000Y176000D02*
D03*
X96000Y45000D02*
D03*
Y55000D02*
D03*
Y75000D02*
D03*
Y65000D02*
D03*
X88000Y70000D02*
D03*
Y50000D02*
D03*
Y60000D02*
D03*
X104000Y50000D02*
D03*
Y70000D02*
D03*
Y60000D02*
D03*
D56*
X65000Y140000D02*
D03*
X98480Y105997D02*
D03*
X191623Y178206D02*
D03*
X133000Y63000D02*
D03*
Y70000D02*
D03*
X142000Y52000D02*
D03*
X135000Y48000D02*
D03*
Y56000D02*
D03*
M02*
