G04*
G04 #@! TF.GenerationSoftware,Altium Limited,Altium Designer,21.9.2 (33)*
G04*
G04 Layer_Physical_Order=4*
G04 Layer_Color=16711680*
%FSLAX44Y44*%
%MOMM*%
G71*
G04*
G04 #@! TF.SameCoordinates,8D6B135D-26D1-4348-B727-2CCB693FEEA9*
G04*
G04*
G04 #@! TF.FilePolarity,Positive*
G04*
G01*
G75*
%ADD12C,0.2000*%
G04:AMPARAMS|DCode=18|XSize=0.8mm|YSize=0.9mm|CornerRadius=0.06mm|HoleSize=0mm|Usage=FLASHONLY|Rotation=270.000|XOffset=0mm|YOffset=0mm|HoleType=Round|Shape=RoundedRectangle|*
%AMROUNDEDRECTD18*
21,1,0.8000,0.7800,0,0,270.0*
21,1,0.6800,0.9000,0,0,270.0*
1,1,0.1200,-0.3900,-0.3400*
1,1,0.1200,-0.3900,0.3400*
1,1,0.1200,0.3900,0.3400*
1,1,0.1200,0.3900,-0.3400*
%
%ADD18ROUNDEDRECTD18*%
%ADD43R,0.9000X1.0000*%
%ADD44C,0.2500*%
%ADD45C,0.5000*%
%ADD47C,0.3000*%
%ADD48C,1.5000*%
%ADD49R,1.5000X1.5000*%
%ADD50O,2.1336X1.8796*%
%ADD51O,2.1336X1.8288*%
%ADD52R,2.1336X1.8288*%
%ADD53O,2.0000X1.5000*%
%ADD54R,2.0000X1.5000*%
%ADD55C,0.5000*%
%ADD56C,0.4064*%
G04:AMPARAMS|DCode=57|XSize=0.5334mm|YSize=1.9812mm|CornerRadius=0.0667mm|HoleSize=0mm|Usage=FLASHONLY|Rotation=180.000|XOffset=0mm|YOffset=0mm|HoleType=Round|Shape=RoundedRectangle|*
%AMROUNDEDRECTD57*
21,1,0.5334,1.8479,0,0,180.0*
21,1,0.4001,1.9812,0,0,180.0*
1,1,0.1333,-0.2000,0.9239*
1,1,0.1333,0.2000,0.9239*
1,1,0.1333,0.2000,-0.9239*
1,1,0.1333,-0.2000,-0.9239*
%
%ADD57ROUNDEDRECTD57*%
G04:AMPARAMS|DCode=58|XSize=0.9mm|YSize=0.8mm|CornerRadius=0.06mm|HoleSize=0mm|Usage=FLASHONLY|Rotation=0.000|XOffset=0mm|YOffset=0mm|HoleType=Round|Shape=RoundedRectangle|*
%AMROUNDEDRECTD58*
21,1,0.9000,0.6800,0,0,0.0*
21,1,0.7800,0.8000,0,0,0.0*
1,1,0.1200,0.3900,-0.3400*
1,1,0.1200,-0.3900,-0.3400*
1,1,0.1200,-0.3900,0.3400*
1,1,0.1200,0.3900,0.3400*
%
%ADD58ROUNDEDRECTD58*%
G04:AMPARAMS|DCode=59|XSize=0.9mm|YSize=0.8mm|CornerRadius=0.06mm|HoleSize=0mm|Usage=FLASHONLY|Rotation=90.000|XOffset=0mm|YOffset=0mm|HoleType=Round|Shape=RoundedRectangle|*
%AMROUNDEDRECTD59*
21,1,0.9000,0.6800,0,0,90.0*
21,1,0.7800,0.8000,0,0,90.0*
1,1,0.1200,0.3400,0.3900*
1,1,0.1200,0.3400,-0.3900*
1,1,0.1200,-0.3400,-0.3900*
1,1,0.1200,-0.3400,0.3900*
%
%ADD59ROUNDEDRECTD59*%
G36*
X200000Y190832D02*
X199038Y190435D01*
X198730Y190410D01*
X197338Y191802D01*
X196511Y192355D01*
X195536Y192549D01*
X194286D01*
Y193400D01*
X194143Y194122D01*
X193734Y194734D01*
X193122Y195143D01*
X192400Y195286D01*
X184600D01*
X184304Y195227D01*
X184000Y195354D01*
X176000D01*
X175695Y195228D01*
X175400Y195286D01*
X167600D01*
X167216Y195210D01*
X167080Y195536D01*
X166026Y196591D01*
X164647Y197162D01*
X163155D01*
X161777Y196591D01*
X160722Y195536D01*
X160366Y194675D01*
X158978Y194266D01*
X156622Y196622D01*
X155878Y197119D01*
X155000Y197294D01*
X105672D01*
X104794Y197119D01*
X104051Y196623D01*
X103746Y196750D01*
X102254D01*
X100876Y196179D01*
X99821Y195124D01*
X99332Y193945D01*
X99226Y193833D01*
X98643Y193540D01*
X97980Y193314D01*
X96176Y194356D01*
X93622Y195040D01*
X93570D01*
Y185000D01*
X91030D01*
Y195040D01*
X90979D01*
X88425Y194356D01*
X86136Y193034D01*
X85120Y192018D01*
X83850Y192544D01*
Y193452D01*
X83501Y195208D01*
X82506Y196696D01*
X80375Y198827D01*
X80861Y200000D01*
X200000D01*
Y190832D01*
D02*
G37*
G36*
X172378Y174378D02*
X173122Y173881D01*
X174000Y173706D01*
X174991D01*
X175876Y172821D01*
X177254Y172250D01*
X178746D01*
X180124Y172821D01*
X181179Y173876D01*
X181750Y175254D01*
Y176746D01*
X181179Y178124D01*
X180124Y179179D01*
X178746Y179750D01*
X177254D01*
X175876Y179179D01*
X174991Y178294D01*
X174950D01*
X169704Y183540D01*
X170190Y184714D01*
X175400D01*
X175697Y184773D01*
X176000Y184648D01*
X184000D01*
X184302Y184773D01*
X184600Y184714D01*
X192400D01*
X193122Y184857D01*
X193181Y184897D01*
X194451Y184228D01*
Y172139D01*
X189772D01*
Y164599D01*
X187232D01*
Y172139D01*
X181462D01*
Y171712D01*
X181412Y171628D01*
X180665Y171053D01*
X180193Y170874D01*
X180002Y170953D01*
X175002D01*
X174751Y170849D01*
X165753D01*
Y158349D01*
X169208D01*
Y157061D01*
X168821Y156673D01*
X168250Y155295D01*
Y153803D01*
X168821Y152425D01*
X169252Y151994D01*
X168726Y150724D01*
X165331D01*
X164294Y151761D01*
Y164000D01*
X164119Y164878D01*
X163622Y165622D01*
X153622Y175622D01*
X152878Y176119D01*
X152000Y176294D01*
X151850D01*
Y192706D01*
X154050D01*
X172378Y174378D01*
D02*
G37*
G36*
X185002Y159600D02*
X182752D01*
X181502Y161600D01*
X179502Y164600D01*
X181502Y167600D01*
X182752Y169600D01*
X185002D01*
Y159600D01*
D02*
G37*
G36*
X178752Y167600D02*
X176752Y164600D01*
X178752Y161600D01*
X180002Y159600D01*
X175002D01*
Y169600D01*
X180002D01*
X178752Y167600D01*
D02*
G37*
G36*
X71451Y146858D02*
X71645Y145882D01*
X72198Y145055D01*
X72529Y144724D01*
X72543Y144652D01*
X72967Y144018D01*
X73601Y143594D01*
X73673Y143580D01*
X86055Y131198D01*
X86882Y130645D01*
X87858Y130451D01*
X105714D01*
Y129600D01*
X105857Y128878D01*
X105659Y127879D01*
X105336Y127664D01*
X104642Y126625D01*
X104398Y125400D01*
Y123270D01*
X111500D01*
Y120730D01*
X104398D01*
Y118600D01*
X104642Y117375D01*
X105227Y116500D01*
X104642Y115625D01*
X104398Y114400D01*
Y112270D01*
X111500D01*
Y109730D01*
X104398D01*
Y107600D01*
X104642Y106375D01*
X105336Y105336D01*
X105857Y104988D01*
X105982Y104607D01*
X106101Y103568D01*
X106067Y103436D01*
X105857Y103122D01*
X105714Y102400D01*
Y102247D01*
X93004D01*
Y114602D01*
X92855Y115350D01*
X92431Y115984D01*
X91797Y116408D01*
X91049Y116556D01*
X87049D01*
X86301Y116408D01*
X85667Y115984D01*
X85243Y115350D01*
X85095Y114602D01*
Y107912D01*
X80304D01*
Y114602D01*
X80155Y115350D01*
X79731Y115984D01*
X79097Y116408D01*
X78349Y116556D01*
X74349D01*
X73936Y116474D01*
X72958Y117029D01*
X72666Y117310D01*
Y127138D01*
X72453Y128211D01*
X71845Y129121D01*
X60236Y140729D01*
Y142530D01*
X60340Y142697D01*
X61506Y143474D01*
X61649Y143445D01*
X65649D01*
X66397Y143594D01*
X67031Y144018D01*
X67455Y144652D01*
X67604Y145400D01*
Y152090D01*
X71451D01*
Y146858D01*
D02*
G37*
G36*
X185002Y134200D02*
X182752D01*
X181502Y136200D01*
X179502Y139200D01*
X181502Y142200D01*
X182752Y144200D01*
X185002D01*
Y134200D01*
D02*
G37*
G36*
X178752Y142200D02*
X176752Y139200D01*
X178752Y136200D01*
X180002Y134200D01*
X175002D01*
Y144200D01*
X180002D01*
X178752Y142200D01*
D02*
G37*
G36*
X152706Y161050D02*
Y128710D01*
X136290Y112294D01*
X134286D01*
Y114400D01*
X134143Y115122D01*
X133734Y115734D01*
X133677Y115772D01*
Y117228D01*
X133734Y117266D01*
X134143Y117878D01*
X134286Y118600D01*
Y125400D01*
X134143Y126122D01*
X133734Y126734D01*
X133677Y126771D01*
Y128229D01*
X133734Y128266D01*
X134143Y128878D01*
X134286Y129600D01*
Y136400D01*
X134143Y137122D01*
X133734Y137734D01*
X133122Y138143D01*
X132400Y138286D01*
X127138D01*
X127119Y138378D01*
X126622Y139122D01*
X124821Y140923D01*
X124994Y141706D01*
X125305Y142193D01*
X128900D01*
X129630Y142338D01*
X130248Y142752D01*
X130661Y143370D01*
X130807Y144100D01*
Y150900D01*
X130661Y151630D01*
X130248Y152248D01*
X129630Y152662D01*
X129500Y152687D01*
Y156018D01*
X130125Y156142D01*
X131164Y156836D01*
X131858Y157875D01*
X132101Y159100D01*
Y161230D01*
X125000D01*
Y163770D01*
X132101D01*
Y165900D01*
X132087Y165974D01*
X132892Y166956D01*
X146800D01*
X152706Y161050D01*
D02*
G37*
G36*
X185002Y108800D02*
X182752D01*
X181502Y110800D01*
X179502Y113800D01*
X181502Y116800D01*
X182752Y118800D01*
X185002D01*
Y108800D01*
D02*
G37*
G36*
X178752Y116800D02*
X176752Y113800D01*
X178752Y110800D01*
X180002Y108800D01*
X175002D01*
Y118800D01*
X180002D01*
X178752Y116800D01*
D02*
G37*
G36*
X145000Y57000D02*
Y43000D01*
X127000Y25000D01*
X12000D01*
X10000Y27000D01*
Y47000D01*
X12000Y49000D01*
X68000D01*
X77000Y40000D01*
X82704D01*
X83000Y39941D01*
X93841D01*
X94906Y39500D01*
X97094D01*
X98159Y39941D01*
X109000D01*
X109296Y40000D01*
X111000D01*
X126000Y55000D01*
X129942Y58942D01*
X130150Y58734D01*
X131999Y57968D01*
X134001D01*
X135850Y58734D01*
X136116Y59000D01*
X143000D01*
X145000Y57000D01*
D02*
G37*
G36*
X136500Y72000D02*
Y70500D01*
X145500D01*
Y72000D01*
X152000D01*
X155000Y69000D01*
X181000D01*
X182000Y68000D01*
Y52000D01*
X181000Y51000D01*
X160000D01*
X150000Y61000D01*
X145326D01*
X145163Y61163D01*
X145163Y61163D01*
X144568Y61560D01*
X144171Y61826D01*
X143000Y62059D01*
X143000Y62059D01*
X136116D01*
X134946Y61826D01*
X134548Y61560D01*
X134332Y61416D01*
X133392Y61027D01*
X132607D01*
X131592Y61448D01*
X131112Y61768D01*
X130014Y61986D01*
X130000Y62000D01*
Y71000D01*
X131000Y72000D01*
X136500D01*
D02*
G37*
G36*
X11033Y112478D02*
X12522Y111483D01*
X13147Y111359D01*
X13337Y109915D01*
X14411Y107320D01*
X16121Y105091D01*
X18350Y103382D01*
X20945Y102307D01*
X23730Y101940D01*
X26270D01*
X26965Y102031D01*
X28950Y100046D01*
X28357Y98843D01*
X26524Y99085D01*
X26270D01*
Y88570D01*
X38142D01*
X38068Y89133D01*
X39270Y89726D01*
X50179Y78818D01*
X51668Y77823D01*
X53423Y77474D01*
X114823D01*
X125541Y66756D01*
X126941Y65820D01*
Y62000D01*
X126941Y62000D01*
X127014Y61636D01*
Y61390D01*
X127108Y61162D01*
X127174Y60830D01*
X127306Y60632D01*
X123837Y57163D01*
X109733Y43059D01*
X109296D01*
X109000Y43000D01*
X98159D01*
X96989Y42767D01*
X96486Y42559D01*
X95514D01*
X95011Y42767D01*
X93841Y43000D01*
X83000D01*
X82704Y43059D01*
X78267D01*
X70163Y51163D01*
X69170Y51826D01*
X68000Y52059D01*
X68000Y52059D01*
X32892D01*
X32461Y53329D01*
X33951Y54473D01*
X35621Y56648D01*
X36670Y59181D01*
X37028Y61900D01*
X36670Y64619D01*
X35621Y67152D01*
X33951Y69327D01*
X31776Y70997D01*
X29243Y72046D01*
X26524Y72404D01*
X23476D01*
X20757Y72046D01*
X18224Y70997D01*
X16049Y69327D01*
X14379Y67152D01*
X13330Y64619D01*
X12972Y61900D01*
X13330Y59181D01*
X14379Y56648D01*
X16049Y54473D01*
X17539Y53329D01*
X17108Y52059D01*
X12000D01*
X10829Y51826D01*
X9837Y51163D01*
X7837Y49163D01*
X7174Y48170D01*
X6941Y47000D01*
X6941Y47000D01*
Y27000D01*
X7174Y25830D01*
X7837Y24837D01*
X9837Y22837D01*
X10829Y22174D01*
X12000Y21941D01*
X12000Y21941D01*
X110579D01*
X111065Y20768D01*
X110682Y20385D01*
X109527Y18385D01*
X108930Y16154D01*
Y13845D01*
X109527Y11615D01*
X110682Y9615D01*
X112315Y7982D01*
X114314Y6827D01*
X116545Y6230D01*
X118854D01*
X121085Y6827D01*
X123084Y7982D01*
X124717Y9615D01*
X125872Y11615D01*
X126470Y13845D01*
Y16154D01*
X125872Y18385D01*
X124717Y20385D01*
X124334Y20768D01*
X124820Y21941D01*
X127000D01*
X127000Y21941D01*
X128170Y22174D01*
X129163Y22837D01*
X147163Y40837D01*
X147826Y41830D01*
X148059Y43000D01*
X148059Y43000D01*
Y56819D01*
X148487Y57141D01*
X149274Y57400D01*
X157837Y48837D01*
X158829Y48174D01*
X160000Y47941D01*
X160000Y47941D01*
X181000D01*
X181000Y47941D01*
X182171Y48174D01*
X183163Y48837D01*
X183163Y48837D01*
X184163Y49837D01*
X184826Y50830D01*
X185059Y52000D01*
X185059Y52000D01*
Y68000D01*
X185059Y68000D01*
X184826Y69170D01*
X184163Y70163D01*
X184163Y70163D01*
X183163Y71163D01*
X182171Y71826D01*
X181000Y72059D01*
X181000Y72059D01*
X156267D01*
X154163Y74163D01*
X153170Y74826D01*
X152000Y75059D01*
X152000Y75059D01*
X148112D01*
X147493Y76329D01*
X147858Y76875D01*
X148102Y78100D01*
Y80230D01*
X141000D01*
Y82770D01*
X148102D01*
Y84900D01*
X147858Y86125D01*
X147164Y87164D01*
X147027Y88783D01*
X151901Y93657D01*
X160002D01*
X160880Y93831D01*
X161624Y94328D01*
X162106Y94810D01*
X163419D01*
X164798Y95381D01*
X165853Y96436D01*
X166423Y97814D01*
Y98634D01*
X167605Y99519D01*
X168254Y99250D01*
X169746D01*
X171124Y99821D01*
X172179Y100876D01*
X172750Y102254D01*
Y103675D01*
X173125Y104049D01*
X173622Y104794D01*
X173797Y105672D01*
Y106848D01*
X175002Y107447D01*
X180002D01*
X180193Y107526D01*
X180665Y107347D01*
X181412Y106772D01*
X181462Y106688D01*
Y106259D01*
X187232D01*
Y113799D01*
X189772D01*
Y106259D01*
X194451D01*
Y92056D01*
X184075Y81680D01*
X182812D01*
X181434Y81109D01*
X180379Y80054D01*
X179808Y78676D01*
Y77184D01*
X180379Y75806D01*
X181434Y74751D01*
X182812Y74180D01*
X184304D01*
X185682Y74751D01*
X186737Y75806D01*
X187308Y77184D01*
Y77703D01*
X198730Y89125D01*
X199038Y89100D01*
X200000Y88704D01*
Y0D01*
X172650D01*
X172398Y1270D01*
X173124Y1571D01*
X174179Y2626D01*
X174750Y4004D01*
Y5496D01*
X174179Y6874D01*
X173286Y7767D01*
Y15400D01*
X173228Y15693D01*
X173353Y15995D01*
Y22101D01*
X174623Y22354D01*
X174821Y21876D01*
X175876Y20821D01*
X177254Y20250D01*
X178746D01*
X179377Y20512D01*
X180647Y19685D01*
Y16002D01*
X180773Y15698D01*
X180714Y15400D01*
Y7600D01*
X180857Y6878D01*
X181266Y6266D01*
X181878Y5857D01*
X182600Y5714D01*
X189400D01*
X190122Y5857D01*
X190734Y6266D01*
X191143Y6878D01*
X191286Y7600D01*
Y10282D01*
X191828D01*
X192706Y10457D01*
X193451Y10954D01*
X195622Y13126D01*
X196119Y13870D01*
X196294Y14748D01*
Y38438D01*
X196119Y39316D01*
X195806Y39785D01*
X196000Y40254D01*
Y41746D01*
X195429Y43124D01*
X194374Y44179D01*
X192996Y44750D01*
X191504D01*
X190126Y44179D01*
X189071Y43124D01*
X188500Y41746D01*
Y40254D01*
X189071Y38876D01*
X190126Y37821D01*
X191504Y37250D01*
X191706D01*
Y34495D01*
X191459Y34302D01*
X190436Y33933D01*
X190122Y34143D01*
X189400Y34286D01*
X182600D01*
X181878Y34143D01*
X181266Y33734D01*
X180923Y33221D01*
X180422Y33140D01*
X179573Y33174D01*
X179179Y34124D01*
X178124Y35179D01*
X176746Y35750D01*
X175254D01*
X173876Y35179D01*
X172821Y34124D01*
X172122Y34143D01*
X171400Y34286D01*
X164600D01*
X163878Y34143D01*
X163266Y33734D01*
X162857Y33122D01*
X162714Y32400D01*
Y24600D01*
X162773Y24300D01*
X162647Y23995D01*
Y15995D01*
X162772Y15693D01*
X162714Y15400D01*
Y7600D01*
X162857Y6878D01*
X163266Y6266D01*
X163878Y5857D01*
X164600Y5714D01*
X167104D01*
X167250Y5496D01*
Y4004D01*
X167821Y2626D01*
X168876Y1571D01*
X169602Y1270D01*
X169349Y0D01*
X0D01*
Y121849D01*
X1208Y122240D01*
X1270Y122241D01*
X11033Y112478D01*
D02*
G37*
%LPC*%
G36*
X23730Y99085D02*
X23476D01*
X20426Y98683D01*
X17584Y97506D01*
X15143Y95633D01*
X13270Y93192D01*
X12093Y90350D01*
X11858Y88570D01*
X23730D01*
Y99085D01*
D02*
G37*
G36*
X38142Y86030D02*
X26270D01*
Y75515D01*
X26524D01*
X29574Y75917D01*
X32416Y77094D01*
X34857Y78967D01*
X36730Y81408D01*
X37907Y84250D01*
X38142Y86030D01*
D02*
G37*
G36*
X23730D02*
X11858D01*
X12093Y84250D01*
X13270Y81408D01*
X15143Y78967D01*
X17584Y77094D01*
X20426Y75917D01*
X23476Y75515D01*
X23730D01*
Y86030D01*
D02*
G37*
G36*
X151870Y23770D02*
X134330D01*
Y6230D01*
X151870D01*
Y23770D01*
D02*
G37*
%LPD*%
D12*
X150951Y95951D02*
X160002D01*
X162612Y98560D01*
X143000Y88000D02*
X150951Y95951D01*
X162612Y98560D02*
X162673D01*
X157000Y108707D02*
X157121Y108586D01*
X157000Y108707D02*
Y124697D01*
X86907Y173141D02*
X90798Y169250D01*
X147750D01*
X86759Y173141D02*
X86907D01*
X163901Y193412D02*
X164408Y192906D01*
X168594D01*
X171500Y190000D01*
X157000Y124697D02*
X167502Y135199D01*
X164381Y148430D02*
X179618D01*
X162000Y150810D02*
Y164000D01*
Y150810D02*
X164381Y148430D01*
X179618D02*
X182188Y151000D01*
X147750Y169250D02*
X155000Y162000D01*
Y127760D02*
Y162000D01*
X152000Y174000D02*
X162000Y164000D01*
X98000Y174000D02*
X152000D01*
X128500Y122000D02*
Y133000D01*
X91312Y139500D02*
X123000D01*
X90276Y138464D02*
X91312Y139500D01*
X89464Y138464D02*
X90276D01*
X123000Y139500D02*
X125000Y137500D01*
Y136000D02*
Y137500D01*
Y136000D02*
X128000Y133000D01*
X128500D01*
X62000Y88000D02*
X143000D01*
X57299Y92701D02*
Y114377D01*
Y92701D02*
X62000Y88000D01*
X31820Y126098D02*
X40399Y117519D01*
X54158D01*
X57299Y114377D01*
X137240Y110000D02*
X155000Y127760D01*
X10000Y133000D02*
X16902Y126098D01*
X10000Y173000D02*
X16000Y179000D01*
X10000Y133000D02*
Y173000D01*
X192250Y40188D02*
X194000Y38438D01*
Y14748D02*
Y38438D01*
X192250Y40188D02*
Y41000D01*
X16000Y179000D02*
X34000D01*
X16902Y126098D02*
X31820D01*
X129500Y110000D02*
X137240D01*
X128500Y109000D02*
X129500Y110000D01*
X128500Y96000D02*
Y109000D01*
X103000Y193000D02*
X103672D01*
X105672Y195000D01*
X155000D01*
X174000Y176000D01*
X178000D01*
X186000Y11500D02*
X187077Y12577D01*
X191828D01*
X194000Y14748D01*
X168000Y11500D02*
X170700Y8800D01*
Y5050D02*
Y8800D01*
Y5050D02*
X171000Y4750D01*
X171502Y105672D02*
Y113799D01*
X169000Y103169D02*
X171502Y105672D01*
X169000Y103000D02*
Y103169D01*
X182188Y151000D02*
X183000D01*
X171502Y155047D02*
X172000Y154549D01*
X171502Y155047D02*
Y164599D01*
X168002Y135199D02*
X171502Y138699D01*
X167502Y135199D02*
X168002D01*
X171502Y138699D02*
Y139199D01*
D18*
X141000Y66500D02*
D03*
Y81500D02*
D03*
X125000Y147500D02*
D03*
Y162500D02*
D03*
X110000Y147500D02*
D03*
Y162500D02*
D03*
D43*
X171502Y113799D02*
D03*
X188503D02*
D03*
X171502Y164599D02*
D03*
X188503D02*
D03*
X171502Y139199D02*
D03*
X188503D02*
D03*
D44*
X183558Y77930D02*
X183930D01*
X197000Y91000D01*
X25000Y138100D02*
X48900D01*
X64201Y122799D01*
Y108359D02*
Y122799D01*
X63649Y154639D02*
X74000D01*
Y146858D02*
Y154639D01*
Y146858D02*
X87858Y133000D01*
X111500D01*
X89049Y101115D02*
Y105363D01*
X90466Y99698D02*
X110802D01*
X89049Y101115D02*
X90466Y99698D01*
X76349Y105363D02*
X89049D01*
X197000Y128000D02*
Y188535D01*
Y91000D02*
Y128000D01*
X188500Y190000D02*
X195536D01*
X197000Y188535D01*
X110802Y99698D02*
X111500Y99000D01*
X180010Y25334D02*
X183250D01*
X178676Y24000D02*
X180010Y25334D01*
X178000Y24000D02*
X178676D01*
X183250Y25334D02*
X186000Y28084D01*
Y28500D01*
X175324Y32000D02*
X176000D01*
X174683Y31360D02*
X175324Y32000D01*
X168000Y28500D02*
Y28610D01*
X170750Y31360D01*
X174683D01*
X43500Y163500D02*
X52361Y154639D01*
X25000Y163500D02*
X43500D01*
D45*
X100000Y160000D02*
X101872Y161872D01*
X109373D02*
X110000Y162500D01*
X101872Y161872D02*
X109373D01*
X44000Y107000D02*
X50782D01*
X50949Y105363D02*
Y106833D01*
X50782Y107000D02*
X50949Y106833D01*
X132072Y164500D02*
X137732D01*
X131572Y164000D02*
X132072Y164500D01*
X126500Y164000D02*
X131572D01*
X125000Y162500D02*
X126500Y164000D01*
X110000Y162500D02*
X125000D01*
X168500Y81500D02*
X170000Y80000D01*
X141000Y81500D02*
X168500D01*
X111500Y111000D02*
Y122000D01*
X189250Y139947D02*
Y163852D01*
X188503Y164599D02*
X189250Y163852D01*
X188503Y139199D02*
X189250Y139947D01*
D47*
X147263Y100263D02*
X156870D01*
X163000Y106393D01*
Y118686D01*
X75713Y197000D02*
X79262Y193452D01*
Y170738D02*
Y193452D01*
Y170738D02*
X86955Y163045D01*
X87882D01*
X89049Y154639D02*
Y161878D01*
X87882Y163045D02*
X89049Y161878D01*
X139000Y92000D02*
X147263Y100263D01*
X72710Y92000D02*
X139000D01*
X172314Y128000D02*
X197000D01*
X163000Y118686D02*
X172314Y128000D01*
X4500Y125500D02*
Y185429D01*
X16071Y197000D02*
X61930D01*
X4500Y185429D02*
X16071Y197000D01*
X61930D02*
X61930Y197000D01*
X75713D01*
X90000Y150757D02*
Y155000D01*
X69862Y94847D02*
X72710Y92000D01*
X69862Y94847D02*
Y127138D01*
X57432Y139568D02*
X69862Y127138D01*
X57432Y139568D02*
Y175532D01*
X66900Y185000D01*
X90000Y150757D02*
X90216Y150541D01*
X95771Y149229D02*
X108271D01*
X90216Y150541D02*
X94459D01*
X95771Y149229D01*
X110000Y147500D02*
X125000D01*
X108271Y149229D02*
X110000Y147500D01*
X4500Y125500D02*
X14278Y115722D01*
X21978D01*
X25000Y112700D01*
Y110485D02*
X53423Y82062D01*
X116723D01*
X128785Y70000D01*
X133000Y65785D02*
Y70000D01*
X25000Y110485D02*
Y112700D01*
X128785Y70000D02*
X133000D01*
D48*
X117700Y15000D02*
D03*
X92300Y15000D02*
D03*
X66900D02*
D03*
X117700Y185000D02*
D03*
X92300Y185000D02*
D03*
X66900D02*
D03*
D49*
X143100Y15000D02*
D03*
Y185000D02*
D03*
D50*
X25000Y112700D02*
D03*
D51*
Y87300D02*
D03*
Y61900D02*
D03*
Y138100D02*
D03*
Y163500D02*
D03*
D52*
Y36500D02*
D03*
D53*
X170000Y80000D02*
D03*
D54*
Y60000D02*
D03*
D55*
X162673Y98560D02*
D03*
X157121Y108586D02*
D03*
X183558Y77930D02*
D03*
X86759Y173141D02*
D03*
X100000Y160000D02*
D03*
X79280Y8320D02*
D03*
X38640D02*
D03*
X18320D02*
D03*
X163901Y193412D02*
D03*
X44000Y107000D02*
D03*
X162642Y120080D02*
D03*
X137732Y164500D02*
D03*
X98000Y174000D02*
D03*
X197000Y128000D02*
D03*
X192250Y41000D02*
D03*
X89464Y138464D02*
D03*
X34000Y179000D02*
D03*
X103000Y193000D02*
D03*
X171000Y4750D02*
D03*
X178000Y24000D02*
D03*
X176000Y32000D02*
D03*
X169000Y103000D02*
D03*
X172000Y154549D02*
D03*
X183000Y151000D02*
D03*
X178000Y176000D02*
D03*
X96000Y45000D02*
D03*
Y55000D02*
D03*
Y75000D02*
D03*
Y65000D02*
D03*
X88000Y70000D02*
D03*
Y50000D02*
D03*
Y60000D02*
D03*
X104000Y50000D02*
D03*
Y70000D02*
D03*
Y60000D02*
D03*
D56*
X65000Y140000D02*
D03*
X98480Y105997D02*
D03*
X191623Y178206D02*
D03*
X133000Y63000D02*
D03*
Y70000D02*
D03*
X142000Y52000D02*
D03*
X135000Y48000D02*
D03*
Y56000D02*
D03*
D57*
X50949Y154639D02*
D03*
X63649D02*
D03*
X76349D02*
D03*
X89049D02*
D03*
Y105363D02*
D03*
X50949D02*
D03*
X63649D02*
D03*
X76349D02*
D03*
D58*
X128500Y122000D02*
D03*
X111500D02*
D03*
X171500Y190000D02*
D03*
X188500D02*
D03*
X111500Y99000D02*
D03*
X128500D02*
D03*
X111500Y111000D02*
D03*
X128500D02*
D03*
X111500Y133000D02*
D03*
X128500D02*
D03*
D59*
X186000Y28500D02*
D03*
Y11500D02*
D03*
X168000Y11500D02*
D03*
Y28500D02*
D03*
M02*
