  0
SECTION
  2
HEADER
  9
$ACADVER
  1
AC1014
  9
$ACADMAINTVER
 70
     9
  9
$DWGCODEPAGE
  3
ANSI_1252
  9
$INSBASE
 10
0.0
 20
0.0
 30
0.0
  9
$EXTMIN
 10
1.000000000000000E+20
 20
1.000000000000000E+20
 30
1.000000000000000E+20
  9
$EXTMAX
 10
-1.000000000000000E+20
 20
-1.000000000000000E+20
 30
-1.000000000000000E+20
  9
$LIMMIN
 10
-28.63539104
 20
-6.71673536
  9
$LIMMAX
 10
58.17205535999999
 20
22.42150964
  9
$ORTHOMODE
 70
     0
  9
$REGENMODE
 70
     1
  9
$FILLMODE
 70
     1
  9
$QTEXTMODE
 70
     0
  9
$MIRRTEXT
 70
     1
  9
$DRAGMODE
 70
     2
  9
$LTSCALE
 40
1.0
  9
$OSMODE
 70
    37
  9
$ATTMODE
 70
     1
  9
$TEXTSIZE
 40
0.2
  9
$TRACEWID
 40
0.05
  9
$TEXTSTYLE
  7
STANDARD
  9
$CLAYER
  8
0
  9
$CELTYPE
  6
BYLAYER
  9
$CECOLOR
 62
   256
  9
$CELTSCALE
 40
1.0
  9
$DELOBJ
 70
     1
  9
$DISPSILH
 70
     0
  9
$DIMSCALE
 40
1.0
  9
$DIMASZ
 40
0.18
  9
$DIMEXO
 40
0.0625
  9
$DIMDLI
 40
0.38
  9
$DIMRND
 40
0.0
  9
$DIMDLE
 40
0.0
  9
$DIMEXE
 40
0.18
  9
$DIMTP
 40
0.0
  9
$DIMTM
 40
0.0
  9
$DIMTXT
 40
0.18
  9
$DIMCEN
 40
0.09
  9
$DIMTSZ
 40
0.0
  9
$DIMTOL
 70
     0
  9
$DIMLIM
 70
     0
  9
$DIMTIH
 70
     1
  9
$DIMTOH
 70
     1
  9
$DIMSE1
 70
     0
  9
$DIMSE2
 70
     0
  9
$DIMTAD
 70
     0
  9
$DIMZIN
 70
     0
  9
$DIMBLK
  1

  9
$DIMASO
 70
     1
  9
$DIMSHO
 70
     1
  9
$DIMPOST
  1

  9
$DIMAPOST
  1

  9
$DIMALT
 70
     0
  9
$DIMALTD
 70
     2
  9
$DIMALTF
 40
25.4
  9
$DIMLFAC
 40
1.0
  9
$DIMTOFL
 70
     0
  9
$DIMTVP
 40
0.0
  9
$DIMTIX
 70
     0
  9
$DIMSOXD
 70
     0
  9
$DIMSAH
 70
     0
  9
$DIMBLK1
  1

  9
$DIMBLK2
  1

  9
$DIMSTYLE
  2
STANDARD
  9
$DIMCLRD
 70
     0
  9
$DIMCLRE
 70
     0
  9
$DIMCLRT
 70
     0
  9
$DIMTFAC
 40
1.0
  9
$DIMGAP
 40
0.09
  9
$DIMJUST
 70
     0
  9
$DIMSD1
 70
     0
  9
$DIMSD2
 70
     0
  9
$DIMTOLJ
 70
     1
  9
$DIMTZIN
 70
     0
  9
$DIMALTZ
 70
     0
  9
$DIMALTTZ
 70
     0
  9
$DIMFIT
 70
     3
  9
$DIMUPT
 70
     0
  9
$DIMUNIT
 70
     2
  9
$DIMDEC
 70
     4
  9
$DIMTDEC
 70
     4
  9
$DIMALTU
 70
     2
  9
$DIMALTTD
 70
     2
  9
$DIMTXSTY
  7
STANDARD
  9
$DIMAUNIT
 70
     0
  9
$LUNITS
 70
     2
  9
$LUPREC
 70
     4
  9
$SKETCHINC
 40
0.1
  9
$FILLETRAD
 40
0.0
  9
$AUNITS
 70
     0
  9
$AUPREC
 70
     0
  9
$MENU
  1
.
  9
$ELEVATION
 40
0.0
  9
$PELEVATION
 40
0.0
  9
$THICKNESS
 40
0.0
  9
$LIMCHECK
 70
     0
  9
$CHAMFERA
 40
0.0
  9
$CHAMFERB
 40
0.0
  9
$CHAMFERC
 40
0.0
  9
$CHAMFERD
 40
0.0
  9
$SKPOLY
 70
     0
  9
$TDCREATE
 40
2460220.94547066
  9
$TDUPDATE
 40
2460220.945472049
  9
$TDINDWG
 40
0.0000000116
  9
$TDUSRTIMER
 40
0.0000000116
  9
$USRTIMER
 70
     1
  9
$ANGBASE
 50
0.0
  9
$ANGDIR
 70
     0
  9
$PDMODE
 70
     0
  9
$PDSIZE
 40
0.0
  9
$PLINEWID
 40
0.0
  9
$COORDS
 70
     1
  9
$SPLFRAME
 70
     0
  9
$SPLINETYPE
 70
     6
  9
$SPLINESEGS
 70
     8
  9
$ATTDIA
 70
     0
  9
$ATTREQ
 70
     1
  9
$HANDLING
 70
     1
  9
$HANDSEED
  5
10A
  9
$SURFTAB1
 70
     6
  9
$SURFTAB2
 70
     6
  9
$SURFTYPE
 70
     6
  9
$SURFU
 70
     6
  9
$SURFV
 70
     6
  9
$UCSNAME
  2

  9
$UCSORG
 10
0.0
 20
0.0
 30
0.0
  9
$UCSXDIR
 10
1.0
 20
0.0
 30
0.0
  9
$UCSYDIR
 10
0.0
 20
1.0
 30
0.0
  9
$PUCSNAME
  2

  9
$PUCSORG
 10
0.0
 20
0.0
 30
0.0
  9
$PUCSXDIR
 10
1.0
 20
0.0
 30
0.0
  9
$PUCSYDIR
 10
0.0
 20
1.0
 30
0.0
  9
$USERI1
 70
     0
  9
$USERI2
 70
     0
  9
$USERI3
 70
     0
  9
$USERI4
 70
     0
  9
$USERI5
 70
     0
  9
$USERR1
 40
0.0
  9
$USERR2
 40
0.0
  9
$USERR3
 40
0.0
  9
$USERR4
 40
0.0
  9
$USERR5
 40
0.0
  9
$WORLDVIEW
 70
     1
  9
$SHADEDGE
 70
     3
  9
$SHADEDIF
 70
    70
  9
$TILEMODE
 70
     1
  9
$MAXACTVP
 70
    64
  9
$PINSBASE
 10
0.0
 20
0.0
 30
0.0
  9
$PLIMCHECK
 70
     0
  9
$PEXTMIN
 10
1.000000000000000E+20
 20
1.000000000000000E+20
 30
1.000000000000000E+20
  9
$PEXTMAX
 10
-1.000000000000000E+20
 20
-1.000000000000000E+20
 30
-1.000000000000000E+20
  9
$PLIMMIN
 10
0.0
 20
0.0
  9
$PLIMMAX
 10
12.0
 20
9.0
  9
$UNITMODE
 70
     0
  9
$VISRETAIN
 70
     1
  9
$PLINEGEN
 70
     0
  9
$PSLTSCALE
 70
     1
  9
$TREEDEPTH
 70
  3020
  9
$PICKSTYLE
 70
     1
  9
$CMLSTYLE
  2
STANDARD
  9
$CMLJUST
 70
     0
  9
$CMLSCALE
 40
1.0
  9
$PROXYGRAPHICS
 70
     1
  9
$MEASUREMENT
 70
     1
  0
ENDSEC
  0
SECTION
  2
CLASSES
  0
CLASS
  1
ACDBDICTIONARYWDFLT
  2
AcDbDictionaryWithDefault
  3
ObjectDBX Classes
 90
        0
280
     0
281
     0
  0
CLASS
  1
VISUALSTYLE
  2
AcDbVisualStyle
  3
ObjectDBX Classes
 90
     4095
280
     0
281
     0
  0
CLASS
  1
MATERIAL
  2
AcDbMaterial
  3
ObjectDBX Classes
 90
     1153
280
     0
281
     0
  0
CLASS
  1
SCALE
  2
AcDbScale
  3
ObjectDBX Classes
 90
     1153
280
     0
281
     0
  0
CLASS
  1
TABLESTYLE
  2
AcDbTableStyle
  3
ObjectDBX Classes
 90
     4095
280
     0
281
     0
  0
CLASS
  1
MLEADERSTYLE
  2
AcDbMLeaderStyle
  3
ACDB_MLEADERSTYLE_CLASS
 90
     4095
280
     0
281
     0
  0
CLASS
  1
SUN
  2
AcDbSun
  3
SCENEOE
 90
     1153
280
     0
281
     0
  0
CLASS
  1
DICTIONARYVAR
  2
AcDbDictionaryVar
  3
ObjectDBX Classes
 90
        0
280
     0
281
     0
  0
CLASS
  1
XRECORD
  2
AcDbXrecord
  3
ObjectDBX Classes
 90
        0
280
     0
281
     0
  0
CLASS
  1
LWPOLYLINE
  2
AcDbPolyline
  3
ObjectDBX Classes
 90
        0
280
     0
281
     1
  0
CLASS
  1
HATCH
  2
AcDbHatch
  3
ObjectDBX Classes
 90
        0
280
     0
281
     1
  0
CLASS
  1
ACDBPLACEHOLDER
  2
AcDbPlaceHolder
  3
ObjectDBX Classes
 90
        0
280
     0
281
     0
  0
CLASS
  1
LAYOUT
  2
AcDbLayout
  3
ObjectDBX Classes
 90
        0
280
     0
281
     0
  0
ENDSEC
  0
SECTION
  2
TABLES
  0
TABLE
  2
VPORT
  5
8
102
{ACAD_XDICTIONARY
360
FF
102
}
330
0
100
AcDbSymbolTable
 70
     1
  0
VPORT
  5
29
330
8
100
AcDbSymbolTableRecord
100
AcDbViewportTableRecord
  2
*ACTIVE
 70
     0
 10
0.0
 20
0.0
 11
1.0
 21
1.0
 12
10.42990654205607
 22
4.5
 13
0.0
 23
0.0
 14
0.5
 24
0.5
 15
0.5
 25
0.5
 16
0.0
 26
0.0
 36
1.0
 17
0.0
 27
0.0
 37
0.0
 40
9.0
 41
1.972972972850329
 42
50.0
 43
0.0
 44
0.0
 50
0.0
 51
0.0
 71
     0
 72
   100
 73
     1
 74
     3
 75
     0
 76
     0
 77
     0
 78
     0
  0
ENDTAB
  0
TABLE
  2
LTYPE
  5
5
330
0
100
AcDbSymbolTable
 70
     1
  0
LTYPE
  5
14
330
5
100
AcDbSymbolTableRecord
100
AcDbLinetypeTableRecord
  2
BYBLOCK
 70
     0
  3

 72
    65
 73
     0
 40
0.0
  0
LTYPE
  5
15
330
5
100
AcDbSymbolTableRecord
100
AcDbLinetypeTableRecord
  2
BYLAYER
 70
     0
  3

 72
    65
 73
     0
 40
0.0
  0
LTYPE
  5
16
330
5
100
AcDbSymbolTableRecord
100
AcDbLinetypeTableRecord
  2
CONTINUOUS
 70
     0
  3
Solid line
 72
    65
 73
     0
 40
0.0
  0
ENDTAB
  0
TABLE
  2
LAYER
  5
2
330
0
100
AcDbSymbolTable
 70
     2
  0
LAYER
  5
10
330
2
100
AcDbSymbolTableRecord
100
AcDbLayerTableRecord
  2
0
 70
     0
 62
     7
  6
CONTINUOUS
  0
LAYER
  5
5E
330
2
100
AcDbSymbolTableRecord
100
AcDbLayerTableRecord
  2
TOP_PASTE
 70
     0
 62
     8
  6
CONTINUOUS
  0
ENDTAB
  0
TABLE
  2
STYLE
  5
3
330
0
100
AcDbSymbolTable
 70
     1
  0
STYLE
  5
11
330
3
100
AcDbSymbolTableRecord
100
AcDbTextStyleTableRecord
  2
STANDARD
 70
     0
 40
0.0
 41
1.0
 50
0.0
 71
     0
 42
0.2
  3
txt
  4

  0
ENDTAB
  0
TABLE
  2
VIEW
  5
6
330
0
100
AcDbSymbolTable
 70
     0
  0
ENDTAB
  0
TABLE
  2
UCS
  5
7
330
0
100
AcDbSymbolTable
 70
     0
  0
ENDTAB
  0
TABLE
  2
APPID
  5
9
330
0
100
AcDbSymbolTable
 70
     3
  0
APPID
  5
12
330
9
100
AcDbSymbolTableRecord
100
AcDbRegAppTableRecord
  2
ACAD
 70
     0
  0
APPID
  5
FE
330
9
100
AcDbSymbolTableRecord
100
AcDbRegAppTableRecord
  2
ACAD_OBJECT_CHANGE_GUID
 70
     0
  0
APPID
  5
109
330
9
100
AcDbSymbolTableRecord
100
AcDbRegAppTableRecord
  2
ACAD_MLEADERVER
 70
     0
  0
ENDTAB
  0
TABLE
  2
DIMSTYLE
  5
A
330
0
100
AcDbSymbolTable
 70
     1
  0
DIMSTYLE
105
27
330
A
100
AcDbSymbolTableRecord
100
AcDbDimStyleTableRecord
  2
STANDARD
 70
     0
  3

  4

  5

  6

  7

 40
1.0
 41
0.18
 42
0.0625
 43
0.38
 44
0.18
 45
0.0
 46
0.0
 47
0.0
 48
0.0
140
0.18
141
0.09
142
0.0
143
25.4
144
1.0
145
0.0
146
1.0
147
0.09
 71
     0
 72
     0
 73
     1
 74
     1
 75
     0
 76
     0
 77
     0
 78
     0
170
     0
171
     2
172
     0
173
     0
174
     0
175
     0
176
     0
177
     0
178
     0
270
     2
271
     4
272
     4
273
     2
274
     2
340
11
275
     0
280
     0
281
     0
282
     0
283
     1
284
     0
285
     0
286
     0
287
     3
288
     0
  0
ENDTAB
  0
TABLE
  2
BLOCK_RECORD
  5
1
330
0
100
AcDbSymbolTable
 70
     0
  0
BLOCK_RECORD
  5
1F
330
1
100
AcDbSymbolTableRecord
100
AcDbBlockTableRecord
  2
*MODEL_SPACE
  0
BLOCK_RECORD
  5
1B
330
1
100
AcDbSymbolTableRecord
100
AcDbBlockTableRecord
  2
*PAPER_SPACE
  0
ENDTAB
  0
ENDSEC
  0
SECTION
  2
BLOCKS
  0
BLOCK
  5
20
330
1F
100
AcDbEntity
  8
0
100
AcDbBlockBegin
  2
*MODEL_SPACE
 70
     0
 10
0.0
 20
0.0
 30
0.0
  3
*MODEL_SPACE
  1

  0
ENDBLK
  5
21
330
1F
100
AcDbEntity
  8
0
100
AcDbBlockEnd
  0
BLOCK
  5
1C
330
1B
100
AcDbEntity
 67
     1
  8
0
100
AcDbBlockBegin
  2
*PAPER_SPACE
 70
     0
 10
0.0
 20
0.0
 30
0.0
  3
*PAPER_SPACE
  1

  0
ENDBLK
  5
1D
330
1B
100
AcDbEntity
 67
     1
  8
0
100
AcDbBlockEnd
  0
ENDSEC
  0
SECTION
  2
ENTITIES
  0
REGION
  5
5F
102
{ACAD_REACTORS
330
60
102
}
330
1F
100
AcDbEntity
  8
TOP_PASTE
 62
     8
100
AcDbModelerGeometry
 70
     1
  1
noi ki n o 
  1
=0;& {rn {kj {rn {rn |
  1
/061+ {rn hqfjooooin noqflfffgkk o |
  1
):-+:' {rn {lf {n |
  1
/061+ {rn hqgfoooohmfffffffh noqfffffglm o |
  1
):-+:' {rn {mn {l |
  1
/061+ {rn iqnnooonhkfffffffj noqfffffglm o |
  1
):-+:' {rn {mk {j |
  1
/061+ {rn iqojooongifffffffn noqflfffgkk o |
  1
):-+:' {rn {mh {h |
  1
/061+ {rn iqojooongifffffffn noqijfffgfffffffff o |
  1
):-+:' {rn {lo {f |
  1
/061+ {rn iqnnooonhkfffffffj noqjfffffnm o |
  1
):-+:' {rn {ll {nn |
  1
/061+ {rn hqgfoooohmfffffffh noqjfffffnm o |
  1
):-+:' {rn {li {nl |
  1
/061+ {rn hqfjooooin noqijfffgfffffffff o |
  1
):-+:' {rn {lf {nj |
  1
:336/,:r<*-): {rn hqgfoooohmfffffffh noqflfffgkk o o o n oqojffffghfffffffffg o o n o o |
  1
:;8: {rn {m {k {nf {nh o |
  1
<0:;8: {rn {mm {ko {rn {ng o {kn {rn |
  1
,+->687+r<*-): {rn hqgfoooohmfffffffh noqfffffglm o rnqhhfffgfgooooooom o o o o |
  1
:;8: {rn {k {i {mm {mo o |
  1
<0:;8: {rn {mj {nf {rn {mn o {kn {rn |
  1
:336/,:r<*-): {rn iqnnooonhkfffffffj noqflfffgkk o o o n o oqojffffghfffffffffg o n o o |
  1
:;8: {rn {i {g {mj {ml o |
  1
<0:;8: {rn {mg {mm {rn {mk o {kn {rn |
  1
,+->687+r<*-): {rn iqojooongifffffffn noqflfffgkk o o roqmhffffkkoooooooff o o o |
  1
:;8: {rn {g {no {mg {mi o |
  1
<0:;8: {rn {ln {mj {rn {mh o {kn {rn |
  1
:336/,:r<*-): {rn iqnnooonhkfffffffj noqijfffgfffffffff o o o n roqojffffghfffffffffg o o n o o |
  1
:;8: {rn {no {nm {ln {mf o |
  1
<0:;8: {rn {lk {mg {rn {lo o {kn {rn |
  1
,+->687+r<*-): {rn iqnnooonhkfffffffj noqjfffffnm o nqhhfffgfgooooooom o o o o |
  1
:;8: {rn {nm {nk {lk {lm o |
  1
<0:;8: {rn {lh {ln {rn {ll o {kn {rn |
  1
:336/,:r<*-): {rn hqgfoooohmfffffffh noqijfffgfffffffff o o o n o roqojffffghfffffffffg o n o o |
  1
:;8: {rn {nk {ni {lh {lj o |
  1
<0:;8: {rn {ko {lk {rn {li o {kn {rn |
  1
,+->687+r<*-): {rn hqfjooooin noqijfffgfffffffff o o oqmhffffkkoooooooff o o o |
  1
:;8: {rn {ni {m {ko {lg o |
  1
<0:;8: {rn {nf {lh {rn {lf o {kn {rn |
  1
300/ {rn {rn {nf {kl |
  1
/3>1:r,*-9><: {rn hqooooonmlfffffffi noqflfffgkk o o o n rn o o o o o o o |
  1
9><: {rn {rn {kn {kk {rn {km o n o |
  1
,7:33 {rn {rn {rn {kl {kj |
  1
3*2/ {rn {rn {kk {o |
  1
Z1;r09r^ \VLr;>+> 
1001
ACAD_OBJECT_CHANGE_GUID
1070
     1
1071
-701246368
1070
-25845
1070
 16449
1070
   131
1070
   114
1070
   211
1070
   197
1070
    44
1070
   253
1070
    46
1070
   224
  0
HATCH
  5
60
330
1F
100
AcDbEntity
  8
TOP_PASTE
 62
     8
100
AcDbHatch
 10
0.0
 20
0.0
 30
0.0
210
0.0
220
0.0
230
1.0
  2
SOLID
 70
     1
 71
     1
 91
        1
 92
        1
 93
        8
 72
     2
 10
7.89000073
 20
10.93999844
 40
0.05999988
 50
0.0
 51
90.0
 73
     1
 72
     1
 10
7.89000073
 20
10.99999832
 11
6.110001749999999
 21
10.99999832
 72
     2
 10
6.110001749999999
 20
10.93999844
 40
0.05999988
 50
90.0
 51
180.0
 73
     1
 72
     1
 10
6.050001869999999
 20
10.93999844
 11
6.050001869999999
 21
10.659999
 72
     2
 10
6.110001749999999
 20
10.659999
 40
0.05999988
 50
180.0
 51
270.0
 73
     1
 72
     1
 10
6.110001749999999
 20
10.59999912
 11
7.89000073
 21
10.59999912
 72
     2
 10
7.89000073
 20
10.659999
 40
0.05999988
 50
270.0
 51
360.0
 73
     1
 72
     1
 10
7.95000061
 20
10.659999
 11
7.95000061
 21
10.93999844
 97
        1
330
5F
 75
     0
 76
     1
 98
        0
  0
REGION
  5
61
102
{ACAD_REACTORS
330
62
102
}
330
1F
100
AcDbEntity
  8
TOP_PASTE
 62
     8
100
AcDbModelerGeometry
 70
     1
  1
noi ki n o 
  1
=0;& {rn {kj {rn {rn |
  1
/061+ {rn hqfjooooin nmqnlfffgjg o |
  1
):-+:' {rn {lf {n |
  1
/061+ {rn hqgfoooohmfffffffh nmqnffffgki o |
  1
):-+:' {rn {mn {l |
  1
/061+ {rn iqnnooonhkfffffffj nmqnffffgki o |
  1
):-+:' {rn {mk {j |
  1
/061+ {rn iqojooongifffffffn nmqnlfffgjg o |
  1
):-+:' {rn {mh {h |
  1
/061+ {rn iqojooongifffffffn nnqgjffffnlfffffff o |
  1
):-+:' {rn {lo {f |
  1
/061+ {rn iqnnooonhkfffffffj nnqhfffffmi o |
  1
):-+:' {rn {ll {nn |
  1
/061+ {rn hqgfoooohmfffffffh nnqhfffffmi o |
  1
):-+:' {rn {li {nl |
  1
/061+ {rn hqfjooooin nnqgjffffnlfffffff o |
  1
):-+:' {rn {lf {nj |
  1
:336/,:r<*-): {rn hqgfoooohmfffffffh nmqnlfffgjg o o o n oqojffffghfffffffffg o o n o o |
  1
:;8: {rn {m {k {nf {nh o |
  1
<0:;8: {rn {mm {ko {rn {ng o {kn {rn |
  1
,+->687+r<*-): {rn hqgfoooohmfffffffh nmqnffffgki o rnqhhfffgfgooooooom o o o o |
  1
:;8: {rn {k {i {mm {mo o |
  1
<0:;8: {rn {mj {nf {rn {mn o {kn {rn |
  1
:336/,:r<*-): {rn iqnnooonhkfffffffj nmqnlfffgjg o o o n o oqojffffghfffffffffg o n o o |
  1
:;8: {rn {i {g {mj {ml o |
  1
<0:;8: {rn {mg {mm {rn {mk o {kn {rn |
  1
,+->687+r<*-): {rn iqojooongifffffffn nmqnlfffgjg o o roqmhffffkkoooooooff o o o |
  1
:;8: {rn {g {no {mg {mi o |
  1
<0:;8: {rn {ln {mj {rn {mh o {kn {rn |
  1
:336/,:r<*-): {rn iqnnooonhkfffffffj nnqgjffffnlfffffff o o o n roqojffffghfffffffffg o o n o o |
  1
:;8: {rn {no {nm {ln {mf o |
  1
<0:;8: {rn {lk {mg {rn {lo o {kn {rn |
  1
,+->687+r<*-): {rn iqnnooonhkfffffffj nnqhfffffmi o nqhhfffgfgooooooom o o o o |
  1
:;8: {rn {nm {nk {lk {lm o |
  1
<0:;8: {rn {lh {ln {rn {ll o {kn {rn |
  1
:336/,:r<*-): {rn hqgfoooohmfffffffh nnqgjffffnlfffffff o o o n o roqojffffghfffffffffg o n o o |
  1
:;8: {rn {nk {ni {lh {lj o |
  1
<0:;8: {rn {ko {lk {rn {li o {kn {rn |
  1
,+->687+r<*-): {rn hqfjooooin nnqgjffffnlfffffff o o oqmhffffkkoooooooff o o o |
  1
:;8: {rn {ni {m {ko {lg o |
  1
<0:;8: {rn {nf {lh {rn {lf o {kn {rn |
  1
300/ {rn {rn {nf {kl |
  1
/3>1:r,*-9><: {rn hqooooonmlfffffffi nmqnlfffgjg o o o n rn o o o o o o o |
  1
9><: {rn {rn {kn {kk {rn {km o n o |
  1
,7:33 {rn {rn {rn {kl {kj |
  1
3*2/ {rn {rn {kk {o |
  1
Z1;r09r^ \VLr;>+> 
1001
ACAD_OBJECT_CHANGE_GUID
1070
     1
1071
717112188
1070
  2415
1070
 19896
1070
   149
1070
    43
1070
    85
1070
   101
1070
   157
1070
   106
1070
   101
1070
   147
  0
HATCH
  5
62
330
1F
100
AcDbEntity
  8
TOP_PASTE
 62
     8
100
AcDbHatch
 10
0.0
 20
0.0
 30
0.0
210
0.0
220
0.0
230
1.0
  2
SOLID
 70
     1
 71
     1
 91
        1
 92
        1
 93
        8
 72
     2
 10
7.89000073
 20
12.13999858
 40
0.05999988
 50
0.0
 51
90.0
 73
     1
 72
     1
 10
7.89000073
 20
12.19999846
 11
6.110001749999999
 21
12.19999846
 72
     2
 10
6.110001749999999
 20
12.13999858
 40
0.05999988
 50
90.0
 51
180.0
 73
     1
 72
     1
 10
6.050001869999999
 20
12.13999858
 11
6.050001869999999
 21
11.85999914
 72
     2
 10
6.110001749999999
 20
11.85999914
 40
0.05999988
 50
180.0
 51
270.0
 73
     1
 72
     1
 10
6.110001749999999
 20
11.79999926
 11
7.89000073
 21
11.79999926
 72
     2
 10
7.89000073
 20
11.85999914
 40
0.05999988
 50
270.0
 51
360.0
 73
     1
 72
     1
 10
7.95000061
 20
11.85999914
 11
7.95000061
 21
12.13999858
 97
        1
330
61
 75
     0
 76
     1
 98
        0
  0
REGION
  5
63
102
{ACAD_REACTORS
330
64
102
}
330
1F
100
AcDbEntity
  8
TOP_PASTE
 62
     8
100
AcDbModelerGeometry
 70
     1
  1
noi ki n o 
  1
=0;& {rn {kj {rn {rn |
  1
/061+ {rn hqfjooooin nlqllfffghmoooooon o |
  1
):-+:' {rn {lf {n |
  1
/061+ {rn hqgfoooohmfffffffh nlqlffffgi o |
  1
):-+:' {rn {mn {l |
  1
/061+ {rn iqnnooonhkfffffffj nlqlffffgi o |
  1
):-+:' {rn {mk {j |
  1
/061+ {rn iqojooongifffffffn nlqllfffghmoooooon o |
  1
):-+:' {rn {mh {h |
  1
/061+ {rn iqojooongifffffffn nlqojffffmg o |
  1
):-+:' {rn {lo {f |
  1
/061+ {rn iqnnooonhkfffffffj nmqffffffk o |
  1
):-+:' {rn {ll {nn |
  1
/061+ {rn hqgfoooohmfffffffh nmqffffffk o |
  1
):-+:' {rn {li {nl |
  1
/061+ {rn hqfjooooin nlqojffffmg o |
  1
):-+:' {rn {lf {nj |
  1
:336/,:r<*-): {rn hqgfoooohmfffffffh nlqllfffghmoooooon o o o n oqojffffghfffffffffg o o n o o |
  1
:;8: {rn {m {k {nf {nh o |
  1
<0:;8: {rn {mm {ko {rn {ng o {kn {rn |
  1
,+->687+r<*-): {rn hqgfoooohmfffffffh nlqlffffgi o rnqhhfffgfgooooooom o o o o |
  1
:;8: {rn {k {i {mm {mo o |
  1
<0:;8: {rn {mj {nf {rn {mn o {kn {rn |
  1
:336/,:r<*-): {rn iqnnooonhkfffffffj nlqllfffghmoooooon o o o n o oqojffffghfffffffffg o n o o |
  1
:;8: {rn {i {g {mj {ml o |
  1
<0:;8: {rn {mg {mm {rn {mk o {kn {rn |
  1
,+->687+r<*-): {rn iqojooongifffffffn nlqllfffghmoooooon o o roqmhffffkkoooooooff o o o |
  1
:;8: {rn {g {no {mg {mi o |
  1
<0:;8: {rn {ln {mj {rn {mh o {kn {rn |
  1
:336/,:r<*-): {rn iqnnooonhkfffffffj nlqojffffmg o o o n roqojffffghfffffffffg o o n o o |
  1
:;8: {rn {no {nm {ln {mf o |
  1
<0:;8: {rn {lk {mg {rn {lo o {kn {rn |
  1
,+->687+r<*-): {rn iqnnooonhkfffffffj nmqffffffk o nqhhfffgfgooooooom o o o o |
  1
:;8: {rn {nm {nk {lk {lm o |
  1
<0:;8: {rn {lh {ln {rn {ll o {kn {rn |
  1
:336/,:r<*-): {rn hqgfoooohmfffffffh nlqojffffmg o o o n o roqojffffghfffffffffg o n o o |
  1
:;8: {rn {nk {ni {lh {lj o |
  1
<0:;8: {rn {ko {lk {rn {li o {kn {rn |
  1
,+->687+r<*-): {rn hqfjooooin nlqojffffmg o o oqmhffffkkoooooooff o o o |
  1
:;8: {rn {ni {m {ko {lg o |
  1
<0:;8: {rn {nf {lh {rn {lf o {kn {rn |
  1
300/ {rn {rn {nf {kl |
  1
/3>1:r,*-9><: {rn hqooooonmlfffffffi nlqllfffghmoooooon o o o n rn o o o o o o o |
  1
9><: {rn {rn {kn {kk {rn {km o n o |
  1
,7:33 {rn {rn {rn {kl {kj |
  1
3*2/ {rn {rn {kk {o |
  1
Z1;r09r^ \VLr;>+> 
1001
ACAD_OBJECT_CHANGE_GUID
1070
     1
1071
-1217301993
1070
 16058
1070
 17425
1070
   181
1070
   128
1070
   137
1070
    35
1070
   173
1070
    28
1070
     8
1070
   140
  0
HATCH
  5
64
330
1F
100
AcDbEntity
  8
TOP_PASTE
 62
     8
100
AcDbHatch
 10
0.0
 20
0.0
 30
0.0
210
0.0
220
0.0
230
1.0
  2
SOLID
 70
     1
 71
     1
 91
        1
 92
        1
 93
        8
 72
     2
 10
7.89000073
 20
13.33999872
 40
0.05999988
 50
0.0
 51
90.0
 73
     1
 72
     1
 10
7.89000073
 20
13.3999986
 11
6.110001749999999
 21
13.3999986
 72
     2
 10
6.110001749999999
 20
13.33999872
 40
0.05999988
 50
90.0
 51
180.0
 73
     1
 72
     1
 10
6.050001869999999
 20
13.33999872
 11
6.050001869999999
 21
13.05999928
 72
     2
 10
6.110001749999999
 20
13.05999928
 40
0.05999988
 50
180.0
 51
270.0
 73
     1
 72
     1
 10
6.110001749999999
 20
12.9999994
 11
7.89000073
 21
12.9999994
 72
     2
 10
7.89000073
 20
13.05999928
 40
0.05999988
 50
270.0
 51
360.0
 73
     1
 72
     1
 10
7.95000061
 20
13.05999928
 11
7.95000061
 21
13.33999872
 97
        1
330
63
 75
     0
 76
     1
 98
        0
  0
REGION
  5
65
102
{ACAD_REACTORS
330
66
102
}
330
1F
100
AcDbEntity
  8
TOP_PASTE
 62
     8
100
AcDbModelerGeometry
 70
     1
  1
noi mi n o 
  1
=0;& {rn {mj {rn {rn |
  1
/061+ {rn noqghkkoolffffffff nkqgmjjfgfffffffff o |
  1
):-+:' {rn {nf {n |
  1
/061+ {rn nkqnmjiook nkqgmjjfgfffffffff o |
  1
):-+:' {rn {nl {l |
  1
/061+ {rn nkqnmjiook nnqjhklff o |
  1
):-+:' {rn {ni {j |
  1
/061+ {rn noqghkkoolffffffff nnqjhklff o |
  1
):-+:' {rn {nf {h |
  1
,+->687+r<*-): {rn noqghkkoolffffffff nkqgmjjfgfffffffff o lqmjnmooooooooooog o o o o |
  1
:;8: {rn {m {k {nn {f o |
  1
<0:;8: {rn {nk {mo {rn {no o {mn {rn |
  1
,+->687+r<*-): {rn nkqnmjiook nkqgmjjfgfffffffff o o rlqmjnnfffffffffff o o o |
  1
:;8: {rn {k {i {nk {nm o |
  1
<0:;8: {rn {nh {nn {rn {nl o {mn {rn |
  1
,+->687+r<*-): {rn nkqnmjiook nnqjhklff o rlqmjnmooooooooooog o o o o |
  1
:;8: {rn {i {g {nh {nj o |
  1
<0:;8: {rn {mo {nk {rn {ni o {mn {rn |
  1
,+->687+r<*-): {rn noqghkkoolffffffff nnqjhklff o o lqmjnnfffffffffff o o o |
  1
:;8: {rn {g {m {mo {ng o |
  1
<0:;8: {rn {nn {nh {rn {nf o {mn {rn |
  1
300/ {rn {rn {nn {ml |
  1
/3>1:r,*-9><: {rn nmqjooooolffffffff nkqgmjjfgfffffffff o o o rn rn o o o o o o o |
  1
9><: {rn {rn {mn {mk {rn {mm o n o |
  1
,7:33 {rn {rn {rn {ml {mj |
  1
3*2/ {rn {rn {mk {o |
  1
Z1;r09r^ \VLr;>+> 
1001
ACAD_OBJECT_CHANGE_GUID
1070
     1
1071
447261883
1070
-12656
1070
 16817
1070
   138
1070
     5
1070
   112
1070
   165
1070
   231
1070
   103
1070
   186
1070
    26
  0
HATCH
  5
66
330
1F
100
AcDbEntity
  8
TOP_PASTE
 62
     8
100
AcDbHatch
 10
0.0
 20
0.0
 30
0.0
210
0.0
220
0.0
230
1.0
  2
SOLID
 70
     1
 71
     1
 91
        1
 92
        1
 93
        4
 72
     1
 10
10.8744004
 20
14.825599
 11
14.1256004
 21
14.825599
 72
     1
 10
14.1256004
 20
14.825599
 11
14.1256004
 21
11.574399
 72
     1
 10
14.1256004
 20
11.574399
 11
10.8744004
 21
11.574399
 72
     1
 10
10.8744004
 20
11.574399
 11
10.8744004
 21
14.825599
 97
        1
330
65
 75
     0
 76
     1
 98
        0
  0
REGION
  5
67
102
{ACAD_REACTORS
330
68
102
}
330
1F
100
AcDbEntity
  8
TOP_PASTE
 62
     8
100
AcDbModelerGeometry
 70
     1
  1
noi mi n o 
  1
=0;& {rn {mj {rn {rn |
  1
/061+ {rn noqgffgook njqmjhlfgfffffffff o |
  1
):-+:' {rn {nf {n |
  1
/061+ {rn noqjfjoook njqmjhlfgfffffffff o |
  1
):-+:' {rn {nl {l |
  1
/061+ {rn noqjfjoook niqohonfgfffffffff o |
  1
):-+:' {rn {ni {j |
  1
/061+ {rn noqgffgook niqohonfgfffffffff o |
  1
):-+:' {rn {nf {h |
  1
,+->687+r<*-): {rn noqgffgook njqmjhlfgfffffffff o roqlokgooooooooooong o o o o |
  1
:;8: {rn {m {k {nn {f o |
  1
<0:;8: {rn {nk {mo {rn {no o {mn {rn |
  1
,+->687+r<*-): {rn noqjfjoook njqmjhlfgfffffffff o o oqgnmhfffffffffffl o o o |
  1
:;8: {rn {k {i {nk {nm o |
  1
<0:;8: {rn {nh {nn {rn {nl o {mn {rn |
  1
,+->687+r<*-): {rn noqjfjoook niqohonfgfffffffff o oqlokgooooooooooong o o o o |
  1
:;8: {rn {i {g {nh {nj o |
  1
<0:;8: {rn {mo {nk {rn {ni o {mn {rn |
  1
,+->687+r<*-): {rn noqgffgook niqohonfgfffffffff o o roqgnmhfffffffffffl o o o |
  1
:;8: {rn {g {m {mo {ng o |
  1
<0:;8: {rn {nn {nh {rn {nf o {mn {rn |
  1
300/ {rn {rn {nn {ml |
  1
/3>1:r,*-9><: {rn noqhkhkook njqiilhfgfffffffff o o o rn n o o o o o o o |
  1
9><: {rn {rn {mn {mk {rn {mm o n o |
  1
,7:33 {rn {rn {rn {ml {mj |
  1
3*2/ {rn {rn {mk {o |
  1
Z1;r09r^ \VLr;>+> 
1001
ACAD_OBJECT_CHANGE_GUID
1070
     1
1071
1165690944
1070
  4421
1070
 17594
1070
   176
1070
   237
1070
   253
1070
   101
1070
    30
1070
   208
1070
    60
1070
   238
  0
HATCH
  5
68
330
1F
100
AcDbEntity
  8
TOP_PASTE
 62
     8
100
AcDbHatch
 10
0.0
 20
0.0
 30
0.0
210
0.0
220
0.0
230
1.0
  2
SOLID
 70
     1
 71
     1
 91
        1
 92
        1
 93
        4
 72
     1
 10
10.8998004
 20
15.257399
 11
10.5950004
 21
15.257399
 72
     1
 10
10.5950004
 20
15.257399
 11
10.5950004
 21
16.070199
 72
     1
 10
10.5950004
 20
16.070199
 11
10.8998004
 21
16.070199
 72
     1
 10
10.8998004
 20
16.070199
 11
10.8998004
 21
15.257399
 97
        1
330
67
 75
     0
 76
     1
 98
        0
  0
REGION
  5
69
102
{ACAD_REACTORS
330
6A
102
}
330
1F
100
AcDbEntity
  8
TOP_PASTE
 62
     8
100
AcDbModelerGeometry
 70
     1
  1
noi mi n o 
  1
=0;& {rn {mj {rn {rn |
  1
/061+ {rn nnqkohgoolffffffff njqmjhlfgfffffffff o |
  1
):-+:' {rn {nf {n |
  1
/061+ {rn nnqnolooolffffffff njqmjhlfgfffffffff o |
  1
):-+:' {rn {nl {l |
  1
/061+ {rn nnqnolooolffffffff niqohonfgfffffffff o |
  1
):-+:' {rn {ni {j |
  1
/061+ {rn nnqkohgoolffffffff niqohonfgfffffffff o |
  1
):-+:' {rn {nf {h |
  1
,+->687+r<*-): {rn nnqkohgoolffffffff njqmjhlfgfffffffff o roqlokgooooooooooong o o o o |
  1
:;8: {rn {m {k {nn {f o |
  1
<0:;8: {rn {nk {mo {rn {no o {mn {rn |
  1
,+->687+r<*-): {rn nnqnolooolffffffff njqmjhlfgfffffffff o o oqgnmhfffffffffffl o o o |
  1
:;8: {rn {k {i {nk {nm o |
  1
<0:;8: {rn {nh {nn {rn {nl o {mn {rn |
  1
,+->687+r<*-): {rn nnqnolooolffffffff niqohonfgfffffffff o oqlokgooooooooooong o o o o |
  1
:;8: {rn {i {g {nh {nj o |
  1
<0:;8: {rn {mo {nk {rn {ni o {mn {rn |
  1
,+->687+r<*-): {rn nnqkohgoolffffffff niqohonfgfffffffff o o roqgnmhfffffffffffl o o o |
  1
:;8: {rn {g {m {mo {ng o |
  1
<0:;8: {rn {nn {nh {rn {nf o {mn {rn |
  1
300/ {rn {rn {nn {ml |
  1
/3>1:r,*-9><: {rn nnqmjjkoolffffffff njqiilhfgfffffffff o o o rn n o o o o o o o |
  1
9><: {rn {rn {mn {mk {rn {mm o n o |
  1
,7:33 {rn {rn {rn {ml {mj |
  1
3*2/ {rn {rn {mk {o |
  1
Z1;r09r^ \VLr;>+> 
1001
ACAD_OBJECT_CHANGE_GUID
1070
     1
1071
292355647
1070
-27325
1070
 16869
1070
   131
1070
   190
1070
   197
1070
   213
1070
     6
1070
   227
1070
    86
1070
    48
  0
HATCH
  5
6A
330
1F
100
AcDbEntity
  8
TOP_PASTE
 62
     8
100
AcDbHatch
 10
0.0
 20
0.0
 30
0.0
210
0.0
220
0.0
230
1.0
  2
SOLID
 70
     1
 71
     1
 91
        1
 92
        1
 93
        4
 72
     1
 10
11.4078004
 20
15.257399
 11
11.1030004
 21
15.257399
 72
     1
 10
11.1030004
 20
15.257399
 11
11.1030004
 21
16.070199
 72
     1
 10
11.1030004
 20
16.070199
 11
11.4078004
 21
16.070199
 72
     1
 10
11.4078004
 20
16.070199
 11
11.4078004
 21
15.257399
 97
        1
330
69
 75
     0
 76
     1
 98
        0
  0
REGION
  5
6B
102
{ACAD_REACTORS
330
6C
102
}
330
1F
100
AcDbEntity
  8
TOP_PASTE
 62
     8
100
AcDbModelerGeometry
 70
     1
  1
noi mi n o 
  1
=0;& {rn {mj {rn {rn |
  1
/061+ {rn nnqgfokoolffffffff njqmjhlfgfffffffff o |
  1
):-+:' {rn {nf {n |
  1
/061+ {rn nnqjgjioolffffffff njqmjhlfgfffffffff o |
  1
):-+:' {rn {nl {l |
  1
/061+ {rn nnqjgjioolffffffff niqohonfgfffffffff o |
  1
):-+:' {rn {ni {j |
  1
/061+ {rn nnqgfokoolffffffff niqohonfgfffffffff o |
  1
):-+:' {rn {nf {h |
  1
,+->687+r<*-): {rn nnqgfokoolffffffff njqmjhlfgfffffffff o roqlokgooooooooooong o o o o |
  1
:;8: {rn {m {k {nn {f o |
  1
<0:;8: {rn {nk {mo {rn {no o {mn {rn |
  1
,+->687+r<*-): {rn nnqjgjioolffffffff njqmjhlfgfffffffff o o oqgnmhfffffffffffl o o o |
  1
:;8: {rn {k {i {nk {nm o |
  1
<0:;8: {rn {nh {nn {rn {nl o {mn {rn |
  1
,+->687+r<*-): {rn nnqjgjioolffffffff niqohonfgfffffffff o oqlokgooooooooooong o o o o |
  1
:;8: {rn {i {g {nh {nj o |
  1
<0:;8: {rn {mo {nk {rn {ni o {mn {rn |
  1
,+->687+r<*-): {rn nnqgfokoolffffffff niqohonfgfffffffff o o roqgnmhfffffffffffl o o o |
  1
:;8: {rn {g {m {mo {ng o |
  1
<0:;8: {rn {nn {nh {rn {nf o {mn {rn |
  1
300/ {rn {rn {nn {ml |
  1
/3>1:r,*-9><: {rn nnqhlgooolffffffff njqiilhfgfffffffff o o o rn n o o o o o o o |
  1
9><: {rn {rn {mn {mk {rn {mm o n o |
  1
,7:33 {rn {rn {rn {ml {mj |
  1
3*2/ {rn {rn {mk {o |
  1
Z1;r09r^ \VLr;>+> 
1001
ACAD_OBJECT_CHANGE_GUID
1070
     1
1071
430114027
1070
 -4391
1070
 17766
1070
   145
1070
   160
1070
    92
1070
    92
1070
   221
1070
   218
1070
     8
1070
   139
  0
HATCH
  5
6C
330
1F
100
AcDbEntity
  8
TOP_PASTE
 62
     8
100
AcDbHatch
 10
0.0
 20
0.0
 30
0.0
210
0.0
220
0.0
230
1.0
  2
SOLID
 70
     1
 71
     1
 91
        1
 92
        1
 93
        4
 72
     1
 10
11.8904004
 20
15.257399
 11
11.5856004
 21
15.257399
 72
     1
 10
11.5856004
 20
15.257399
 11
11.5856004
 21
16.070199
 72
     1
 10
11.5856004
 20
16.070199
 11
11.8904004
 21
16.070199
 72
     1
 10
11.8904004
 20
16.070199
 11
11.8904004
 21
15.257399
 97
        1
330
6B
 75
     0
 76
     1
 98
        0
  0
REGION
  5
6D
102
{ACAD_REACTORS
330
6E
102
}
330
1F
100
AcDbEntity
  8
TOP_PASTE
 62
     8
100
AcDbModelerGeometry
 70
     1
  1
noi mi n o 
  1
=0;& {rn {mj {rn {rn |
  1
/061+ {rn nmqlfgkook njqmjhlfgfffffffff o |
  1
):-+:' {rn {nf {n |
  1
/061+ {rn nmqofliook njqmjhlfgfffffffff o |
  1
):-+:' {rn {nl {l |
  1
/061+ {rn nmqofliook niqohonfgfffffffff o |
  1
):-+:' {rn {ni {j |
  1
/061+ {rn nmqlfgkook niqohonfgfffffffff o |
  1
):-+:' {rn {nf {h |
  1
,+->687+r<*-): {rn nmqlfgkook njqmjhlfgfffffffff o roqlokgooooooooooong o o o o |
  1
:;8: {rn {m {k {nn {f o |
  1
<0:;8: {rn {nk {mo {rn {no o {mn {rn |
  1
,+->687+r<*-): {rn nmqofliook njqmjhlfgfffffffff o o oqgnmhfffffffffffl o o o |
  1
:;8: {rn {k {i {nk {nm o |
  1
<0:;8: {rn {nh {nn {rn {nl o {mn {rn |
  1
,+->687+r<*-): {rn nmqofliook niqohonfgfffffffff o oqlokgooooooooooong o o o o |
  1
:;8: {rn {i {g {nh {nj o |
  1
<0:;8: {rn {mo {nk {rn {ni o {mn {rn |
  1
,+->687+r<*-): {rn nmqlfgkook niqohonfgfffffffff o o roqgnmhfffffffffffl o o o |
  1
:;8: {rn {g {m {mo {ng o |
  1
<0:;8: {rn {nn {nh {rn {nf o {mn {rn |
  1
300/ {rn {rn {nn {ml |
  1
/3>1:r,*-9><: {rn nmqmkioook njqiilhfgfffffffff o o o rn n o o o o o o o |
  1
9><: {rn {rn {mn {mk {rn {mm o n o |
  1
,7:33 {rn {rn {rn {ml {mj |
  1
3*2/ {rn {rn {mk {o |
  1
Z1;r09r^ \VLr;>+> 
1001
ACAD_OBJECT_CHANGE_GUID
1070
     1
1071
905334786
1070
 10899
1070
 18850
1070
   167
1070
    91
1070
    79
1070
   215
1070
   138
1070
     8
1070
    91
1070
   221
  0
HATCH
  5
6E
330
1F
100
AcDbEntity
  8
TOP_PASTE
 62
     8
100
AcDbHatch
 10
0.0
 20
0.0
 30
0.0
210
0.0
220
0.0
230
1.0
  2
SOLID
 70
     1
 71
     1
 91
        1
 92
        1
 93
        4
 72
     1
 10
12.3984004
 20
15.257399
 11
12.0936004
 21
15.257399
 72
     1
 10
12.0936004
 20
15.257399
 11
12.0936004
 21
16.070199
 72
     1
 10
12.0936004
 20
16.070199
 11
12.3984004
 21
16.070199
 72
     1
 10
12.3984004
 20
16.070199
 11
12.3984004
 21
15.257399
 97
        1
330
6D
 75
     0
 76
     1
 98
        0
  0
REGION
  5
6F
102
{ACAD_REACTORS
330
70
102
}
330
1F
100
AcDbEntity
  8
TOP_PASTE
 62
     8
100
AcDbModelerGeometry
 70
     1
  1
noi mi n o 
  1
=0;& {rn {mj {rn {rn |
  1
/061+ {rn nmqfoikoolffffffff njqmjhlfgfffffffff o |
  1
):-+:' {rn {nf {n |
  1
/061+ {rn nmqionioolffffffff njqmjhlfgfffffffff o |
  1
):-+:' {rn {nl {l |
  1
/061+ {rn nmqionioolffffffff niqohonfgfffffffff o |
  1
):-+:' {rn {ni {j |
  1
/061+ {rn nmqfoikoolffffffff niqohonfgfffffffff o |
  1
):-+:' {rn {nf {h |
  1
,+->687+r<*-): {rn nmqfoikoolffffffff njqmjhlfgfffffffff o roqlokgooooooooooong o o o o |
  1
:;8: {rn {m {k {nn {f o |
  1
<0:;8: {rn {nk {mo {rn {no o {mn {rn |
  1
,+->687+r<*-): {rn nmqionioolffffffff njqmjhlfgfffffffff o o oqgnmhfffffffffffl o o o |
  1
:;8: {rn {k {i {nk {nm o |
  1
<0:;8: {rn {nh {nn {rn {nl o {mn {rn |
  1
,+->687+r<*-): {rn nmqionioolffffffff niqohonfgfffffffff o oqlokgooooooooooong o o o o |
  1
:;8: {rn {i {g {nh {nj o |
  1
<0:;8: {rn {mo {nk {rn {ni o {mn {rn |
  1
,+->687+r<*-): {rn nmqfoikoolffffffff niqohonfgfffffffff o o roqgnmhfffffffffffl o o o |
  1
:;8: {rn {g {m {mo {ng o |
  1
<0:;8: {rn {nn {nh {rn {nf o {mn {rn |
  1
300/ {rn {rn {nn {ml |
  1
/3>1:r,*-9><: {rn nmqhjkooolffffffff njqiilhfgfffffffff o o o rn n o o o o o o o |
  1
9><: {rn {rn {mn {mk {rn {mm o n o |
  1
,7:33 {rn {rn {rn {ml {mj |
  1
3*2/ {rn {rn {mk {o |
  1
Z1;r09r^ \VLr;>+> 
1001
ACAD_OBJECT_CHANGE_GUID
1070
     1
1071
1802095867
1070
  8788
1070
 18626
1070
   185
1070
     5
1070
   186
1070
   105
1070
   183
1070
   230
1070
   252
1070
   103
  0
HATCH
  5
70
330
1F
100
AcDbEntity
  8
TOP_PASTE
 62
     8
100
AcDbHatch
 10
0.0
 20
0.0
 30
0.0
210
0.0
220
0.0
230
1.0
  2
SOLID
 70
     1
 71
     1
 91
        1
 92
        1
 93
        4
 72
     1
 10
12.9064004
 20
15.257399
 11
12.6016004
 21
15.257399
 72
     1
 10
12.6016004
 20
15.257399
 11
12.6016004
 21
16.070199
 72
     1
 10
12.6016004
 20
16.070199
 11
12.9064004
 21
16.070199
 72
     1
 10
12.9064004
 20
16.070199
 11
12.9064004
 21
15.257399
 97
        1
330
6F
 75
     0
 76
     1
 98
        0
  0
REGION
  5
71
102
{ACAD_REACTORS
330
72
102
}
330
1F
100
AcDbEntity
  8
TOP_PASTE
 62
     8
100
AcDbModelerGeometry
 70
     1
  1
noi mi n o 
  1
=0;& {rn {mj {rn {rn |
  1
/061+ {rn nlqknkkoolfffffffg njqmjhlfgfffffffff o |
  1
):-+:' {rn {nf {n |
  1
/061+ {rn nlqnofioolfffffffg njqmjhlfgfffffffff o |
  1
):-+:' {rn {nl {l |
  1
/061+ {rn nlqnofioolfffffffg niqohonfgfffffffff o |
  1
):-+:' {rn {ni {j |
  1
/061+ {rn nlqknkkoolfffffffg niqohonfgfffffffff o |
  1
):-+:' {rn {nf {h |
  1
,+->687+r<*-): {rn nlqknkkoolfffffffg njqmjhlfgfffffffff o roqlokgooooooooooong o o o o |
  1
:;8: {rn {m {k {nn {f o |
  1
<0:;8: {rn {nk {mo {rn {no o {mn {rn |
  1
,+->687+r<*-): {rn nlqnofioolfffffffg njqmjhlfgfffffffff o o oqgnmhfffffffffffl o o o |
  1
:;8: {rn {k {i {nk {nm o |
  1
<0:;8: {rn {nh {nn {rn {nl o {mn {rn |
  1
,+->687+r<*-): {rn nlqnofioolfffffffg niqohonfgfffffffff o oqlokgooooooooooong o o o o |
  1
:;8: {rn {i {g {nh {nj o |
  1
<0:;8: {rn {mo {nk {rn {ni o {mn {rn |
  1
,+->687+r<*-): {rn nlqknkkoolfffffffg niqohonfgfffffffff o o roqgnmhfffffffffffl o o o |
  1
:;8: {rn {g {m {mo {ng o |
  1
<0:;8: {rn {nn {nh {rn {nf o {mn {rn |
  1
300/ {rn {rn {nn {ml |
  1
/3>1:r,*-9><: {rn nlqmimooolfffffffg njqiilhfgfffffffff o o o rn n o o o o o o o |
  1
9><: {rn {rn {mn {mk {rn {mm o n o |
  1
,7:33 {rn {rn {rn {ml {mj |
  1
3*2/ {rn {rn {mk {o |
  1
Z1;r09r^ \VLr;>+> 
1001
ACAD_OBJECT_CHANGE_GUID
1070
     1
1071
2127893839
1070
 17702
1070
 20268
1070
   188
1070
     4
1070
   248
1070
   209
1070
    37
1070
   226
1070
     6
1070
   218
  0
HATCH
  5
72
330
1F
100
AcDbEntity
  8
TOP_PASTE
 62
     8
100
AcDbHatch
 10
0.0
 20
0.0
 30
0.0
210
0.0
220
0.0
230
1.0
  2
SOLID
 70
     1
 71
     1
 91
        1
 92
        1
 93
        4
 72
     1
 10
13.4144004
 20
15.257399
 11
13.1096004
 21
15.257399
 72
     1
 10
13.1096004
 20
15.257399
 11
13.1096004
 21
16.070199
 72
     1
 10
13.1096004
 20
16.070199
 11
13.4144004
 21
16.070199
 72
     1
 10
13.4144004
 20
16.070199
 11
13.4144004
 21
15.257399
 97
        1
330
71
 75
     0
 76
     1
 98
        0
  0
REGION
  5
73
102
{ACAD_REACTORS
330
74
102
}
330
1F
100
AcDbEntity
  8
TOP_PASTE
 62
     8
100
AcDbModelerGeometry
 70
     1
  1
noi mi n o 
  1
=0;& {rn {mj {rn {rn |
  1
/061+ {rn nlqgfhoook njqmjhlfgfffffffff o |
  1
):-+:' {rn {nf {n |
  1
/061+ {rn nlqjfmmoolffffffff njqmjhlfgfffffffff o |
  1
):-+:' {rn {nl {l |
  1
/061+ {rn nlqjfmmoolffffffff niqohonfgfffffffff o |
  1
):-+:' {rn {ni {j |
  1
/061+ {rn nlqgfhoook niqohonfgfffffffff o |
  1
):-+:' {rn {nf {h |
  1
,+->687+r<*-): {rn nlqgfhoook njqmjhlfgfffffffff o roqlokgooooooooooong o o o o |
  1
:;8: {rn {m {k {nn {f o |
  1
<0:;8: {rn {nk {mo {rn {no o {mn {rn |
  1
,+->687+r<*-): {rn nlqjfmmoolffffffff njqmjhlfgfffffffff o o oqgnmhfffffffffffl o o o |
  1
:;8: {rn {k {i {nk {nm o |
  1
<0:;8: {rn {nh {nn {rn {nl o {mn {rn |
  1
,+->687+r<*-): {rn nlqjfmmoolffffffff niqohonfgfffffffff o oqlokgooooooooooong o o o o |
  1
:;8: {rn {i {g {nh {nj o |
  1
<0:;8: {rn {mo {nk {rn {ni o {mn {rn |
  1
,+->687+r<*-): {rn nlqgfhoook niqohonfgfffffffff o o roqgnmhfffffffffffl o o o |
  1
:;8: {rn {g {m {mo {ng o |
  1
<0:;8: {rn {nn {nh {rn {nf o {mn {rn |
  1
300/ {rn {rn {nn {ml |
  1
/3>1:r,*-9><: {rn nlqhkkioolffffffff njqiilhfgfffffffff o o o rn n o o o o o o o |
  1
9><: {rn {rn {mn {mk {rn {mm o n o |
  1
,7:33 {rn {rn {rn {ml {mj |
  1
3*2/ {rn {rn {mk {o |
  1
Z1;r09r^ \VLr;>+> 
1001
ACAD_OBJECT_CHANGE_GUID
1070
     1
1071
206719983
1070
 11596
1070
 16812
1070
   147
1070
   231
1070
   109
1070
   101
1070
   223
1070
   170
1070
    37
1070
    88
  0
HATCH
  5
74
330
1F
100
AcDbEntity
  8
TOP_PASTE
 62
     8
100
AcDbHatch
 10
0.0
 20
0.0
 30
0.0
210
0.0
220
0.0
230
1.0
  2
SOLID
 70
     1
 71
     1
 91
        1
 92
        1
 93
        4
 72
     1
 10
13.8970004
 20
15.257399
 11
13.5922004
 21
15.257399
 72
     1
 10
13.5922004
 20
15.257399
 11
13.5922004
 21
16.070199
 72
     1
 10
13.5922004
 20
16.070199
 11
13.8970004
 21
16.070199
 72
     1
 10
13.8970004
 20
16.070199
 11
13.8970004
 21
15.257399
 97
        1
330
73
 75
     0
 76
     1
 98
        0
  0
REGION
  5
75
102
{ACAD_REACTORS
330
76
102
}
330
1F
100
AcDbEntity
  8
TOP_PASTE
 62
     8
100
AcDbModelerGeometry
 70
     1
  1
noi mi n o 
  1
=0;& {rn {mj {rn {rn |
  1
/061+ {rn nkqkojoook njqmjhlfgfffffffff o |
  1
):-+:' {rn {nf {n |
  1
/061+ {rn nkqnoomook njqmjhlfgfffffffff o |
  1
):-+:' {rn {nl {l |
  1
/061+ {rn nkqnoomook niqohonfgfffffffff o |
  1
):-+:' {rn {ni {j |
  1
/061+ {rn nkqkojoook niqohonfgfffffffff o |
  1
):-+:' {rn {nf {h |
  1
,+->687+r<*-): {rn nkqkojoook njqmjhlfgfffffffff o roqlokgooooooooooong o o o o |
  1
:;8: {rn {m {k {nn {f o |
  1
<0:;8: {rn {nk {mo {rn {no o {mn {rn |
  1
,+->687+r<*-): {rn nkqnoomook njqmjhlfgfffffffff o o oqgnmhfffffffffffl o o o |
  1
:;8: {rn {k {i {nk {nm o |
  1
<0:;8: {rn {nh {nn {rn {nl o {mn {rn |
  1
,+->687+r<*-): {rn nkqnoomook niqohonfgfffffffff o oqlokgooooooooooong o o o o |
  1
:;8: {rn {i {g {nh {nj o |
  1
<0:;8: {rn {mo {nk {rn {ni o {mn {rn |
  1
,+->687+r<*-): {rn nkqkojoook niqohonfgfffffffff o o roqgnmhfffffffffffl o o o |
  1
:;8: {rn {g {m {mo {ng o |
  1
<0:;8: {rn {nn {nh {rn {nf o {mn {rn |
  1
300/ {rn {rn {nn {ml |
  1
/3>1:r,*-9><: {rn nkqmjmiook njqiilhfgfffffffff o o o rn n o o o o o o o |
  1
9><: {rn {rn {mn {mk {rn {mm o n o |
  1
,7:33 {rn {rn {rn {ml {mj |
  1
3*2/ {rn {rn {mk {o |
  1
Z1;r09r^ \VLr;>+> 
1001
ACAD_OBJECT_CHANGE_GUID
1070
     1
1071
-202785926
1070
 -6120
1070
 20147
1070
   181
1070
   164
1070
   238
1070
    33
1070
    65
1070
    73
1070
   252
1070
    67
  0
HATCH
  5
76
330
1F
100
AcDbEntity
  8
TOP_PASTE
 62
     8
100
AcDbHatch
 10
0.0
 20
0.0
 30
0.0
210
0.0
220
0.0
230
1.0
  2
SOLID
 70
     1
 71
     1
 91
        1
 92
        1
 93
        4
 72
     1
 10
14.4050004
 20
15.257399
 11
14.1002004
 21
15.257399
 72
     1
 10
14.1002004
 20
15.257399
 11
14.1002004
 21
16.070199
 72
     1
 10
14.1002004
 20
16.070199
 11
14.4050004
 21
16.070199
 72
     1
 10
14.4050004
 20
16.070199
 11
14.4050004
 21
15.257399
 97
        1
330
75
 75
     0
 76
     1
 98
        0
  0
REGION
  5
77
102
{ACAD_REACTORS
330
78
102
}
330
1F
100
AcDbEntity
  8
TOP_PASTE
 62
     8
100
AcDbModelerGeometry
 70
     1
  1
noi mi n o 
  1
=0;& {rn {mj {rn {rn |
  1
/061+ {rn njqlhomook njqnokffgfffffffff o |
  1
):-+:' {rn {nf {n |
  1
/061+ {rn njqlhomook nkqgoonfgfffffffff o |
  1
):-+:' {rn {nl {l |
  1
/061+ {rn nkqjjhkookooooooon nkqgoonfgfffffffff o |
  1
):-+:' {rn {ni {j |
  1
/061+ {rn nkqjjhkookooooooon njqnokffgfffffffff o |
  1
):-+:' {rn {nf {h |
  1
,+->687+r<*-): {rn njqlhomook njqnokffgfffffffff o o roqlokgooooooooooong o o o |
  1
:;8: {rn {m {k {nn {f o |
  1
<0:;8: {rn {nk {mo {rn {no o {mn {rn |
  1
,+->687+r<*-): {rn njqlhomook nkqgoonfgfffffffff o roqgnmhfffffffffffl o o o o |
  1
:;8: {rn {k {i {nk {nm o |
  1
<0:;8: {rn {nh {nn {rn {nl o {mn {rn |
  1
,+->687+r<*-): {rn nkqjjhkookooooooon nkqgoonfgfffffffff o o oqlokgooooooooooong o o o |
  1
:;8: {rn {i {g {nh {nj o |
  1
<0:;8: {rn {mo {nk {rn {ni o {mn {rn |
  1
,+->687+r<*-): {rn nkqjjhkookooooooon njqnokffgfffffffff o oqgnmhfffffffffffl o o o o |
  1
:;8: {rn {g {m {mo {ng o |
  1
<0:;8: {rn {nn {nh {rn {nf o {mn {rn |
  1
300/ {rn {rn {nn {ml |
  1
/3>1:r,*-9><: {rn nkqfilgook nkqfjmjfgfffffffff o o o rn rn o o o o o o o |
  1
9><: {rn {rn {mn {mk {rn {mm o n o |
  1
,7:33 {rn {rn {rn {ml {mj |
  1
3*2/ {rn {rn {mk {o |
  1
Z1;r09r^ \VLr;>+> 
1001
ACAD_OBJECT_CHANGE_GUID
1070
     1
1071
-1532141368
1070
 -6511
1070
 18770
1070
   182
1070
    64
1070
    48
1070
    49
1070
   215
1070
   113
1070
   181
1070
   214
  0
HATCH
  5
78
330
1F
100
AcDbEntity
  8
TOP_PASTE
 62
     8
100
AcDbHatch
 10
0.0
 20
0.0
 30
0.0
210
0.0
220
0.0
230
1.0
  2
SOLID
 70
     1
 71
     1
 91
        1
 92
        1
 93
        4
 72
     1
 10
15.3702004
 20
15.104999
 11
15.3702004
 21
14.800199
 72
     1
 10
15.3702004
 20
14.800199
 11
14.5574004
 21
14.800199
 72
     1
 10
14.5574004
 20
14.800199
 11
14.5574004
 21
15.104999
 72
     1
 10
14.5574004
 20
15.104999
 11
15.3702004
 21
15.104999
 97
        1
330
77
 75
     0
 76
     1
 98
        0
  0
REGION
  5
79
102
{ACAD_REACTORS
330
7A
102
}
330
1F
100
AcDbEntity
  8
TOP_PASTE
 62
     8
100
AcDbModelerGeometry
 70
     1
  1
noi mi n o 
  1
=0;& {rn {mj {rn {rn |
  1
/061+ {rn njqlhomook nkqjfiffgfffffffff o |
  1
):-+:' {rn {nf {n |
  1
/061+ {rn njqlhomook nkqmfmnfgffffffffg o |
  1
):-+:' {rn {nl {l |
  1
/061+ {rn nkqjjhkookooooooon nkqmfmnfgffffffffg o |
  1
):-+:' {rn {ni {j |
  1
/061+ {rn nkqjjhkookooooooon nkqjfiffgfffffffff o |
  1
):-+:' {rn {nf {h |
  1
,+->687+r<*-): {rn njqlhomook nkqjfiffgfffffffff o o roqlokgooooooooooong o o o |
  1
:;8: {rn {m {k {nn {f o |
  1
<0:;8: {rn {nk {mo {rn {no o {mn {rn |
  1
,+->687+r<*-): {rn njqlhomook nkqmfmnfgffffffffg o roqgnmhfffffffffffl o o o o |
  1
:;8: {rn {k {i {nk {nm o |
  1
<0:;8: {rn {nh {nn {rn {nl o {mn {rn |
  1
,+->687+r<*-): {rn nkqjjhkookooooooon nkqmfmnfgffffffffg o o oqlokgooooooooooong o o o |
  1
:;8: {rn {i {g {nh {nj o |
  1
<0:;8: {rn {mo {nk {rn {ni o {mn {rn |
  1
,+->687+r<*-): {rn nkqjjhkookooooooon nkqjfiffgfffffffff o oqgnmhfffffffffffl o o o o |
  1
:;8: {rn {g {m {mo {ng o |
  1
<0:;8: {rn {nn {nh {rn {nf o {mn {rn |
  1
300/ {rn {rn {nn {ml |
  1
/3>1:r,*-9><: {rn nkqfilgook nkqkkkjfgffffffffg o o o rn rn o o o o o o o |
  1
9><: {rn {rn {mn {mk {rn {mm o n o |
  1
,7:33 {rn {rn {rn {ml {mj |
  1
3*2/ {rn {rn {mk {o |
  1
Z1;r09r^ \VLr;>+> 
1001
ACAD_OBJECT_CHANGE_GUID
1070
     1
1071
-501817856
1070
 27127
1070
 18209
1070
   186
1070
    91
1070
   247
1070
    27
1070
   178
1070
   177
1070
   216
1070
    19
  0
HATCH
  5
7A
330
1F
100
AcDbEntity
  8
TOP_PASTE
 62
     8
100
AcDbHatch
 10
0.0
 20
0.0
 30
0.0
210
0.0
220
0.0
230
1.0
  2
SOLID
 70
     1
 71
     1
 91
        1
 92
        1
 93
        4
 72
     1
 10
15.3702004
 20
14.596999
 11
15.3702004
 21
14.292199
 72
     1
 10
15.3702004
 20
14.292199
 11
14.5574004
 21
14.292199
 72
     1
 10
14.5574004
 20
14.292199
 11
14.5574004
 21
14.596999
 72
     1
 10
14.5574004
 20
14.596999
 11
15.3702004
 21
14.596999
 97
        1
330
79
 75
     0
 76
     1
 98
        0
  0
REGION
  5
7B
102
{ACAD_REACTORS
330
7C
102
}
330
1F
100
AcDbEntity
  8
TOP_PASTE
 62
     8
100
AcDbModelerGeometry
 70
     1
  1
noi mi n o 
  1
=0;& {rn {mj {rn {rn |
  1
/061+ {rn njqlhomook nkqnnklfgfffffffff o |
  1
):-+:' {rn {nf {n |
  1
/061+ {rn njqlhomook nlqgofjfgfffffffff o |
  1
):-+:' {rn {nl {l |
  1
/061+ {rn nkqjjhkookooooooon nlqgofjfgfffffffff o |
  1
):-+:' {rn {ni {j |
  1
/061+ {rn nkqjjhkookooooooon nkqnnklfgfffffffff o |
  1
):-+:' {rn {nf {h |
  1
,+->687+r<*-): {rn njqlhomook nkqnnklfgfffffffff o o roqlokgooooooooooong o o o |
  1
:;8: {rn {m {k {nn {f o |
  1
<0:;8: {rn {nk {mo {rn {no o {mn {rn |
  1
,+->687+r<*-): {rn njqlhomook nlqgofjfgfffffffff o roqgnmhfffffffffffl o o o o |
  1
:;8: {rn {k {i {nk {nm o |
  1
<0:;8: {rn {nh {nn {rn {nl o {mn {rn |
  1
,+->687+r<*-): {rn nkqjjhkookooooooon nlqgofjfgfffffffff o o oqlokgooooooooooong o o o |
  1
:;8: {rn {i {g {nh {nj o |
  1
<0:;8: {rn {mo {nk {rn {ni o {mn {rn |
  1
,+->687+r<*-): {rn nkqjjhkookooooooon nkqnnklfgfffffffff o oqgnmhfffffffffffl o o o o |
  1
:;8: {rn {g {m {mo {ng o |
  1
<0:;8: {rn {nn {nh {rn {nf o {mn {rn |
  1
300/ {rn {rn {nn {ml |
  1
/3>1:r,*-9><: {rn nkqfilgook nlqfinffgfffffffff o o o rn rn o o o o o o o |
  1
9><: {rn {rn {mn {mk {rn {mm o n o |
  1
,7:33 {rn {rn {rn {ml {mj |
  1
3*2/ {rn {rn {mk {o |
  1
Z1;r09r^ \VLr;>+> 
1001
ACAD_OBJECT_CHANGE_GUID
1070
     1
1071
-670129650
1070
-32642
1070
 20147
1070
   175
1070
   201
1070
   185
1070
    11
1070
   153
1070
   235
1070
   116
1070
     6
  0
HATCH
  5
7C
330
1F
100
AcDbEntity
  8
TOP_PASTE
 62
     8
100
AcDbHatch
 10
0.0
 20
0.0
 30
0.0
210
0.0
220
0.0
230
1.0
  2
SOLID
 70
     1
 71
     1
 91
        1
 92
        1
 93
        4
 72
     1
 10
15.3702004
 20
14.114399
 11
15.3702004
 21
13.809599
 72
     1
 10
15.3702004
 20
13.809599
 11
14.5574004
 21
13.809599
 72
     1
 10
14.5574004
 20
13.809599
 11
14.5574004
 21
14.114399
 72
     1
 10
14.5574004
 20
14.114399
 11
15.3702004
 21
14.114399
 97
        1
330
7B
 75
     0
 76
     1
 98
        0
  0
REGION
  5
7D
102
{ACAD_REACTORS
330
7E
102
}
330
1F
100
AcDbEntity
  8
TOP_PASTE
 62
     8
100
AcDbModelerGeometry
 70
     1
  1
noi mi n o 
  1
=0;& {rn {mj {rn {rn |
  1
/061+ {rn njqlhomook nlqioilfgffffffffg o |
  1
):-+:' {rn {nf {n |
  1
/061+ {rn njqlhomook nlqlonjfgffffffffg o |
  1
):-+:' {rn {nl {l |
  1
/061+ {rn nkqjjhkookooooooon nlqlonjfgffffffffg o |
  1
):-+:' {rn {ni {j |
  1
/061+ {rn nkqjjhkookooooooon nlqioilfgffffffffg o |
  1
):-+:' {rn {nf {h |
  1
,+->687+r<*-): {rn njqlhomook nlqioilfgffffffffg o o roqlokgooooooooooong o o o |
  1
:;8: {rn {m {k {nn {f o |
  1
<0:;8: {rn {nk {mo {rn {no o {mn {rn |
  1
,+->687+r<*-): {rn njqlhomook nlqlonjfgffffffffg o roqgnmhfffffffffffl o o o o |
  1
:;8: {rn {k {i {nk {nm o |
  1
<0:;8: {rn {nh {nn {rn {nl o {mn {rn |
  1
,+->687+r<*-): {rn nkqjjhkookooooooon nlqlonjfgffffffffg o o oqlokgooooooooooong o o o |
  1
:;8: {rn {i {g {nh {nj o |
  1
<0:;8: {rn {mo {nk {rn {ni o {mn {rn |
  1
,+->687+r<*-): {rn nkqjjhkookooooooon nlqioilfgffffffffg o oqgnmhfffffffffffl o o o o |
  1
:;8: {rn {g {m {mo {ng o |
  1
<0:;8: {rn {nn {nh {rn {nf o {mn {rn |
  1
300/ {rn {rn {nn {ml |
  1
/3>1:r,*-9><: {rn nkqfilgook nlqkjlffgffffffffg o o o rn rn o o o o o o o |
  1
9><: {rn {rn {mn {mk {rn {mm o n o |
  1
,7:33 {rn {rn {rn {ml {mj |
  1
3*2/ {rn {rn {mk {o |
  1
Z1;r09r^ \VLr;>+> 
1001
ACAD_OBJECT_CHANGE_GUID
1070
     1
1071
720862753
1070
-13994
1070
 19722
1070
   139
1070
   228
1070
   108
1070
    68
1070
   188
1070
   235
1070
     2
1070
    80
  0
HATCH
  5
7E
330
1F
100
AcDbEntity
  8
TOP_PASTE
 62
     8
100
AcDbHatch
 10
0.0
 20
0.0
 30
0.0
210
0.0
220
0.0
230
1.0
  2
SOLID
 70
     1
 71
     1
 91
        1
 92
        1
 93
        4
 72
     1
 10
15.3702004
 20
13.606399
 11
15.3702004
 21
13.301599
 72
     1
 10
15.3702004
 20
13.301599
 11
14.5574004
 21
13.301599
 72
     1
 10
14.5574004
 20
13.301599
 11
14.5574004
 21
13.606399
 72
     1
 10
14.5574004
 20
13.606399
 11
15.3702004
 21
13.606399
 97
        1
330
7D
 75
     0
 76
     1
 98
        0
  0
REGION
  5
7F
102
{ACAD_REACTORS
330
80
102
}
330
1F
100
AcDbEntity
  8
TOP_PASTE
 62
     8
100
AcDbModelerGeometry
 70
     1
  1
noi mi n o 
  1
=0;& {rn {mj {rn {rn |
  1
/061+ {rn njqlhomook nlqofglfgfffffffff o |
  1
):-+:' {rn {nf {n |
  1
/061+ {rn njqlhomook nmqhfljff o |
  1
):-+:' {rn {nl {l |
  1
/061+ {rn nkqjjhkookooooooon nmqhfljff o |
  1
):-+:' {rn {ni {j |
  1
/061+ {rn nkqjjhkookooooooon nlqofglfgfffffffff o |
  1
):-+:' {rn {nf {h |
  1
,+->687+r<*-): {rn njqlhomook nlqofglfgfffffffff o o roqlokhffffffffffgkn o o o |
  1
:;8: {rn {m {k {nn {f o |
  1
<0:;8: {rn {nk {mo {rn {no o {mn {rn |
  1
,+->687+r<*-): {rn njqlhomook nmqhfljff o roqgnmhfffffffffffl o o o o |
  1
:;8: {rn {k {i {nk {nm o |
  1
<0:;8: {rn {nh {nn {rn {nl o {mn {rn |
  1
,+->687+r<*-): {rn nkqjjhkookooooooon nmqhfljff o o oqlokhffffffffffgkn o o o |
  1
:;8: {rn {i {g {nh {nj o |
  1
<0:;8: {rn {mo {nk {rn {ni o {mn {rn |
  1
,+->687+r<*-): {rn nkqjjhkookooooooon nlqofglfgfffffffff o oqgnmhfffffffffffl o o o o |
  1
:;8: {rn {g {m {mo {ng o |
  1
<0:;8: {rn {nn {nh {rn {nf o {mn {rn |
  1
300/ {rn {rn {nn {ml |
  1
/3>1:r,*-9><: {rn nkqfilgook nmqfkjfff o o o rn rn o o o o o o o |
  1
9><: {rn {rn {mn {mk {rn {mm o n o |
  1
,7:33 {rn {rn {rn {ml {mj |
  1
3*2/ {rn {rn {mk {o |
  1
Z1;r09r^ \VLr;>+> 
1001
ACAD_OBJECT_CHANGE_GUID
1070
     1
1071
2029345280
1070
 26297
1070
 18912
1070
   133
1070
   141
1070
    34
1070
   124
1070
   154
1070
   192
1070
    33
1070
    61
  0
HATCH
  5
80
330
1F
100
AcDbEntity
  8
TOP_PASTE
 62
     8
100
AcDbHatch
 10
0.0
 20
0.0
 30
0.0
210
0.0
220
0.0
230
1.0
  2
SOLID
 70
     1
 71
     1
 91
        1
 92
        1
 93
        4
 72
     1
 10
15.3702004
 20
13.098399
 11
15.3702004
 21
12.793599
 72
     1
 10
15.3702004
 20
12.793599
 11
14.5574004
 21
12.793599
 72
     1
 10
14.5574004
 20
12.793599
 11
14.5574004
 21
13.098399
 72
     1
 10
14.5574004
 20
13.098399
 11
15.3702004
 21
13.098399
 97
        1
330
7F
 75
     0
 76
     1
 98
        0
  0
REGION
  5
81
102
{ACAD_REACTORS
330
82
102
}
330
1F
100
AcDbEntity
  8
TOP_PASTE
 62
     8
100
AcDbModelerGeometry
 70
     1
  1
noi mi n o 
  1
=0;& {rn {mj {rn {rn |
  1
/061+ {rn njqlhomook nmqjfolff o |
  1
):-+:' {rn {nf {n |
  1
/061+ {rn njqlhomook nmqmgjjfgfffffffff o |
  1
):-+:' {rn {nl {l |
  1
/061+ {rn nkqjjhkookooooooon nmqmgjjfgfffffffff o |
  1
):-+:' {rn {ni {j |
  1
/061+ {rn nkqjjhkookooooooon nmqjfolff o |
  1
):-+:' {rn {nf {h |
  1
,+->687+r<*-): {rn njqlhomook nmqjfolff o o roqlokgooooooooooong o o o |
  1
:;8: {rn {m {k {nn {f o |
  1
<0:;8: {rn {nk {mo {rn {no o {mn {rn |
  1
,+->687+r<*-): {rn njqlhomook nmqmgjjfgfffffffff o roqgnmhfffffffffffl o o o o |
  1
:;8: {rn {k {i {nk {nm o |
  1
<0:;8: {rn {nh {nn {rn {nl o {mn {rn |
  1
,+->687+r<*-): {rn nkqjjhkookooooooon nmqmgjjfgfffffffff o o oqlokgooooooooooong o o o |
  1
:;8: {rn {i {g {nh {nj o |
  1
<0:;8: {rn {mo {nk {rn {ni o {mn {rn |
  1
,+->687+r<*-): {rn nkqjjhkookooooooon nmqjfolff o oqgnmhfffffffffffl o o o o |
  1
:;8: {rn {g {m {mo {ng o |
  1
<0:;8: {rn {nn {nh {rn {nf o {mn {rn |
  1
300/ {rn {rn {nn {ml |
  1
/3>1:r,*-9><: {rn nkqfilgook nmqklhfff o o o rn rn o o o o o o o |
  1
9><: {rn {rn {mn {mk {rn {mm o n o |
  1
,7:33 {rn {rn {rn {ml {mj |
  1
3*2/ {rn {rn {mk {o |
  1
Z1;r09r^ \VLr;>+> 
1001
ACAD_OBJECT_CHANGE_GUID
1070
     1
1071
637367145
1070
 23801
1070
 18156
1070
   158
1070
   213
1070
   151
1070
    38
1070
   195
1070
   214
1070
    34
1070
   197
  0
HATCH
  5
82
330
1F
100
AcDbEntity
  8
TOP_PASTE
 62
     8
100
AcDbHatch
 10
0.0
 20
0.0
 30
0.0
210
0.0
220
0.0
230
1.0
  2
SOLID
 70
     1
 71
     1
 91
        1
 92
        1
 93
        4
 72
     1
 10
15.3702004
 20
12.590399
 11
15.3702004
 21
12.285599
 72
     1
 10
15.3702004
 20
12.285599
 11
14.5574004
 21
12.285599
 72
     1
 10
14.5574004
 20
12.285599
 11
14.5574004
 21
12.590399
 72
     1
 10
14.5574004
 20
12.590399
 11
15.3702004
 21
12.590399
 97
        1
330
81
 75
     0
 76
     1
 98
        0
  0
REGION
  5
83
102
{ACAD_REACTORS
330
84
102
}
330
1F
100
AcDbEntity
  8
TOP_PASTE
 62
     8
100
AcDbModelerGeometry
 70
     1
  1
noi mi n o 
  1
=0;& {rn {mj {rn {rn |
  1
/061+ {rn njqlhomook nmqnohhff o |
  1
):-+:' {rn {nf {n |
  1
/061+ {rn njqlhomook nnqgomfff o |
  1
):-+:' {rn {nl {l |
  1
/061+ {rn nkqjjhkookooooooon nnqgomfff o |
  1
):-+:' {rn {ni {j |
  1
/061+ {rn nkqjjhkookooooooon nmqnohhff o |
  1
):-+:' {rn {nf {h |
  1
,+->687+r<*-): {rn njqlhomook nmqnohhff o o roqlokgooooooooooong o o o |
  1
:;8: {rn {m {k {nn {f o |
  1
<0:;8: {rn {nk {mo {rn {no o {mn {rn |
  1
,+->687+r<*-): {rn njqlhomook nnqgomfff o roqgnmhfffffffffffl o o o o |
  1
:;8: {rn {k {i {nk {nm o |
  1
<0:;8: {rn {nh {nn {rn {nl o {mn {rn |
  1
,+->687+r<*-): {rn nkqjjhkookooooooon nnqgomfff o o oqlokgooooooooooong o o o |
  1
:;8: {rn {i {g {nh {nj o |
  1
<0:;8: {rn {mo {nk {rn {ni o {mn {rn |
  1
,+->687+r<*-): {rn nkqjjhkookooooooon nmqnohhff o oqgnmhfffffffffffl o o o o |
  1
:;8: {rn {g {m {mo {ng o |
  1
<0:;8: {rn {nn {nh {rn {nf o {mn {rn |
  1
300/ {rn {rn {nn {ml |
  1
/3>1:r,*-9><: {rn nkqfilgook nnqfjjlff o o o rn rn o o o o o o o |
  1
9><: {rn {rn {mn {mk {rn {mm o n o |
  1
,7:33 {rn {rn {rn {ml {mj |
  1
3*2/ {rn {rn {mk {o |
  1
Z1;r09r^ \VLr;>+> 
1001
ACAD_OBJECT_CHANGE_GUID
1070
     1
1071
-1364001499
1070
-10559
1070
 18249
1070
   163
1070
   118
1070
    28
1070
   125
1070
   166
1070
    27
1070
    39
1070
     3
  0
HATCH
  5
84
330
1F
100
AcDbEntity
  8
TOP_PASTE
 62
     8
100
AcDbHatch
 10
0.0
 20
0.0
 30
0.0
210
0.0
220
0.0
230
1.0
  2
SOLID
 70
     1
 71
     1
 91
        1
 92
        1
 93
        4
 72
     1
 10
15.3702004
 20
12.107799
 11
15.3702004
 21
11.802999
 72
     1
 10
15.3702004
 20
11.802999
 11
14.5574004
 21
11.802999
 72
     1
 10
14.5574004
 20
11.802999
 11
14.5574004
 21
12.107799
 72
     1
 10
14.5574004
 20
12.107799
 11
15.3702004
 21
12.107799
 97
        1
330
83
 75
     0
 76
     1
 98
        0
  0
REGION
  5
85
102
{ACAD_REACTORS
330
86
102
}
330
1F
100
AcDbEntity
  8
TOP_PASTE
 62
     8
100
AcDbModelerGeometry
 70
     1
  1
noi mi n o 
  1
=0;& {rn {mj {rn {rn |
  1
/061+ {rn njqlhomook nnqjffhfgfffffffff o |
  1
):-+:' {rn {nf {n |
  1
/061+ {rn njqlhomook nnqmfkffgfffffffff o |
  1
):-+:' {rn {nl {l |
  1
/061+ {rn nkqjjhkookooooooon nnqmfkffgfffffffff o |
  1
):-+:' {rn {ni {j |
  1
/061+ {rn nkqjjhkookooooooon nnqjffhfgfffffffff o |
  1
):-+:' {rn {nf {h |
  1
,+->687+r<*-): {rn njqlhomook nnqjffhfgfffffffff o o roqlokgooooooooooong o o o |
  1
:;8: {rn {m {k {nn {f o |
  1
<0:;8: {rn {nk {mo {rn {no o {mn {rn |
  1
,+->687+r<*-): {rn njqlhomook nnqmfkffgfffffffff o roqgnmhfffffffffffl o o o o |
  1
:;8: {rn {k {i {nk {nm o |
  1
<0:;8: {rn {nh {nn {rn {nl o {mn {rn |
  1
,+->687+r<*-): {rn nkqjjhkookooooooon nnqmfkffgfffffffff o o oqlokgooooooooooong o o o |
  1
:;8: {rn {i {g {nh {nj o |
  1
<0:;8: {rn {mo {nk {rn {ni o {mn {rn |
  1
,+->687+r<*-): {rn nkqjjhkookooooooon nnqjffhfgfffffffff o oqgnmhfffffffffffl o o o o |
  1
:;8: {rn {g {m {mo {ng o |
  1
<0:;8: {rn {nn {nh {rn {nf o {mn {rn |
  1
300/ {rn {rn {nn {ml |
  1
/3>1:r,*-9><: {rn nkqfilgook nnqkkhlfgfffffffff o o o rn rn o o o o o o o |
  1
9><: {rn {rn {mn {mk {rn {mm o n o |
  1
,7:33 {rn {rn {rn {ml {mj |
  1
3*2/ {rn {rn {mk {o |
  1
Z1;r09r^ \VLr;>+> 
1001
ACAD_OBJECT_CHANGE_GUID
1070
     1
1071
1372122476
1070
  6590
1070
 16732
1070
   152
1070
    99
1070
   187
1070
    94
1070
   202
1070
   168
1070
    75
1070
   136
  0
HATCH
  5
86
330
1F
100
AcDbEntity
  8
TOP_PASTE
 62
     8
100
AcDbHatch
 10
0.0
 20
0.0
 30
0.0
210
0.0
220
0.0
230
1.0
  2
SOLID
 70
     1
 71
     1
 91
        1
 92
        1
 93
        4
 72
     1
 10
15.3702004
 20
11.599799
 11
15.3702004
 21
11.294999
 72
     1
 10
15.3702004
 20
11.294999
 11
14.5574004
 21
11.294999
 72
     1
 10
14.5574004
 20
11.294999
 11
14.5574004
 21
11.599799
 72
     1
 10
14.5574004
 20
11.599799
 11
15.3702004
 21
11.599799
 97
        1
330
85
 75
     0
 76
     1
 98
        0
  0
REGION
  5
87
102
{ACAD_REACTORS
330
88
102
}
330
1F
100
AcDbEntity
  8
TOP_PASTE
 62
     8
100
AcDbModelerGeometry
 70
     1
  1
noi mi n o 
  1
=0;& {rn {mj {rn {rn |
  1
/061+ {rn nkqkojoook noqlmfhff o |
  1
):-+:' {rn {nf {n |
  1
/061+ {rn nkqnoomook noqlmfhff o |
  1
):-+:' {rn {nl {l |
  1
/061+ {rn nkqnoomook nnqnkmjfgfffffffff o |
  1
):-+:' {rn {ni {j |
  1
/061+ {rn nkqkojoook nnqnkmjfgfffffffff o |
  1
):-+:' {rn {nf {h |
  1
,+->687+r<*-): {rn nkqkojoook noqlmfhff o roqlokgooooooooooong o o o o |
  1
:;8: {rn {m {k {nn {f o |
  1
<0:;8: {rn {nk {mo {rn {no o {mn {rn |
  1
,+->687+r<*-): {rn nkqnoomook noqlmfhff o o oqgnmhfffffffffffl o o o |
  1
:;8: {rn {k {i {nk {nm o |
  1
<0:;8: {rn {nh {nn {rn {nl o {mn {rn |
  1
,+->687+r<*-): {rn nkqnoomook nnqnkmjfgfffffffff o oqlokgooooooooooong o o o o |
  1
:;8: {rn {i {g {nh {nj o |
  1
<0:;8: {rn {mo {nk {rn {ni o {mn {rn |
  1
,+->687+r<*-): {rn nkqkojoook nnqnkmjfgfffffffff o o roqgnmhfffffffffffl o o o |
  1
:;8: {rn {g {m {mo {ng o |
  1
<0:;8: {rn {nn {nh {rn {nf o {mn {rn |
  1
300/ {rn {rn {nn {ml |
  1
/3>1:r,*-9><: {rn nkqmjmiook noqhlinfgfffffffff o o o rn n o o o o o o o |
  1
9><: {rn {rn {mn {mk {rn {mm o n o |
  1
,7:33 {rn {rn {rn {ml {mj |
  1
3*2/ {rn {rn {mk {o |
  1
Z1;r09r^ \VLr;>+> 
1001
ACAD_OBJECT_CHANGE_GUID
1070
     1
1071
961018078
1070
-23800
1070
 20420
1070
   155
1070
   112
1070
    66
1070
   230
1070
   222
1070
   188
1070
   141
1070
    48
  0
HATCH
  5
88
330
1F
100
AcDbEntity
  8
TOP_PASTE
 62
     8
100
AcDbHatch
 10
0.0
 20
0.0
 30
0.0
210
0.0
220
0.0
230
1.0
  2
SOLID
 70
     1
 71
     1
 91
        1
 92
        1
 93
        4
 72
     1
 10
14.4050004
 20
10.329799
 11
14.1002004
 21
10.329799
 72
     1
 10
14.1002004
 20
10.329799
 11
14.1002004
 21
11.142599
 72
     1
 10
14.1002004
 20
11.142599
 11
14.4050004
 21
11.142599
 72
     1
 10
14.4050004
 20
11.142599
 11
14.4050004
 21
10.329799
 97
        1
330
87
 75
     0
 76
     1
 98
        0
  0
REGION
  5
89
102
{ACAD_REACTORS
330
8A
102
}
330
1F
100
AcDbEntity
  8
TOP_PASTE
 62
     8
100
AcDbModelerGeometry
 70
     1
  1
noi mi n o 
  1
=0;& {rn {mj {rn {rn |
  1
/061+ {rn nlqgfhoook noqlmfhff o |
  1
):-+:' {rn {nf {n |
  1
/061+ {rn nlqjfmmoolffffffff noqlmfhff o |
  1
):-+:' {rn {nl {l |
  1
/061+ {rn nlqjfmmoolffffffff nnqnkmjfgfffffffff o |
  1
):-+:' {rn {ni {j |
  1
/061+ {rn nlqgfhoook nnqnkmjfgfffffffff o |
  1
):-+:' {rn {nf {h |
  1
,+->687+r<*-): {rn nlqgfhoook noqlmfhff o roqlokgooooooooooong o o o o |
  1
:;8: {rn {m {k {nn {f o |
  1
<0:;8: {rn {nk {mo {rn {no o {mn {rn |
  1
,+->687+r<*-): {rn nlqjfmmoolffffffff noqlmfhff o o oqgnmhfffffffffffl o o o |
  1
:;8: {rn {k {i {nk {nm o |
  1
<0:;8: {rn {nh {nn {rn {nl o {mn {rn |
  1
,+->687+r<*-): {rn nlqjfmmoolffffffff nnqnkmjfgfffffffff o oqlokgooooooooooong o o o o |
  1
:;8: {rn {i {g {nh {nj o |
  1
<0:;8: {rn {mo {nk {rn {ni o {mn {rn |
  1
,+->687+r<*-): {rn nlqgfhoook nnqnkmjfgfffffffff o o roqgnmhfffffffffffl o o o |
  1
:;8: {rn {g {m {mo {ng o |
  1
<0:;8: {rn {nn {nh {rn {nf o {mn {rn |
  1
300/ {rn {rn {nn {ml |
  1
/3>1:r,*-9><: {rn nlqhkkioolffffffff noqhlinfgfffffffff o o o rn n o o o o o o o |
  1
9><: {rn {rn {mn {mk {rn {mm o n o |
  1
,7:33 {rn {rn {rn {ml {mj |
  1
3*2/ {rn {rn {mk {o |
  1
Z1;r09r^ \VLr;>+> 
1001
ACAD_OBJECT_CHANGE_GUID
1070
     1
1071
-663265469
1070
 30616
1070
 20357
1070
   151
1070
   241
1070
   190
1070
    59
1070
   127
1070
   153
1070
   139
1070
   239
  0
HATCH
  5
8A
330
1F
100
AcDbEntity
  8
TOP_PASTE
 62
     8
100
AcDbHatch
 10
0.0
 20
0.0
 30
0.0
210
0.0
220
0.0
230
1.0
  2
SOLID
 70
     1
 71
     1
 91
        1
 92
        1
 93
        4
 72
     1
 10
13.8970004
 20
10.329799
 11
13.5922004
 21
10.329799
 72
     1
 10
13.5922004
 20
10.329799
 11
13.5922004
 21
11.142599
 72
     1
 10
13.5922004
 20
11.142599
 11
13.8970004
 21
11.142599
 72
     1
 10
13.8970004
 20
11.142599
 11
13.8970004
 21
10.329799
 97
        1
330
89
 75
     0
 76
     1
 98
        0
  0
REGION
  5
8B
102
{ACAD_REACTORS
330
8C
102
}
330
1F
100
AcDbEntity
  8
TOP_PASTE
 62
     8
100
AcDbModelerGeometry
 70
     1
  1
noi mi n o 
  1
=0;& {rn {mj {rn {rn |
  1
/061+ {rn nlqknkkoolfffffffg noqlmfhff o |
  1
):-+:' {rn {nf {n |
  1
/061+ {rn nlqnofioolfffffffg noqlmfhff o |
  1
):-+:' {rn {nl {l |
  1
/061+ {rn nlqnofioolfffffffg nnqnkmjfgfffffffff o |
  1
):-+:' {rn {ni {j |
  1
/061+ {rn nlqknkkoolfffffffg nnqnkmjfgfffffffff o |
  1
):-+:' {rn {nf {h |
  1
,+->687+r<*-): {rn nlqknkkoolfffffffg noqlmfhff o roqlokgooooooooooong o o o o |
  1
:;8: {rn {m {k {nn {f o |
  1
<0:;8: {rn {nk {mo {rn {no o {mn {rn |
  1
,+->687+r<*-): {rn nlqnofioolfffffffg noqlmfhff o o oqgnmhfffffffffffl o o o |
  1
:;8: {rn {k {i {nk {nm o |
  1
<0:;8: {rn {nh {nn {rn {nl o {mn {rn |
  1
,+->687+r<*-): {rn nlqnofioolfffffffg nnqnkmjfgfffffffff o oqlokgooooooooooong o o o o |
  1
:;8: {rn {i {g {nh {nj o |
  1
<0:;8: {rn {mo {nk {rn {ni o {mn {rn |
  1
,+->687+r<*-): {rn nlqknkkoolfffffffg nnqnkmjfgfffffffff o o roqgnmhfffffffffffl o o o |
  1
:;8: {rn {g {m {mo {ng o |
  1
<0:;8: {rn {nn {nh {rn {nf o {mn {rn |
  1
300/ {rn {rn {nn {ml |
  1
/3>1:r,*-9><: {rn nlqmimooolfffffffg noqhlinfgfffffffff o o o rn n o o o o o o o |
  1
9><: {rn {rn {mn {mk {rn {mm o n o |
  1
,7:33 {rn {rn {rn {ml {mj |
  1
3*2/ {rn {rn {mk {o |
  1
Z1;r09r^ \VLr;>+> 
1001
ACAD_OBJECT_CHANGE_GUID
1070
     1
1071
-42323997
1070
-23555
1070
 19812
1070
   153
1070
   130
1070
   179
1070
   196
1070
    27
1070
    34
1070
   234
1070
   124
  0
HATCH
  5
8C
330
1F
100
AcDbEntity
  8
TOP_PASTE
 62
     8
100
AcDbHatch
 10
0.0
 20
0.0
 30
0.0
210
0.0
220
0.0
230
1.0
  2
SOLID
 70
     1
 71
     1
 91
        1
 92
        1
 93
        4
 72
     1
 10
13.4144004
 20
10.329799
 11
13.1096004
 21
10.329799
 72
     1
 10
13.1096004
 20
10.329799
 11
13.1096004
 21
11.142599
 72
     1
 10
13.1096004
 20
11.142599
 11
13.4144004
 21
11.142599
 72
     1
 10
13.4144004
 20
11.142599
 11
13.4144004
 21
10.329799
 97
        1
330
8B
 75
     0
 76
     1
 98
        0
  0
REGION
  5
8D
102
{ACAD_REACTORS
330
8E
102
}
330
1F
100
AcDbEntity
  8
TOP_PASTE
 62
     8
100
AcDbModelerGeometry
 70
     1
  1
noi mi n o 
  1
=0;& {rn {mj {rn {rn |
  1
/061+ {rn nmqfoikoolffffffff noqlmfhff o |
  1
):-+:' {rn {nf {n |
  1
/061+ {rn nmqionioolffffffff noqlmfhff o |
  1
):-+:' {rn {nl {l |
  1
/061+ {rn nmqionioolffffffff nnqnkmjfgfffffffff o |
  1
):-+:' {rn {ni {j |
  1
/061+ {rn nmqfoikoolffffffff nnqnkmjfgfffffffff o |
  1
):-+:' {rn {nf {h |
  1
,+->687+r<*-): {rn nmqfoikoolffffffff noqlmfhff o roqlokgooooooooooong o o o o |
  1
:;8: {rn {m {k {nn {f o |
  1
<0:;8: {rn {nk {mo {rn {no o {mn {rn |
  1
,+->687+r<*-): {rn nmqionioolffffffff noqlmfhff o o oqgnmhfffffffffffl o o o |
  1
:;8: {rn {k {i {nk {nm o |
  1
<0:;8: {rn {nh {nn {rn {nl o {mn {rn |
  1
,+->687+r<*-): {rn nmqionioolffffffff nnqnkmjfgfffffffff o oqlokgooooooooooong o o o o |
  1
:;8: {rn {i {g {nh {nj o |
  1
<0:;8: {rn {mo {nk {rn {ni o {mn {rn |
  1
,+->687+r<*-): {rn nmqfoikoolffffffff nnqnkmjfgfffffffff o o roqgnmhfffffffffffl o o o |
  1
:;8: {rn {g {m {mo {ng o |
  1
<0:;8: {rn {nn {nh {rn {nf o {mn {rn |
  1
300/ {rn {rn {nn {ml |
  1
/3>1:r,*-9><: {rn nmqhjkooolffffffff noqhlinfgfffffffff o o o rn n o o o o o o o |
  1
9><: {rn {rn {mn {mk {rn {mm o n o |
  1
,7:33 {rn {rn {rn {ml {mj |
  1
3*2/ {rn {rn {mk {o |
  1
Z1;r09r^ \VLr;>+> 
1001
ACAD_OBJECT_CHANGE_GUID
1070
     1
1071
-918246724
1070
-16983
1070
 18870
1070
   133
1070
   156
1070
    92
1070
    92
1070
   125
1070
   175
1070
   191
1070
    97
  0
HATCH
  5
8E
330
1F
100
AcDbEntity
  8
TOP_PASTE
 62
     8
100
AcDbHatch
 10
0.0
 20
0.0
 30
0.0
210
0.0
220
0.0
230
1.0
  2
SOLID
 70
     1
 71
     1
 91
        1
 92
        1
 93
        4
 72
     1
 10
12.9064004
 20
10.329799
 11
12.6016004
 21
10.329799
 72
     1
 10
12.6016004
 20
10.329799
 11
12.6016004
 21
11.142599
 72
     1
 10
12.6016004
 20
11.142599
 11
12.9064004
 21
11.142599
 72
     1
 10
12.9064004
 20
11.142599
 11
12.9064004
 21
10.329799
 97
        1
330
8D
 75
     0
 76
     1
 98
        0
  0
REGION
  5
8F
102
{ACAD_REACTORS
330
90
102
}
330
1F
100
AcDbEntity
  8
TOP_PASTE
 62
     8
100
AcDbModelerGeometry
 70
     1
  1
noi mi n o 
  1
=0;& {rn {mj {rn {rn |
  1
/061+ {rn nmqlfgkook noqlmfhff o |
  1
):-+:' {rn {nf {n |
  1
/061+ {rn nmqofliook noqlmfhff o |
  1
):-+:' {rn {nl {l |
  1
/061+ {rn nmqofliook nnqnkmjfgfffffffff o |
  1
):-+:' {rn {ni {j |
  1
/061+ {rn nmqlfgkook nnqnkmjfgfffffffff o |
  1
):-+:' {rn {nf {h |
  1
,+->687+r<*-): {rn nmqlfgkook noqlmfhff o roqlokgooooooooooong o o o o |
  1
:;8: {rn {m {k {nn {f o |
  1
<0:;8: {rn {nk {mo {rn {no o {mn {rn |
  1
,+->687+r<*-): {rn nmqofliook noqlmfhff o o oqgnmhfffffffffffl o o o |
  1
:;8: {rn {k {i {nk {nm o |
  1
<0:;8: {rn {nh {nn {rn {nl o {mn {rn |
  1
,+->687+r<*-): {rn nmqofliook nnqnkmjfgfffffffff o oqlokgooooooooooong o o o o |
  1
:;8: {rn {i {g {nh {nj o |
  1
<0:;8: {rn {mo {nk {rn {ni o {mn {rn |
  1
,+->687+r<*-): {rn nmqlfgkook nnqnkmjfgfffffffff o o roqgnmhfffffffffffl o o o |
  1
:;8: {rn {g {m {mo {ng o |
  1
<0:;8: {rn {nn {nh {rn {nf o {mn {rn |
  1
300/ {rn {rn {nn {ml |
  1
/3>1:r,*-9><: {rn nmqmkioook noqhlinfgfffffffff o o o rn n o o o o o o o |
  1
9><: {rn {rn {mn {mk {rn {mm o n o |
  1
,7:33 {rn {rn {rn {ml {mj |
  1
3*2/ {rn {rn {mk {o |
  1
Z1;r09r^ \VLr;>+> 
1001
ACAD_OBJECT_CHANGE_GUID
1070
     1
1071
1909517763
1070
   913
1070
 18773
1070
   130
1070
   124
1070
    57
1070
   119
1070
   226
1070
     1
1070
   147
1070
   242
  0
HATCH
  5
90
330
1F
100
AcDbEntity
  8
TOP_PASTE
 62
     8
100
AcDbHatch
 10
0.0
 20
0.0
 30
0.0
210
0.0
220
0.0
230
1.0
  2
SOLID
 70
     1
 71
     1
 91
        1
 92
        1
 93
        4
 72
     1
 10
12.3984004
 20
10.329799
 11
12.0936004
 21
10.329799
 72
     1
 10
12.0936004
 20
10.329799
 11
12.0936004
 21
11.142599
 72
     1
 10
12.0936004
 20
11.142599
 11
12.3984004
 21
11.142599
 72
     1
 10
12.3984004
 20
11.142599
 11
12.3984004
 21
10.329799
 97
        1
330
8F
 75
     0
 76
     1
 98
        0
  0
REGION
  5
91
102
{ACAD_REACTORS
330
92
102
}
330
1F
100
AcDbEntity
  8
TOP_PASTE
 62
     8
100
AcDbModelerGeometry
 70
     1
  1
noi mi n o 
  1
=0;& {rn {mj {rn {rn |
  1
/061+ {rn nnqgfokoolffffffff noqlmfhff o |
  1
):-+:' {rn {nf {n |
  1
/061+ {rn nnqjgjioolffffffff noqlmfhff o |
  1
):-+:' {rn {nl {l |
  1
/061+ {rn nnqjgjioolffffffff nnqnkmjfgfffffffff o |
  1
):-+:' {rn {ni {j |
  1
/061+ {rn nnqgfokoolffffffff nnqnkmjfgfffffffff o |
  1
):-+:' {rn {nf {h |
  1
,+->687+r<*-): {rn nnqgfokoolffffffff noqlmfhff o roqlokgooooooooooong o o o o |
  1
:;8: {rn {m {k {nn {f o |
  1
<0:;8: {rn {nk {mo {rn {no o {mn {rn |
  1
,+->687+r<*-): {rn nnqjgjioolffffffff noqlmfhff o o oqgnmhfffffffffffl o o o |
  1
:;8: {rn {k {i {nk {nm o |
  1
<0:;8: {rn {nh {nn {rn {nl o {mn {rn |
  1
,+->687+r<*-): {rn nnqjgjioolffffffff nnqnkmjfgfffffffff o oqlokgooooooooooong o o o o |
  1
:;8: {rn {i {g {nh {nj o |
  1
<0:;8: {rn {mo {nk {rn {ni o {mn {rn |
  1
,+->687+r<*-): {rn nnqgfokoolffffffff nnqnkmjfgfffffffff o o roqgnmhfffffffffffl o o o |
  1
:;8: {rn {g {m {mo {ng o |
  1
<0:;8: {rn {nn {nh {rn {nf o {mn {rn |
  1
300/ {rn {rn {nn {ml |
  1
/3>1:r,*-9><: {rn nnqhlgooolffffffff noqhlinfgfffffffff o o o rn n o o o o o o o |
  1
9><: {rn {rn {mn {mk {rn {mm o n o |
  1
,7:33 {rn {rn {rn {ml {mj |
  1
3*2/ {rn {rn {mk {o |
  1
Z1;r09r^ \VLr;>+> 
1001
ACAD_OBJECT_CHANGE_GUID
1070
     1
1071
2125299354
1070
-26351
1070
 20103
1070
   182
1070
   219
1070
    33
1070
   165
1070
    27
1070
   231
1070
   217
1070
   197
  0
HATCH
  5
92
330
1F
100
AcDbEntity
  8
TOP_PASTE
 62
     8
100
AcDbHatch
 10
0.0
 20
0.0
 30
0.0
210
0.0
220
0.0
230
1.0
  2
SOLID
 70
     1
 71
     1
 91
        1
 92
        1
 93
        4
 72
     1
 10
11.8904004
 20
10.329799
 11
11.5856004
 21
10.329799
 72
     1
 10
11.5856004
 20
10.329799
 11
11.5856004
 21
11.142599
 72
     1
 10
11.5856004
 20
11.142599
 11
11.8904004
 21
11.142599
 72
     1
 10
11.8904004
 20
11.142599
 11
11.8904004
 21
10.329799
 97
        1
330
91
 75
     0
 76
     1
 98
        0
  0
REGION
  5
93
102
{ACAD_REACTORS
330
94
102
}
330
1F
100
AcDbEntity
  8
TOP_PASTE
 62
     8
100
AcDbModelerGeometry
 70
     1
  1
noi mi n o 
  1
=0;& {rn {mj {rn {rn |
  1
/061+ {rn nnqkohgoolffffffff noqlmfhff o |
  1
):-+:' {rn {nf {n |
  1
/061+ {rn nnqnolooolffffffff noqlmfhff o |
  1
):-+:' {rn {nl {l |
  1
/061+ {rn nnqnolooolffffffff nnqnkmjfgfffffffff o |
  1
):-+:' {rn {ni {j |
  1
/061+ {rn nnqkohgoolffffffff nnqnkmjfgfffffffff o |
  1
):-+:' {rn {nf {h |
  1
,+->687+r<*-): {rn nnqkohgoolffffffff noqlmfhff o roqlokgooooooooooong o o o o |
  1
:;8: {rn {m {k {nn {f o |
  1
<0:;8: {rn {nk {mo {rn {no o {mn {rn |
  1
,+->687+r<*-): {rn nnqnolooolffffffff noqlmfhff o o oqgnmhfffffffffffl o o o |
  1
:;8: {rn {k {i {nk {nm o |
  1
<0:;8: {rn {nh {nn {rn {nl o {mn {rn |
  1
,+->687+r<*-): {rn nnqnolooolffffffff nnqnkmjfgfffffffff o oqlokgooooooooooong o o o o |
  1
:;8: {rn {i {g {nh {nj o |
  1
<0:;8: {rn {mo {nk {rn {ni o {mn {rn |
  1
,+->687+r<*-): {rn nnqkohgoolffffffff nnqnkmjfgfffffffff o o roqgnmhfffffffffffl o o o |
  1
:;8: {rn {g {m {mo {ng o |
  1
<0:;8: {rn {nn {nh {rn {nf o {mn {rn |
  1
300/ {rn {rn {nn {ml |
  1
/3>1:r,*-9><: {rn nnqmjjkoolffffffff noqhlinfgfffffffff o o o rn n o o o o o o o |
  1
9><: {rn {rn {mn {mk {rn {mm o n o |
  1
,7:33 {rn {rn {rn {ml {mj |
  1
3*2/ {rn {rn {mk {o |
  1
Z1;r09r^ \VLr;>+> 
1001
ACAD_OBJECT_CHANGE_GUID
1070
     1
1071
1725902574
1070
-24190
1070
 18539
1070
   147
1070
   136
1070
    61
1070
   254
1070
   157
1070
   189
1070
   192
1070
   162
  0
HATCH
  5
94
330
1F
100
AcDbEntity
  8
TOP_PASTE
 62
     8
100
AcDbHatch
 10
0.0
 20
0.0
 30
0.0
210
0.0
220
0.0
230
1.0
  2
SOLID
 70
     1
 71
     1
 91
        1
 92
        1
 93
        4
 72
     1
 10
11.4078004
 20
10.329799
 11
11.1030004
 21
10.329799
 72
     1
 10
11.1030004
 20
10.329799
 11
11.1030004
 21
11.142599
 72
     1
 10
11.1030004
 20
11.142599
 11
11.4078004
 21
11.142599
 72
     1
 10
11.4078004
 20
11.142599
 11
11.4078004
 21
10.329799
 97
        1
330
93
 75
     0
 76
     1
 98
        0
  0
REGION
  5
95
102
{ACAD_REACTORS
330
96
102
}
330
1F
100
AcDbEntity
  8
TOP_PASTE
 62
     8
100
AcDbModelerGeometry
 70
     1
  1
noi mi n o 
  1
=0;& {rn {mj {rn {rn |
  1
/061+ {rn noqgffgook noqlmfhff o |
  1
):-+:' {rn {nf {n |
  1
/061+ {rn noqjfjoook noqlmfhff o |
  1
):-+:' {rn {nl {l |
  1
/061+ {rn noqjfjoook nnqnkmjfgfffffffff o |
  1
):-+:' {rn {ni {j |
  1
/061+ {rn noqgffgook nnqnkmjfgfffffffff o |
  1
):-+:' {rn {nf {h |
  1
,+->687+r<*-): {rn noqgffgook noqlmfhff o roqlokgooooooooooong o o o o |
  1
:;8: {rn {m {k {nn {f o |
  1
<0:;8: {rn {nk {mo {rn {no o {mn {rn |
  1
,+->687+r<*-): {rn noqjfjoook noqlmfhff o o oqgnmhfffffffffffl o o o |
  1
:;8: {rn {k {i {nk {nm o |
  1
<0:;8: {rn {nh {nn {rn {nl o {mn {rn |
  1
,+->687+r<*-): {rn noqjfjoook nnqnkmjfgfffffffff o oqlokgooooooooooong o o o o |
  1
:;8: {rn {i {g {nh {nj o |
  1
<0:;8: {rn {mo {nk {rn {ni o {mn {rn |
  1
,+->687+r<*-): {rn noqgffgook nnqnkmjfgfffffffff o o roqgnmhfffffffffffl o o o |
  1
:;8: {rn {g {m {mo {ng o |
  1
<0:;8: {rn {nn {nh {rn {nf o {mn {rn |
  1
300/ {rn {rn {nn {ml |
  1
/3>1:r,*-9><: {rn noqhkhkook noqhlinfgfffffffff o o o rn n o o o o o o o |
  1
9><: {rn {rn {mn {mk {rn {mm o n o |
  1
,7:33 {rn {rn {rn {ml {mj |
  1
3*2/ {rn {rn {mk {o |
  1
Z1;r09r^ \VLr;>+> 
1001
ACAD_OBJECT_CHANGE_GUID
1070
     1
1071
 57852974
1070
  9864
1070
 16806
1070
   131
1070
    86
1070
   160
1070
   139
1070
    88
1070
    92
1070
   235
1070
   149
  0
HATCH
  5
96
330
1F
100
AcDbEntity
  8
TOP_PASTE
 62
     8
100
AcDbHatch
 10
0.0
 20
0.0
 30
0.0
210
0.0
220
0.0
230
1.0
  2
SOLID
 70
     1
 71
     1
 91
        1
 92
        1
 93
        4
 72
     1
 10
10.8998004
 20
10.329799
 11
10.5950004
 21
10.329799
 72
     1
 10
10.5950004
 20
10.329799
 11
10.5950004
 21
11.142599
 72
     1
 10
10.5950004
 20
11.142599
 11
10.8998004
 21
11.142599
 72
     1
 10
10.8998004
 20
11.142599
 11
10.8998004
 21
10.329799
 97
        1
330
95
 75
     0
 76
     1
 98
        0
  0
REGION
  5
97
102
{ACAD_REACTORS
330
98
102
}
330
1F
100
AcDbEntity
  8
TOP_PASTE
 62
     8
100
AcDbModelerGeometry
 70
     1
  1
noi mi n o 
  1
=0;& {rn {mj {rn {rn |
  1
/061+ {rn noqkkmiook nnqjffhfgfffffffff o |
  1
):-+:' {rn {nf {n |
  1
/061+ {rn noqkkmiook nnqmfkffgfffffffff o |
  1
):-+:' {rn {nl {l |
  1
/061+ {rn fqimfgookooooooooi nnqmfkffgfffffffff o |
  1
):-+:' {rn {ni {j |
  1
/061+ {rn fqimfgookooooooooi nnqjffhfgfffffffff o |
  1
):-+:' {rn {nf {h |
  1
,+->687+r<*-): {rn noqkkmiook nnqjffhfgfffffffff o o roqlokgooooooooooong o o o |
  1
:;8: {rn {m {k {nn {f o |
  1
<0:;8: {rn {nk {mo {rn {no o {mn {rn |
  1
,+->687+r<*-): {rn noqkkmiook nnqmfkffgfffffffff o roqgnmhfffffffffffl o o o o |
  1
:;8: {rn {k {i {nk {nm o |
  1
<0:;8: {rn {nh {nn {rn {nl o {mn {rn |
  1
,+->687+r<*-): {rn fqimfgookooooooooi nnqmfkffgfffffffff o o oqlokgooooooooooong o o o |
  1
:;8: {rn {i {g {nh {nj o |
  1
<0:;8: {rn {mo {nk {rn {ni o {mn {rn |
  1
,+->687+r<*-): {rn fqimfgookooooooooi nnqjffhfgfffffffff o oqgnmhfffffffffffl o o o o |
  1
:;8: {rn {g {m {mo {ng o |
  1
<0:;8: {rn {nn {nh {rn {nf o {mn {rn |
  1
300/ {rn {rn {nn {ml |
  1
/3>1:r,*-9><: {rn noqolimook nnqkkhlfgfffffffff o o o rn rn o o o o o o o |
  1
9><: {rn {rn {mn {mk {rn {mm o n o |
  1
,7:33 {rn {rn {rn {ml {mj |
  1
3*2/ {rn {rn {mk {o |
  1
Z1;r09r^ \VLr;>+> 
1001
ACAD_OBJECT_CHANGE_GUID
1070
     1
1071
1379969329
1070
-30155
1070
 19359
1070
   184
1070
   121
1070
   197
1070
   233
1070
    52
1070
   146
1070
   240
1070
   245
  0
HATCH
  5
98
330
1F
100
AcDbEntity
  8
TOP_PASTE
 62
     8
100
AcDbHatch
 10
0.0
 20
0.0
 30
0.0
210
0.0
220
0.0
230
1.0
  2
SOLID
 70
     1
 71
     1
 91
        1
 92
        1
 93
        4
 72
     1
 10
10.4426004
 20
11.599799
 11
10.4426004
 21
11.294999
 72
     1
 10
10.4426004
 20
11.294999
 11
9.6298004
 21
11.294999
 72
     1
 10
9.6298004
 20
11.294999
 11
9.6298004
 21
11.599799
 72
     1
 10
9.6298004
 20
11.599799
 11
10.4426004
 21
11.599799
 97
        1
330
97
 75
     0
 76
     1
 98
        0
  0
REGION
  5
99
102
{ACAD_REACTORS
330
9A
102
}
330
1F
100
AcDbEntity
  8
TOP_PASTE
 62
     8
100
AcDbModelerGeometry
 70
     1
  1
noi mi n o 
  1
=0;& {rn {mj {rn {rn |
  1
/061+ {rn noqkkmiook nmqnohhff o |
  1
):-+:' {rn {nf {n |
  1
/061+ {rn noqkkmiook nnqgomfff o |
  1
):-+:' {rn {nl {l |
  1
/061+ {rn fqimfgookooooooooi nnqgomfff o |
  1
):-+:' {rn {ni {j |
  1
/061+ {rn fqimfgookooooooooi nmqnohhff o |
  1
):-+:' {rn {nf {h |
  1
,+->687+r<*-): {rn noqkkmiook nmqnohhff o o roqlokgooooooooooong o o o |
  1
:;8: {rn {m {k {nn {f o |
  1
<0:;8: {rn {nk {mo {rn {no o {mn {rn |
  1
,+->687+r<*-): {rn noqkkmiook nnqgomfff o roqgnmhfffffffffffl o o o o |
  1
:;8: {rn {k {i {nk {nm o |
  1
<0:;8: {rn {nh {nn {rn {nl o {mn {rn |
  1
,+->687+r<*-): {rn fqimfgookooooooooi nnqgomfff o o oqlokgooooooooooong o o o |
  1
:;8: {rn {i {g {nh {nj o |
  1
<0:;8: {rn {mo {nk {rn {ni o {mn {rn |
  1
,+->687+r<*-): {rn fqimfgookooooooooi nmqnohhff o oqgnmhfffffffffffl o o o o |
  1
:;8: {rn {g {m {mo {ng o |
  1
<0:;8: {rn {nn {nh {rn {nf o {mn {rn |
  1
300/ {rn {rn {nn {ml |
  1
/3>1:r,*-9><: {rn noqolimook nnqfjjlff o o o rn rn o o o o o o o |
  1
9><: {rn {rn {mn {mk {rn {mm o n o |
  1
,7:33 {rn {rn {rn {ml {mj |
  1
3*2/ {rn {rn {mk {o |
  1
Z1;r09r^ \VLr;>+> 
1001
ACAD_OBJECT_CHANGE_GUID
1070
     1
1071
1675712374
1070
 -7448
1070
 19458
1070
   157
1070
   101
1070
   114
1070
   172
1070
   241
1070
   129
1070
   205
1070
    14
  0
HATCH
  5
9A
330
1F
100
AcDbEntity
  8
TOP_PASTE
 62
     8
100
AcDbHatch
 10
0.0
 20
0.0
 30
0.0
210
0.0
220
0.0
230
1.0
  2
SOLID
 70
     1
 71
     1
 91
        1
 92
        1
 93
        4
 72
     1
 10
10.4426004
 20
12.107799
 11
10.4426004
 21
11.802999
 72
     1
 10
10.4426004
 20
11.802999
 11
9.6298004
 21
11.802999
 72
     1
 10
9.6298004
 20
11.802999
 11
9.6298004
 21
12.107799
 72
     1
 10
9.6298004
 20
12.107799
 11
10.4426004
 21
12.107799
 97
        1
330
99
 75
     0
 76
     1
 98
        0
  0
REGION
  5
9B
102
{ACAD_REACTORS
330
9C
102
}
330
1F
100
AcDbEntity
  8
TOP_PASTE
 62
     8
100
AcDbModelerGeometry
 70
     1
  1
noi mi n o 
  1
=0;& {rn {mj {rn {rn |
  1
/061+ {rn noqkkmiook nmqjfolff o |
  1
):-+:' {rn {nf {n |
  1
/061+ {rn noqkkmiook nmqmgjjfgfffffffff o |
  1
):-+:' {rn {nl {l |
  1
/061+ {rn fqimfgookooooooooi nmqmgjjfgfffffffff o |
  1
):-+:' {rn {ni {j |
  1
/061+ {rn fqimfgookooooooooi nmqjfolff o |
  1
):-+:' {rn {nf {h |
  1
,+->687+r<*-): {rn noqkkmiook nmqjfolff o o roqlokgooooooooooong o o o |
  1
:;8: {rn {m {k {nn {f o |
  1
<0:;8: {rn {nk {mo {rn {no o {mn {rn |
  1
,+->687+r<*-): {rn noqkkmiook nmqmgjjfgfffffffff o roqgnmhfffffffffffl o o o o |
  1
:;8: {rn {k {i {nk {nm o |
  1
<0:;8: {rn {nh {nn {rn {nl o {mn {rn |
  1
,+->687+r<*-): {rn fqimfgookooooooooi nmqmgjjfgfffffffff o o oqlokgooooooooooong o o o |
  1
:;8: {rn {i {g {nh {nj o |
  1
<0:;8: {rn {mo {nk {rn {ni o {mn {rn |
  1
,+->687+r<*-): {rn fqimfgookooooooooi nmqjfolff o oqgnmhfffffffffffl o o o o |
  1
:;8: {rn {g {m {mo {ng o |
  1
<0:;8: {rn {nn {nh {rn {nf o {mn {rn |
  1
300/ {rn {rn {nn {ml |
  1
/3>1:r,*-9><: {rn noqolimook nmqklhfff o o o rn rn o o o o o o o |
  1
9><: {rn {rn {mn {mk {rn {mm o n o |
  1
,7:33 {rn {rn {rn {ml {mj |
  1
3*2/ {rn {rn {mk {o |
  1
Z1;r09r^ \VLr;>+> 
1001
ACAD_OBJECT_CHANGE_GUID
1070
     1
1071
-277068867
1070
-30885
1070
 16828
1070
   188
1070
   158
1070
   155
1070
    47
1070
   186
1070
   158
1070
   192
1070
   180
  0
HATCH
  5
9C
330
1F
100
AcDbEntity
  8
TOP_PASTE
 62
     8
100
AcDbHatch
 10
0.0
 20
0.0
 30
0.0
210
0.0
220
0.0
230
1.0
  2
SOLID
 70
     1
 71
     1
 91
        1
 92
        1
 93
        4
 72
     1
 10
10.4426004
 20
12.590399
 11
10.4426004
 21
12.285599
 72
     1
 10
10.4426004
 20
12.285599
 11
9.6298004
 21
12.285599
 72
     1
 10
9.6298004
 20
12.285599
 11
9.6298004
 21
12.590399
 72
     1
 10
9.6298004
 20
12.590399
 11
10.4426004
 21
12.590399
 97
        1
330
9B
 75
     0
 76
     1
 98
        0
  0
REGION
  5
9D
102
{ACAD_REACTORS
330
9E
102
}
330
1F
100
AcDbEntity
  8
TOP_PASTE
 62
     8
100
AcDbModelerGeometry
 70
     1
  1
noi mi n o 
  1
=0;& {rn {mj {rn {rn |
  1
/061+ {rn noqkkmiook nlqofglfgfffffffff o |
  1
):-+:' {rn {nf {n |
  1
/061+ {rn noqkkmiook nmqhfljff o |
  1
):-+:' {rn {nl {l |
  1
/061+ {rn fqimfgookooooooooi nmqhfljff o |
  1
):-+:' {rn {ni {j |
  1
/061+ {rn fqimfgookooooooooi nlqofglfgfffffffff o |
  1
):-+:' {rn {nf {h |
  1
,+->687+r<*-): {rn noqkkmiook nlqofglfgfffffffff o o roqlokhffffffffffgkn o o o |
  1
:;8: {rn {m {k {nn {f o |
  1
<0:;8: {rn {nk {mo {rn {no o {mn {rn |
  1
,+->687+r<*-): {rn noqkkmiook nmqhfljff o roqgnmhfffffffffffl o o o o |
  1
:;8: {rn {k {i {nk {nm o |
  1
<0:;8: {rn {nh {nn {rn {nl o {mn {rn |
  1
,+->687+r<*-): {rn fqimfgookooooooooi nmqhfljff o o oqlokhffffffffffgkn o o o |
  1
:;8: {rn {i {g {nh {nj o |
  1
<0:;8: {rn {mo {nk {rn {ni o {mn {rn |
  1
,+->687+r<*-): {rn fqimfgookooooooooi nlqofglfgfffffffff o oqgnmhfffffffffffl o o o o |
  1
:;8: {rn {g {m {mo {ng o |
  1
<0:;8: {rn {nn {nh {rn {nf o {mn {rn |
  1
300/ {rn {rn {nn {ml |
  1
/3>1:r,*-9><: {rn noqolimook nmqfkjfff o o o rn rn o o o o o o o |
  1
9><: {rn {rn {mn {mk {rn {mm o n o |
  1
,7:33 {rn {rn {rn {ml {mj |
  1
3*2/ {rn {rn {mk {o |
  1
Z1;r09r^ \VLr;>+> 
1001
ACAD_OBJECT_CHANGE_GUID
1070
     1
1071
607202593
1070
 19764
1070
 17240
1070
   140
1070
   201
1070
   208
1070
    98
1070
    58
1070
    81
1070
    63
1070
   169
  0
HATCH
  5
9E
330
1F
100
AcDbEntity
  8
TOP_PASTE
 62
     8
100
AcDbHatch
 10
0.0
 20
0.0
 30
0.0
210
0.0
220
0.0
230
1.0
  2
SOLID
 70
     1
 71
     1
 91
        1
 92
        1
 93
        4
 72
     1
 10
10.4426004
 20
13.098399
 11
10.4426004
 21
12.793599
 72
     1
 10
10.4426004
 20
12.793599
 11
9.6298004
 21
12.793599
 72
     1
 10
9.6298004
 20
12.793599
 11
9.6298004
 21
13.098399
 72
     1
 10
9.6298004
 20
13.098399
 11
10.4426004
 21
13.098399
 97
        1
330
9D
 75
     0
 76
     1
 98
        0
  0
REGION
  5
9F
102
{ACAD_REACTORS
330
A0
102
}
330
1F
100
AcDbEntity
  8
TOP_PASTE
 62
     8
100
AcDbModelerGeometry
 70
     1
  1
noi mi n o 
  1
=0;& {rn {mj {rn {rn |
  1
/061+ {rn noqkkmiook nlqioilfgffffffffg o |
  1
):-+:' {rn {nf {n |
  1
/061+ {rn noqkkmiook nlqlonjfgffffffffg o |
  1
):-+:' {rn {nl {l |
  1
/061+ {rn fqimfgookooooooooi nlqlonjfgffffffffg o |
  1
):-+:' {rn {ni {j |
  1
/061+ {rn fqimfgookooooooooi nlqioilfgffffffffg o |
  1
):-+:' {rn {nf {h |
  1
,+->687+r<*-): {rn noqkkmiook nlqioilfgffffffffg o o roqlokgooooooooooong o o o |
  1
:;8: {rn {m {k {nn {f o |
  1
<0:;8: {rn {nk {mo {rn {no o {mn {rn |
  1
,+->687+r<*-): {rn noqkkmiook nlqlonjfgffffffffg o roqgnmhfffffffffffl o o o o |
  1
:;8: {rn {k {i {nk {nm o |
  1
<0:;8: {rn {nh {nn {rn {nl o {mn {rn |
  1
,+->687+r<*-): {rn fqimfgookooooooooi nlqlonjfgffffffffg o o oqlokgooooooooooong o o o |
  1
:;8: {rn {i {g {nh {nj o |
  1
<0:;8: {rn {mo {nk {rn {ni o {mn {rn |
  1
,+->687+r<*-): {rn fqimfgookooooooooi nlqioilfgffffffffg o oqgnmhfffffffffffl o o o o |
  1
:;8: {rn {g {m {mo {ng o |
  1
<0:;8: {rn {nn {nh {rn {nf o {mn {rn |
  1
300/ {rn {rn {nn {ml |
  1
/3>1:r,*-9><: {rn noqolimook nlqkjlffgffffffffg o o o rn rn o o o o o o o |
  1
9><: {rn {rn {mn {mk {rn {mm o n o |
  1
,7:33 {rn {rn {rn {ml {mj |
  1
3*2/ {rn {rn {mk {o |
  1
Z1;r09r^ \VLr;>+> 
1001
ACAD_OBJECT_CHANGE_GUID
1070
     1
1071
-442352349
1070
-31358
1070
 17236
1070
   179
1070
   204
1070
   154
1070
   113
1070
    16
1070
    19
1070
   197
1070
   185
  0
HATCH
  5
A0
330
1F
100
AcDbEntity
  8
TOP_PASTE
 62
     8
100
AcDbHatch
 10
0.0
 20
0.0
 30
0.0
210
0.0
220
0.0
230
1.0
  2
SOLID
 70
     1
 71
     1
 91
        1
 92
        1
 93
        4
 72
     1
 10
10.4426004
 20
13.606399
 11
10.4426004
 21
13.301599
 72
     1
 10
10.4426004
 20
13.301599
 11
9.6298004
 21
13.301599
 72
     1
 10
9.6298004
 20
13.301599
 11
9.6298004
 21
13.606399
 72
     1
 10
9.6298004
 20
13.606399
 11
10.4426004
 21
13.606399
 97
        1
330
9F
 75
     0
 76
     1
 98
        0
  0
REGION
  5
A1
102
{ACAD_REACTORS
330
A2
102
}
330
1F
100
AcDbEntity
  8
TOP_PASTE
 62
     8
100
AcDbModelerGeometry
 70
     1
  1
noi mi n o 
  1
=0;& {rn {mj {rn {rn |
  1
/061+ {rn noqkkmiook nkqnnklfgfffffffff o |
  1
):-+:' {rn {nf {n |
  1
/061+ {rn noqkkmiook nlqgofjfgfffffffff o |
  1
):-+:' {rn {nl {l |
  1
/061+ {rn fqimfgookooooooooi nlqgofjfgfffffffff o |
  1
):-+:' {rn {ni {j |
  1
/061+ {rn fqimfgookooooooooi nkqnnklfgfffffffff o |
  1
):-+:' {rn {nf {h |
  1
,+->687+r<*-): {rn noqkkmiook nkqnnklfgfffffffff o o roqlokgooooooooooong o o o |
  1
:;8: {rn {m {k {nn {f o |
  1
<0:;8: {rn {nk {mo {rn {no o {mn {rn |
  1
,+->687+r<*-): {rn noqkkmiook nlqgofjfgfffffffff o roqgnmhfffffffffffl o o o o |
  1
:;8: {rn {k {i {nk {nm o |
  1
<0:;8: {rn {nh {nn {rn {nl o {mn {rn |
  1
,+->687+r<*-): {rn fqimfgookooooooooi nlqgofjfgfffffffff o o oqlokgooooooooooong o o o |
  1
:;8: {rn {i {g {nh {nj o |
  1
<0:;8: {rn {mo {nk {rn {ni o {mn {rn |
  1
,+->687+r<*-): {rn fqimfgookooooooooi nkqnnklfgfffffffff o oqgnmhfffffffffffl o o o o |
  1
:;8: {rn {g {m {mo {ng o |
  1
<0:;8: {rn {nn {nh {rn {nf o {mn {rn |
  1
300/ {rn {rn {nn {ml |
  1
/3>1:r,*-9><: {rn noqolimook nlqfinffgfffffffff o o o rn rn o o o o o o o |
  1
9><: {rn {rn {mn {mk {rn {mm o n o |
  1
,7:33 {rn {rn {rn {ml {mj |
  1
3*2/ {rn {rn {mk {o |
  1
Z1;r09r^ \VLr;>+> 
1001
ACAD_OBJECT_CHANGE_GUID
1070
     1
1071
-1382419916
1070
-25212
1070
 18336
1070
   129
1070
   163
1070
   170
1070
   225
1070
   225
1070
   170
1070
   220
1070
   222
  0
HATCH
  5
A2
330
1F
100
AcDbEntity
  8
TOP_PASTE
 62
     8
100
AcDbHatch
 10
0.0
 20
0.0
 30
0.0
210
0.0
220
0.0
230
1.0
  2
SOLID
 70
     1
 71
     1
 91
        1
 92
        1
 93
        4
 72
     1
 10
10.4426004
 20
14.114399
 11
10.4426004
 21
13.809599
 72
     1
 10
10.4426004
 20
13.809599
 11
9.6298004
 21
13.809599
 72
     1
 10
9.6298004
 20
13.809599
 11
9.6298004
 21
14.114399
 72
     1
 10
9.6298004
 20
14.114399
 11
10.4426004
 21
14.114399
 97
        1
330
A1
 75
     0
 76
     1
 98
        0
  0
REGION
  5
A3
102
{ACAD_REACTORS
330
A4
102
}
330
1F
100
AcDbEntity
  8
TOP_PASTE
 62
     8
100
AcDbModelerGeometry
 70
     1
  1
noi mi n o 
  1
=0;& {rn {mj {rn {rn |
  1
/061+ {rn noqkkmiook nkqjfiffgfffffffff o |
  1
):-+:' {rn {nf {n |
  1
/061+ {rn noqkkmiook nkqmfmnfgffffffffg o |
  1
):-+:' {rn {nl {l |
  1
/061+ {rn fqimfgookooooooooi nkqmfmnfgffffffffg o |
  1
):-+:' {rn {ni {j |
  1
/061+ {rn fqimfgookooooooooi nkqjfiffgfffffffff o |
  1
):-+:' {rn {nf {h |
  1
,+->687+r<*-): {rn noqkkmiook nkqjfiffgfffffffff o o roqlokgooooooooooong o o o |
  1
:;8: {rn {m {k {nn {f o |
  1
<0:;8: {rn {nk {mo {rn {no o {mn {rn |
  1
,+->687+r<*-): {rn noqkkmiook nkqmfmnfgffffffffg o roqgnmhfffffffffffl o o o o |
  1
:;8: {rn {k {i {nk {nm o |
  1
<0:;8: {rn {nh {nn {rn {nl o {mn {rn |
  1
,+->687+r<*-): {rn fqimfgookooooooooi nkqmfmnfgffffffffg o o oqlokgooooooooooong o o o |
  1
:;8: {rn {i {g {nh {nj o |
  1
<0:;8: {rn {mo {nk {rn {ni o {mn {rn |
  1
,+->687+r<*-): {rn fqimfgookooooooooi nkqjfiffgfffffffff o oqgnmhfffffffffffl o o o o |
  1
:;8: {rn {g {m {mo {ng o |
  1
<0:;8: {rn {nn {nh {rn {nf o {mn {rn |
  1
300/ {rn {rn {nn {ml |
  1
/3>1:r,*-9><: {rn noqolimook nkqkkkjfgffffffffg o o o rn rn o o o o o o o |
  1
9><: {rn {rn {mn {mk {rn {mm o n o |
  1
,7:33 {rn {rn {rn {ml {mj |
  1
3*2/ {rn {rn {mk {o |
  1
Z1;r09r^ \VLr;>+> 
1001
ACAD_OBJECT_CHANGE_GUID
1070
     1
1071
-1521921540
1070
-14507
1070
 16914
1070
   186
1070
   121
1070
    93
1070
   182
1070
   253
1070
   236
1070
     2
1070
   207
  0
HATCH
  5
A4
330
1F
100
AcDbEntity
  8
TOP_PASTE
 62
     8
100
AcDbHatch
 10
0.0
 20
0.0
 30
0.0
210
0.0
220
0.0
230
1.0
  2
SOLID
 70
     1
 71
     1
 91
        1
 92
        1
 93
        4
 72
     1
 10
10.4426004
 20
14.596999
 11
10.4426004
 21
14.292199
 72
     1
 10
10.4426004
 20
14.292199
 11
9.6298004
 21
14.292199
 72
     1
 10
9.6298004
 20
14.292199
 11
9.6298004
 21
14.596999
 72
     1
 10
9.6298004
 20
14.596999
 11
10.4426004
 21
14.596999
 97
        1
330
A3
 75
     0
 76
     1
 98
        0
  0
REGION
  5
A5
102
{ACAD_REACTORS
330
A6
102
}
330
1F
100
AcDbEntity
  8
TOP_PASTE
 62
     8
100
AcDbModelerGeometry
 70
     1
  1
noi mi n o 
  1
=0;& {rn {mj {rn {rn |
  1
/061+ {rn noqkkmiook njqnokffgfffffffff o |
  1
):-+:' {rn {nf {n |
  1
/061+ {rn noqkkmiook nkqgoonfgfffffffff o |
  1
):-+:' {rn {nl {l |
  1
/061+ {rn fqimfgookooooooooi nkqgoonfgfffffffff o |
  1
):-+:' {rn {ni {j |
  1
/061+ {rn fqimfgookooooooooi njqnokffgfffffffff o |
  1
):-+:' {rn {nf {h |
  1
,+->687+r<*-): {rn noqkkmiook njqnokffgfffffffff o o roqlokgooooooooooong o o o |
  1
:;8: {rn {m {k {nn {f o |
  1
<0:;8: {rn {nk {mo {rn {no o {mn {rn |
  1
,+->687+r<*-): {rn noqkkmiook nkqgoonfgfffffffff o roqgnmhfffffffffffl o o o o |
  1
:;8: {rn {k {i {nk {nm o |
  1
<0:;8: {rn {nh {nn {rn {nl o {mn {rn |
  1
,+->687+r<*-): {rn fqimfgookooooooooi nkqgoonfgfffffffff o o oqlokgooooooooooong o o o |
  1
:;8: {rn {i {g {nh {nj o |
  1
<0:;8: {rn {mo {nk {rn {ni o {mn {rn |
  1
,+->687+r<*-): {rn fqimfgookooooooooi njqnokffgfffffffff o oqgnmhfffffffffffl o o o o |
  1
:;8: {rn {g {m {mo {ng o |
  1
<0:;8: {rn {nn {nh {rn {nf o {mn {rn |
  1
300/ {rn {rn {nn {ml |
  1
/3>1:r,*-9><: {rn noqolimook nkqfjmjfgfffffffff o o o rn rn o o o o o o o |
  1
9><: {rn {rn {mn {mk {rn {mm o n o |
  1
,7:33 {rn {rn {rn {ml {mj |
  1
3*2/ {rn {rn {mk {o |
  1
Z1;r09r^ \VLr;>+> 
1001
ACAD_OBJECT_CHANGE_GUID
1070
     1
1071
2083971018
1070
-30413
1070
 17617
1070
   171
1070
    27
1070
    33
1070
     2
1070
   164
1070
   208
1070
    15
1070
   129
  0
HATCH
  5
A6
330
1F
100
AcDbEntity
  8
TOP_PASTE
 62
     8
100
AcDbHatch
 10
0.0
 20
0.0
 30
0.0
210
0.0
220
0.0
230
1.0
  2
SOLID
 70
     1
 71
     1
 91
        1
 92
        1
 93
        4
 72
     1
 10
10.4426004
 20
15.104999
 11
10.4426004
 21
14.800199
 72
     1
 10
10.4426004
 20
14.800199
 11
9.6298004
 21
14.800199
 72
     1
 10
9.6298004
 20
14.800199
 11
9.6298004
 21
15.104999
 72
     1
 10
9.6298004
 20
15.104999
 11
10.4426004
 21
15.104999
 97
        1
330
A5
 75
     0
 76
     1
 98
        0
  0
REGION
  5
A7
102
{ACAD_REACTORS
330
A8
102
}
330
1F
100
AcDbEntity
  8
TOP_PASTE
 62
     8
100
AcDbModelerGeometry
 70
     1
  1
noi mi n o 
  1
=0;& {rn {mj {rn {rn |
  1
/061+ {rn gqnmigonnnfffffffh lqgmglooiffffffffg o |
  1
):-+:' {rn {nf {n |
  1
/061+ {rn iqnkjionnnfffffffk lqgmglooiffffffffg o |
  1
):-+:' {rn {nl {l |
  1
/061+ {rn iqnkjionnnfffffffk kqlinhoohoooooooon o |
  1
):-+:' {rn {ni {j |
  1
/061+ {rn gqnmigonnnfffffffh kqlinhoohoooooooon o |
  1
):-+:' {rn {nf {h |
  1
,+->687+r<*-): {rn gqnmigonnnfffffffh lqgmglooiffffffffg o rnqfgnmoooooooooool o o o o |
  1
:;8: {rn {m {k {nn {f o |
  1
<0:;8: {rn {nk {mo {rn {no o {mn {rn |
  1
,+->687+r<*-): {rn iqnkjionnnfffffffk lqgmglooiffffffffg o o oqjllkooooooooooolm o o o |
  1
:;8: {rn {k {i {nk {nm o |
  1
<0:;8: {rn {nh {nn {rn {nl o {mn {rn |
  1
,+->687+r<*-): {rn iqnkjionnnfffffffk kqlinhoohoooooooon o nqfgnmoooooooooool o o o o |
  1
:;8: {rn {i {g {nh {nj o |
  1
<0:;8: {rn {mo {nk {rn {ni o {mn {rn |
  1
,+->687+r<*-): {rn gqnmigonnnfffffffh kqlinhoohoooooooon o o roqjllkooooooooooolm o o o |
  1
:;8: {rn {g {m {mo {ng o |
  1
<0:;8: {rn {nn {nh {rn {nf o {mn {rn |
  1
300/ {rn {rn {nn {ml |
  1
/3>1:r,*-9><: {rn hqnlimonnnfffffffn lqgmglooiffffffffg o o o rn n o o o o o o o |
  1
9><: {rn {rn {mn {mk {rn {mm o n o |
  1
,7:33 {rn {rn {rn {ml {mj |
  1
3*2/ {rn {rn {mk {o |
  1
Z1;r09r^ \VLr;>+> 
1001
ACAD_OBJECT_CHANGE_GUID
1070
     1
1071
696357155
1070
 26338
1070
 19347
1070
   154
1070
    53
1070
    58
1070
    58
1070
    17
1070
   133
1070
   141
1070
   187
  0
HATCH
  5
A8
330
1F
100
AcDbEntity
  8
TOP_PASTE
 62
     8
100
AcDbHatch
 10
0.0
 20
0.0
 30
0.0
210
0.0
220
0.0
230
1.0
  2
SOLID
 70
     1
 71
     1
 91
        1
 92
        1
 93
        4
 72
     1
 10
8.12680112
 20
3.8283007
 11
6.145601119999999
 21
3.8283007
 72
     1
 10
6.145601119999999
 20
3.8283007
 11
6.145601119999999
 21
4.3617007
 72
     1
 10
6.145601119999999
 20
4.3617007
 11
8.12680112
 21
4.3617007
 72
     1
 10
8.12680112
 20
4.3617007
 11
8.12680112
 21
3.8283007
 97
        1
330
A7
 75
     0
 76
     1
 98
        0
  0
REGION
  5
A9
102
{ACAD_REACTORS
330
AA
102
}
330
1F
100
AcDbEntity
  8
TOP_PASTE
 62
     8
100
AcDbModelerGeometry
 70
     1
  1
noi mi n o 
  1
=0;& {rn {mj {rn {rn |
  1
/061+ {rn gqnmigonnnfffffffh jqofglooiffffffffk o |
  1
):-+:' {rn {nf {n |
  1
/061+ {rn iqnkjionnnfffffffk jqofglooiffffffffk o |
  1
):-+:' {rn {nl {l |
  1
/061+ {rn iqnkjionnnfffffffk jqilnhooiffffffffh o |
  1
):-+:' {rn {ni {j |
  1
/061+ {rn gqnmigonnnfffffffh jqilnhooiffffffffh o |
  1
):-+:' {rn {nf {h |
  1
,+->687+r<*-): {rn gqnmigonnnfffffffh jqofglooiffffffffk o rnqfgnmoooooooooool o o o o |
  1
:;8: {rn {m {k {nn {f o |
  1
<0:;8: {rn {nk {mo {rn {no o {mn {rn |
  1
,+->687+r<*-): {rn iqnkjionnnfffffffk jqofglooiffffffffk o o oqjllkooooooooooolm o o o |
  1
:;8: {rn {k {i {nk {nm o |
  1
<0:;8: {rn {nh {nn {rn {nl o {mn {rn |
  1
,+->687+r<*-): {rn iqnkjionnnfffffffk jqilnhooiffffffffh o nqfgnmoooooooooool o o o o |
  1
:;8: {rn {i {g {nh {nj o |
  1
<0:;8: {rn {mo {nk {rn {ni o {mn {rn |
  1
,+->687+r<*-): {rn gqnmigonnnfffffffh jqilnhooiffffffffh o o roqjllkooooooooooolm o o o |
  1
:;8: {rn {g {m {mo {ng o |
  1
<0:;8: {rn {nn {nh {rn {nf o {mn {rn |
  1
300/ {rn {rn {nn {ml |
  1
/3>1:r,*-9><: {rn hqnlimonnnfffffffn jqofglooiffffffffk o o o rn n o o o o o o o |
  1
9><: {rn {rn {mn {mk {rn {mm o n o |
  1
,7:33 {rn {rn {rn {ml {mj |
  1
3*2/ {rn {rn {mk {o |
  1
Z1;r09r^ \VLr;>+> 
1001
ACAD_OBJECT_CHANGE_GUID
1070
     1
1071
361398202
1070
   438
1070
 19003
1070
   150
1070
   116
1070
   199
1070
    79
1070
    19
1070
    97
1070
     5
1070
   104
  0
HATCH
  5
AA
330
1F
100
AcDbEntity
  8
TOP_PASTE
 62
     8
100
AcDbHatch
 10
0.0
 20
0.0
 30
0.0
210
0.0
220
0.0
230
1.0
  2
SOLID
 70
     1
 71
     1
 91
        1
 92
        1
 93
        4
 72
     1
 10
8.12680112
 20
5.098300699999999
 11
6.145601119999999
 21
5.098300699999999
 72
     1
 10
6.145601119999999
 20
5.098300699999999
 11
6.145601119999999
 21
5.6317007
 72
     1
 10
6.145601119999999
 20
5.6317007
 11
8.12680112
 21
5.6317007
 72
     1
 10
8.12680112
 20
5.6317007
 11
8.12680112
 21
5.098300699999999
 97
        1
330
A9
 75
     0
 76
     1
 98
        0
  0
REGION
  5
AB
102
{ACAD_REACTORS
330
AC
102
}
330
1F
100
AcDbEntity
  8
TOP_PASTE
 62
     8
100
AcDbModelerGeometry
 70
     1
  1
noi mi n o 
  1
=0;& {rn {mj {rn {rn |
  1
/061+ {rn gqnmigonnnfffffffh iqliglooiffffffffg o |
  1
):-+:' {rn {nf {n |
  1
/061+ {rn iqnkjionnnfffffffk iqliglooiffffffffg o |
  1
):-+:' {rn {nl {l |
  1
/061+ {rn iqnkjionnnfffffffk iqfonhooiffffffffm o |
  1
):-+:' {rn {ni {j |
  1
/061+ {rn gqnmigonnnfffffffh iqfonhooiffffffffm o |
  1
):-+:' {rn {nf {h |
  1
,+->687+r<*-): {rn gqnmigonnnfffffffh iqliglooiffffffffg o rnqfgnmoooooooooool o o o o |
  1
:;8: {rn {m {k {nn {f o |
  1
<0:;8: {rn {nk {mo {rn {no o {mn {rn |
  1
,+->687+r<*-): {rn iqnkjionnnfffffffk iqliglooiffffffffg o o oqjlllfffffffffffkl o o o |
  1
:;8: {rn {k {i {nk {nm o |
  1
<0:;8: {rn {nh {nn {rn {nl o {mn {rn |
  1
,+->687+r<*-): {rn iqnkjionnnfffffffk iqfonhooiffffffffm o nqfgnmoooooooooool o o o o |
  1
:;8: {rn {i {g {nh {nj o |
  1
<0:;8: {rn {mo {nk {rn {ni o {mn {rn |
  1
,+->687+r<*-): {rn gqnmigonnnfffffffh iqfonhooiffffffffm o o roqjlllfffffffffffkl o o o |
  1
:;8: {rn {g {m {mo {ng o |
  1
<0:;8: {rn {nn {nh {rn {nf o {mn {rn |
  1
300/ {rn {rn {nn {ml |
  1
/3>1:r,*-9><: {rn hqnlimonnnfffffffn iqliglooiffffffffg o o o rn n o o o o o o o |
  1
9><: {rn {rn {mn {mk {rn {mm o n o |
  1
,7:33 {rn {rn {rn {ml {mj |
  1
3*2/ {rn {rn {mk {o |
  1
Z1;r09r^ \VLr;>+> 
1001
ACAD_OBJECT_CHANGE_GUID
1070
     1
1071
-1468296757
1070
 19094
1070
 17782
1070
   191
1070
    63
1070
    88
1070
   222
1070
   121
1070
   109
1070
    94
1070
    90
  0
HATCH
  5
AC
330
1F
100
AcDbEntity
  8
TOP_PASTE
 62
     8
100
AcDbHatch
 10
0.0
 20
0.0
 30
0.0
210
0.0
220
0.0
230
1.0
  2
SOLID
 70
     1
 71
     1
 91
        1
 92
        1
 93
        4
 72
     1
 10
8.12680112
 20
6.3683007
 11
6.145601119999999
 21
6.3683007
 72
     1
 10
6.145601119999999
 20
6.3683007
 11
6.145601119999999
 21
6.901700699999999
 72
     1
 10
6.145601119999999
 20
6.901700699999999
 11
8.12680112
 21
6.901700699999999
 72
     1
 10
8.12680112
 20
6.901700699999999
 11
8.12680112
 21
6.3683007
 97
        1
330
AB
 75
     0
 76
     1
 98
        0
  0
REGION
  5
AD
102
{ACAD_REACTORS
330
AE
102
}
330
1F
100
AcDbEntity
  8
TOP_PASTE
 62
     8
100
AcDbModelerGeometry
 70
     1
  1
noi mi n o 
  1
=0;& {rn {mj {rn {rn |
  1
/061+ {rn gqnmigonnnfffffffh hqilglooiffffffffk o |
  1
):-+:' {rn {nf {n |
  1
/061+ {rn iqnkjionnnfffffffk hqilglooiffffffffk o |
  1
):-+:' {rn {nl {l |
  1
/061+ {rn iqnkjionnnfffffffk gqnhnhoohooooooooi o |
  1
):-+:' {rn {ni {j |
  1
/061+ {rn gqnmigonnnfffffffh gqnhnhoohooooooooi o |
  1
):-+:' {rn {nf {h |
  1
,+->687+r<*-): {rn gqnmigonnnfffffffh hqilglooiffffffffk o rnqfgnmoooooooooool o o o o |
  1
:;8: {rn {m {k {nn {f o |
  1
<0:;8: {rn {nk {mo {rn {no o {mn {rn |
  1
,+->687+r<*-): {rn iqnkjionnnfffffffk hqilglooiffffffffk o o oqjllkoooooooooonmn o o o |
  1
:;8: {rn {k {i {nk {nm o |
  1
<0:;8: {rn {nh {nn {rn {nl o {mn {rn |
  1
,+->687+r<*-): {rn iqnkjionnnfffffffk gqnhnhoohooooooooi o nqfgnmoooooooooool o o o o |
  1
:;8: {rn {i {g {nh {nj o |
  1
<0:;8: {rn {mo {nk {rn {ni o {mn {rn |
  1
,+->687+r<*-): {rn gqnmigonnnfffffffh gqnhnhoohooooooooi o o roqjllkoooooooooonmn o o o |
  1
:;8: {rn {g {m {mo {ng o |
  1
<0:;8: {rn {nn {nh {rn {nf o {mn {rn |
  1
300/ {rn {rn {nn {ml |
  1
/3>1:r,*-9><: {rn hqnlimonnnfffffffn hqilglooiffffffffk o o o rn n o o o o o o o |
  1
9><: {rn {rn {mn {mk {rn {mm o n o |
  1
,7:33 {rn {rn {rn {ml {mj |
  1
3*2/ {rn {rn {mk {o |
  1
Z1;r09r^ \VLr;>+> 
1001
ACAD_OBJECT_CHANGE_GUID
1070
     1
1071
612773078
1070
  1761
1070
 19512
1070
   160
1070
    94
1070
   133
1070
    48
1070
    20
1070
    21
1070
   147
1070
   146
  0
HATCH
  5
AE
330
1F
100
AcDbEntity
  8
TOP_PASTE
 62
     8
100
AcDbHatch
 10
0.0
 20
0.0
 30
0.0
210
0.0
220
0.0
230
1.0
  2
SOLID
 70
     1
 71
     1
 91
        1
 92
        1
 93
        4
 72
     1
 10
8.12680112
 20
7.638300699999999
 11
6.145601119999999
 21
7.638300699999999
 72
     1
 10
6.145601119999999
 20
7.638300699999999
 11
6.145601119999999
 21
8.1717007
 72
     1
 10
6.145601119999999
 20
8.1717007
 11
8.12680112
 21
8.1717007
 72
     1
 10
8.12680112
 20
8.1717007
 11
8.12680112
 21
7.638300699999999
 97
        1
330
AD
 75
     0
 76
     1
 98
        0
  0
REGION
  5
AF
102
{ACAD_REACTORS
330
B0
102
}
330
1F
100
AcDbEntity
  8
TOP_PASTE
 62
     8
100
AcDbModelerGeometry
 70
     1
  1
noi mi n o 
  1
=0;& {rn {mj {rn {rn |
  1
/061+ {rn nlqojkkonnm hqilglooiffffffffk o |
  1
):-+:' {rn {nf {n |
  1
/061+ {rn nnqohlmonnnffffffg hqilglooiffffffffk o |
  1
):-+:' {rn {nl {l |
  1
/061+ {rn nnqohlmonnnffffffg gqnhnhoohooooooooi o |
  1
):-+:' {rn {ni {j |
  1
/061+ {rn nlqojkkonnm gqnhnhoohooooooooi o |
  1
):-+:' {rn {nf {h |
  1
,+->687+r<*-): {rn nlqojkkonnm hqilglooiffffffffk o rnqfgnmoooooooooonm o o o o |
  1
:;8: {rn {m {k {nn {f o |
  1
<0:;8: {rn {nk {mo {rn {no o {mn {rn |
  1
,+->687+r<*-): {rn nnqohlmonnnffffffg hqilglooiffffffffk o o oqjllkoooooooooonmn o o o |
  1
:;8: {rn {k {i {nk {nm o |
  1
<0:;8: {rn {nh {nn {rn {nl o {mn {rn |
  1
,+->687+r<*-): {rn nnqohlmonnnffffffg gqnhnhoohooooooooi o nqfgnmoooooooooonm o o o o |
  1
:;8: {rn {i {g {nh {nj o |
  1
<0:;8: {rn {mo {nk {rn {ni o {mn {rn |
  1
,+->687+r<*-): {rn nlqojkkonnm gqnhnhoohooooooooi o o roqjllkoooooooooonmn o o o |
  1
:;8: {rn {g {m {mo {ng o |
  1
<0:;8: {rn {nn {nh {rn {nf o {mn {rn |
  1
300/ {rn {rn {nn {ml |
  1
/3>1:r,*-9><: {rn nmqoilgonnnfffffff hqilglooiffffffffk o o o rn n o o o o o o o |
  1
9><: {rn {rn {mn {mk {rn {mm o n o |
  1
,7:33 {rn {rn {rn {ml {mj |
  1
3*2/ {rn {rn {mk {o |
  1
Z1;r09r^ \VLr;>+> 
1001
ACAD_OBJECT_CHANGE_GUID
1070
     1
1071
-526837266
1070
  4260
1070
 19847
1070
   145
1070
   152
1070
   116
1070
   215
1070
    23
1070
    22
1070
   106
1070
    76
  0
HATCH
  5
B0
330
1F
100
AcDbEntity
  8
TOP_PASTE
 62
     8
100
AcDbHatch
 10
0.0
 20
0.0
 30
0.0
210
0.0
220
0.0
230
1.0
  2
SOLID
 70
     1
 71
     1
 91
        1
 92
        1
 93
        4
 72
     1
 10
13.05440112
 20
7.638300699999999
 11
11.07320112
 21
7.638300699999999
 72
     1
 10
11.07320112
 20
7.638300699999999
 11
11.07320112
 21
8.1717007
 72
     1
 10
11.07320112
 20
8.1717007
 11
13.05440112
 21
8.1717007
 72
     1
 10
13.05440112
 20
8.1717007
 11
13.05440112
 21
7.638300699999999
 97
        1
330
AF
 75
     0
 76
     1
 98
        0
  0
REGION
  5
B1
102
{ACAD_REACTORS
330
B2
102
}
330
1F
100
AcDbEntity
  8
TOP_PASTE
 62
     8
100
AcDbModelerGeometry
 70
     1
  1
noi mi n o 
  1
=0;& {rn {mj {rn {rn |
  1
/061+ {rn nlqojkkonnm iqliglooiffffffffg o |
  1
):-+:' {rn {nf {n |
  1
/061+ {rn nnqohlmonnnffffffg iqliglooiffffffffg o |
  1
):-+:' {rn {nl {l |
  1
/061+ {rn nnqohlmonnnffffffg iqfonhooiffffffffm o |
  1
):-+:' {rn {ni {j |
  1
/061+ {rn nlqojkkonnm iqfonhooiffffffffm o |
  1
):-+:' {rn {nf {h |
  1
,+->687+r<*-): {rn nlqojkkonnm iqliglooiffffffffg o rnqfgnmoooooooooonm o o o o |
  1
:;8: {rn {m {k {nn {f o |
  1
<0:;8: {rn {nk {mo {rn {no o {mn {rn |
  1
,+->687+r<*-): {rn nnqohlmonnnffffffg iqliglooiffffffffg o o oqjlllfffffffffffkl o o o |
  1
:;8: {rn {k {i {nk {nm o |
  1
<0:;8: {rn {nh {nn {rn {nl o {mn {rn |
  1
,+->687+r<*-): {rn nnqohlmonnnffffffg iqfonhooiffffffffm o nqfgnmoooooooooonm o o o o |
  1
:;8: {rn {i {g {nh {nj o |
  1
<0:;8: {rn {mo {nk {rn {ni o {mn {rn |
  1
,+->687+r<*-): {rn nlqojkkonnm iqfonhooiffffffffm o o roqjlllfffffffffffkl o o o |
  1
:;8: {rn {g {m {mo {ng o |
  1
<0:;8: {rn {nn {nh {rn {nf o {mn {rn |
  1
300/ {rn {rn {nn {ml |
  1
/3>1:r,*-9><: {rn nmqoilgonnnfffffff iqliglooiffffffffg o o o rn n o o o o o o o |
  1
9><: {rn {rn {mn {mk {rn {mm o n o |
  1
,7:33 {rn {rn {rn {ml {mj |
  1
3*2/ {rn {rn {mk {o |
  1
Z1;r09r^ \VLr;>+> 
1001
ACAD_OBJECT_CHANGE_GUID
1070
     1
1071
2135932366
1070
 11335
1070
 16441
1070
   159
1070
    12
1070
    84
1070
   177
1070
   215
1070
    38
1070
   240
1070
    78
  0
HATCH
  5
B2
330
1F
100
AcDbEntity
  8
TOP_PASTE
 62
     8
100
AcDbHatch
 10
0.0
 20
0.0
 30
0.0
210
0.0
220
0.0
230
1.0
  2
SOLID
 70
     1
 71
     1
 91
        1
 92
        1
 93
        4
 72
     1
 10
13.05440112
 20
6.3683007
 11
11.07320112
 21
6.3683007
 72
     1
 10
11.07320112
 20
6.3683007
 11
11.07320112
 21
6.901700699999999
 72
     1
 10
11.07320112
 20
6.901700699999999
 11
13.05440112
 21
6.901700699999999
 72
     1
 10
13.05440112
 20
6.901700699999999
 11
13.05440112
 21
6.3683007
 97
        1
330
B1
 75
     0
 76
     1
 98
        0
  0
REGION
  5
B3
102
{ACAD_REACTORS
330
B4
102
}
330
1F
100
AcDbEntity
  8
TOP_PASTE
 62
     8
100
AcDbModelerGeometry
 70
     1
  1
noi mi n o 
  1
=0;& {rn {mj {rn {rn |
  1
/061+ {rn nlqojkkonnm jqofglooiffffffffk o |
  1
):-+:' {rn {nf {n |
  1
/061+ {rn nnqohlmonnnffffffg jqofglooiffffffffk o |
  1
):-+:' {rn {nl {l |
  1
/061+ {rn nnqohlmonnnffffffg jqilnhooiffffffffh o |
  1
):-+:' {rn {ni {j |
  1
/061+ {rn nlqojkkonnm jqilnhooiffffffffh o |
  1
):-+:' {rn {nf {h |
  1
,+->687+r<*-): {rn nlqojkkonnm jqofglooiffffffffk o rnqfgnmoooooooooonm o o o o |
  1
:;8: {rn {m {k {nn {f o |
  1
<0:;8: {rn {nk {mo {rn {no o {mn {rn |
  1
,+->687+r<*-): {rn nnqohlmonnnffffffg jqofglooiffffffffk o o oqjllkooooooooooolm o o o |
  1
:;8: {rn {k {i {nk {nm o |
  1
<0:;8: {rn {nh {nn {rn {nl o {mn {rn |
  1
,+->687+r<*-): {rn nnqohlmonnnffffffg jqilnhooiffffffffh o nqfgnmoooooooooonm o o o o |
  1
:;8: {rn {i {g {nh {nj o |
  1
<0:;8: {rn {mo {nk {rn {ni o {mn {rn |
  1
,+->687+r<*-): {rn nlqojkkonnm jqilnhooiffffffffh o o roqjllkooooooooooolm o o o |
  1
:;8: {rn {g {m {mo {ng o |
  1
<0:;8: {rn {nn {nh {rn {nf o {mn {rn |
  1
300/ {rn {rn {nn {ml |
  1
/3>1:r,*-9><: {rn nmqoilgonnnfffffff jqofglooiffffffffk o o o rn n o o o o o o o |
  1
9><: {rn {rn {mn {mk {rn {mm o n o |
  1
,7:33 {rn {rn {rn {ml {mj |
  1
3*2/ {rn {rn {mk {o |
  1
Z1;r09r^ \VLr;>+> 
1001
ACAD_OBJECT_CHANGE_GUID
1070
     1
1071
-1668680460
1070
-29219
1070
 17463
1070
   146
1070
    27
1070
   231
1070
    82
1070
   105
1070
   236
1070
    23
1070
    90
  0
HATCH
  5
B4
330
1F
100
AcDbEntity
  8
TOP_PASTE
 62
     8
100
AcDbHatch
 10
0.0
 20
0.0
 30
0.0
210
0.0
220
0.0
230
1.0
  2
SOLID
 70
     1
 71
     1
 91
        1
 92
        1
 93
        4
 72
     1
 10
13.05440112
 20
5.098300699999999
 11
11.07320112
 21
5.098300699999999
 72
     1
 10
11.07320112
 20
5.098300699999999
 11
11.07320112
 21
5.6317007
 72
     1
 10
11.07320112
 20
5.6317007
 11
13.05440112
 21
5.6317007
 72
     1
 10
13.05440112
 20
5.6317007
 11
13.05440112
 21
5.098300699999999
 97
        1
330
B3
 75
     0
 76
     1
 98
        0
  0
REGION
  5
B5
102
{ACAD_REACTORS
330
B6
102
}
330
1F
100
AcDbEntity
  8
TOP_PASTE
 62
     8
100
AcDbModelerGeometry
 70
     1
  1
noi mi n o 
  1
=0;& {rn {mj {rn {rn |
  1
/061+ {rn nlqojkkonnm lqgmglooiffffffffg o |
  1
):-+:' {rn {nf {n |
  1
/061+ {rn nnqohlmonnnffffffg lqgmglooiffffffffg o |
  1
):-+:' {rn {nl {l |
  1
/061+ {rn nnqohlmonnnffffffg kqlinhoohoooooooon o |
  1
):-+:' {rn {ni {j |
  1
/061+ {rn nlqojkkonnm kqlinhoohoooooooon o |
  1
):-+:' {rn {nf {h |
  1
,+->687+r<*-): {rn nlqojkkonnm lqgmglooiffffffffg o rnqfgnmoooooooooonm o o o o |
  1
:;8: {rn {m {k {nn {f o |
  1
<0:;8: {rn {nk {mo {rn {no o {mn {rn |
  1
,+->687+r<*-): {rn nnqohlmonnnffffffg lqgmglooiffffffffg o o oqjllkooooooooooolm o o o |
  1
:;8: {rn {k {i {nk {nm o |
  1
<0:;8: {rn {nh {nn {rn {nl o {mn {rn |
  1
,+->687+r<*-): {rn nnqohlmonnnffffffg kqlinhoohoooooooon o nqfgnmoooooooooonm o o o o |
  1
:;8: {rn {i {g {nh {nj o |
  1
<0:;8: {rn {mo {nk {rn {ni o {mn {rn |
  1
,+->687+r<*-): {rn nlqojkkonnm kqlinhoohoooooooon o o roqjllkooooooooooolm o o o |
  1
:;8: {rn {g {m {mo {ng o |
  1
<0:;8: {rn {nn {nh {rn {nf o {mn {rn |
  1
300/ {rn {rn {nn {ml |
  1
/3>1:r,*-9><: {rn nmqoilgonnnfffffff lqgmglooiffffffffg o o o rn n o o o o o o o |
  1
9><: {rn {rn {mn {mk {rn {mm o n o |
  1
,7:33 {rn {rn {rn {ml {mj |
  1
3*2/ {rn {rn {mk {o |
  1
Z1;r09r^ \VLr;>+> 
1001
ACAD_OBJECT_CHANGE_GUID
1070
     1
1071
-812241322
1070
  7437
1070
 16696
1070
   169
1070
   255
1070
   224
1070
    71
1070
    74
1070
    43
1070
   158
1070
   101
  0
HATCH
  5
B6
330
1F
100
AcDbEntity
  8
TOP_PASTE
 62
     8
100
AcDbHatch
 10
0.0
 20
0.0
 30
0.0
210
0.0
220
0.0
230
1.0
  2
SOLID
 70
     1
 71
     1
 91
        1
 92
        1
 93
        4
 72
     1
 10
13.05440112
 20
3.8283007
 11
11.07320112
 21
3.8283007
 72
     1
 10
11.07320112
 20
3.8283007
 11
11.07320112
 21
4.3617007
 72
     1
 10
11.07320112
 20
4.3617007
 11
13.05440112
 21
4.3617007
 72
     1
 10
13.05440112
 20
4.3617007
 11
13.05440112
 21
3.8283007
 97
        1
330
B5
 75
     0
 76
     1
 98
        0
  0
LINE
  5
B7
330
1F
100
AcDbEntity
  8
TOP_PASTE
100
AcDbLine
 10
8.50620092
 20
7.500200899999999
 30
0.0
 11
8.50620092
 21
6.100000499999999
 31
0.0
  0
LINE
  5
B8
330
1F
100
AcDbEntity
  8
TOP_PASTE
100
AcDbLine
 10
8.50620092
 20
6.100000499999999
 30
0.0
 11
10.69380132
 21
6.100000499999999
 31
0.0
  0
LINE
  5
B9
330
1F
100
AcDbEntity
  8
TOP_PASTE
100
AcDbLine
 10
10.69380132
 20
6.100000499999999
 30
0.0
 11
10.69380132
 21
7.500200899999999
 31
0.0
  0
LINE
  5
BA
330
1F
100
AcDbEntity
  8
TOP_PASTE
100
AcDbLine
 10
10.69380132
 20
7.500200899999999
 30
0.0
 11
8.50620092
 21
7.500200899999999
 31
0.0
  0
LINE
  5
BB
330
1F
100
AcDbEntity
  8
TOP_PASTE
100
AcDbLine
 10
8.50620092
 20
5.900000899999999
 30
0.0
 11
8.50620092
 21
4.499800499999999
 31
0.0
  0
LINE
  5
BC
330
1F
100
AcDbEntity
  8
TOP_PASTE
100
AcDbLine
 10
8.50620092
 20
4.499800499999999
 30
0.0
 11
10.69380132
 21
4.499800499999999
 31
0.0
  0
LINE
  5
BD
330
1F
100
AcDbEntity
  8
TOP_PASTE
100
AcDbLine
 10
10.69380132
 20
4.499800499999999
 30
0.0
 11
10.69380132
 21
5.900000899999999
 31
0.0
  0
LINE
  5
BE
330
1F
100
AcDbEntity
  8
TOP_PASTE
100
AcDbLine
 10
10.69380132
 20
5.900000899999999
 30
0.0
 11
8.50620092
 21
5.900000899999999
 31
0.0
  0
REGION
  5
BF
102
{ACAD_REACTORS
330
C0
102
}
330
1F
100
AcDbEntity
  8
TOP_PASTE
 62
     8
100
AcDbModelerGeometry
 70
     1
  1
noi mi n o 
  1
=0;& {rn {mj {rn {rn |
  1
/061+ {rn nhqhkffinfi nkqhgffnfimoooooon o |
  1
):-+:' {rn {nf {n |
  1
/061+ {rn nhqhkffinfi nlqmgffmmim o |
  1
):-+:' {rn {nl {l |
  1
/061+ {rn ngqmkffiiok nlqmgffmmim o |
  1
):-+:' {rn {ni {j |
  1
/061+ {rn ngqmkffiiok nkqhgffnfimoooooon o |
  1
):-+:' {rn {nf {h |
  1
:336/,:r<*-): {rn nhqhkffinfi nkqolffmnnmoooooon o o o n o oqhkfffgjooooooooon o n o o |
  1
:;8: {rn {m {k {nn {f o |
  1
<0:;8: {rn {nk {mo {rn {no o {mn {rn |
  1
,+->687+r<*-): {rn nhqhkffinfi nlqmgffmmim o oqjooookogooooooooh o o o o |
  1
:;8: {rn {k {i {nk {nm o |
  1
<0:;8: {rn {nh {nn {rn {nl o {mn {rn |
  1
:336/,:r<*-): {rn ngqmkffiiok nkqolffmnnmoooooon o o o n o roqhkfffgjooooooooon o n o o |
  1
:;8: {rn {i {g {nh {nj o |
  1
<0:;8: {rn {mo {nk {rn {ni o {mn {rn |
  1
,+->687+r<*-): {rn ngqmkffiiok nkqhgffnfimoooooon o roqjooookogooooooooh o o o o |
  1
:;8: {rn {g {m {mo {ng o |
  1
<0:;8: {rn {nn {nh {rn {nf o {mn {rn |
  1
300/ {rn {rn {nn {ml |
  1
/3>1:r,*-9><: {rn nhqffffilfffffffff nkqolffmnnmoooooon o o o n rn o o o o o o o |
  1
9><: {rn {rn {mn {mk {rn {mm o n o |
  1
,7:33 {rn {rn {rn {ml {mj |
  1
3*2/ {rn {rn {mk {o |
  1
Z1;r09r^ \VLr;>+> 
1001
ACAD_OBJECT_CHANGE_GUID
1070
     1
1071
-1853079869
1070
-13290
1070
 19017
1070
   180
1070
    50
1070
    93
1070
    27
1070
   173
1070
   133
1070
   135
1070
     6
  0
HATCH
  5
C0
330
1F
100
AcDbEntity
  8
TOP_PASTE
 62
     8
100
AcDbHatch
 10
0.0
 20
0.0
 30
0.0
210
0.0
220
0.0
230
1.0
  2
SOLID
 70
     1
 71
     1
 91
        1
 92
        1
 93
        4
 72
     2
 10
17.74996196
 20
14.03992112
 40
0.7499985
 50
90.0
 51
270.0
 73
     1
 72
     1
 10
17.74996196
 20
13.28992262
 11
18.24996604
 21
13.28992262
 72
     2
 10
18.24996604
 20
14.03992112
 40
0.7499985
 50
270.0
 51
450.0
 73
     1
 72
     1
 10
18.24996604
 20
14.78991962
 11
17.74996196
 21
14.78991962
 97
        1
330
BF
 75
     0
 76
     1
 98
        0
  0
REGION
  5
C1
102
{ACAD_REACTORS
330
C2
102
}
330
1F
100
AcDbEntity
  8
TOP_PASTE
 62
     8
100
AcDbModelerGeometry
 70
     1
  1
noi mi n o 
  1
=0;& {rn {mj {rn {rn |
  1
/061+ {rn nhqhkfffhjnffffffh nmqmkfffgljfffffff o |
  1
):-+:' {rn {nf {n |
  1
/061+ {rn nhqhkfffhjnffffffh noqhjooonljfffffff o |
  1
):-+:' {rn {nl {l |
  1
/061+ {rn ngqmjoooniooooooon noqhjooonljfffffff o |
  1
):-+:' {rn {ni {j |
  1
/061+ {rn ngqmjoooniooooooon nmqmkfffgljfffffff o |
  1
):-+:' {rn {nf {h |
  1
:336/,:r<*-): {rn nhqhkfffhjnffffffh nnqkfffffgjfffffff o o o n o oqhkfffgjooooooooon o n o o |
  1
:;8: {rn {m {k {nn {f o |
  1
<0:;8: {rn {nk {mo {rn {no o {mn {rn |
  1
,+->687+r<*-): {rn nhqhkfffhjnffffffh noqhjooonljfffffff o oqjooookogoooooolil o o o o |
  1
:;8: {rn {k {i {nk {nm o |
  1
<0:;8: {rn {nh {nn {rn {nl o {mn {rn |
  1
:336/,:r<*-): {rn ngqmjoooniooooooon nnqkfffffgjfffffff o o o n o roqhkfffgjooooooooon o n o o |
  1
:;8: {rn {i {g {nh {nj o |
  1
<0:;8: {rn {mo {nk {rn {ni o {mn {rn |
  1
,+->687+r<*-): {rn ngqmjoooniooooooon nmqmkfffgljfffffff o roqjooookogoooooolil o o o o |
  1
:;8: {rn {g {m {mo {ng o |
  1
<0:;8: {rn {nn {nh {rn {nf o {mn {rn |
  1
300/ {rn {rn {nn {ml |
  1
/3>1:r,*-9><: {rn nhqffffffjjfffffff nnqkfffffgjfffffff o o o n rn o o o o o o o |
  1
9><: {rn {rn {mn {mk {rn {mm o n o |
  1
,7:33 {rn {rn {rn {ml {mj |
  1
3*2/ {rn {rn {mk {o |
  1
Z1;r09r^ \VLr;>+> 
1001
ACAD_OBJECT_CHANGE_GUID
1070
     1
1071
-177671010
1070
-31484
1070
 20396
1070
   163
1070
    20
1070
    83
1070
   213
1070
    91
1070
   110
1070
   165
1070
   236
  0
HATCH
  5
C2
330
1F
100
AcDbEntity
  8
TOP_PASTE
 62
     8
100
AcDbHatch
 10
0.0
 20
0.0
 30
0.0
210
0.0
220
0.0
230
1.0
  2
SOLID
 70
     1
 71
     1
 91
        1
 92
        1
 93
        4
 72
     2
 10
17.74999752
 20
11.49999986
 40
0.7499985
 50
90.0
 51
270.0
 73
     1
 72
     1
 10
17.74999752
 20
10.75000136
 11
18.2500016
 21
10.75000136
 72
     2
 10
18.2500016
 20
11.49999986
 40
0.7499985
 50
270.0
 51
450.0
 73
     1
 72
     1
 10
18.2500016
 20
12.24999836
 11
17.74999752
 21
12.24999836
 97
        1
330
C1
 75
     0
 76
     1
 98
        0
  0
REGION
  5
C3
102
{ACAD_REACTORS
330
C4
102
}
330
1F
100
AcDbEntity
  8
TOP_PASTE
 62
     8
100
AcDbModelerGeometry
 70
     1
  1
noi mi n o 
  1
=0;& {rn {mj {rn {rn |
  1
/061+ {rn ngqffffikjkoooooon nhqlmffmoggffffffh o |
  1
):-+:' {rn {nf {n |
  1
/061+ {rn ngqffffikjkoooooon njqgmffmnlkffffffg o |
  1
):-+:' {rn {nl {l |
  1
/061+ {rn niqffffilki njqgmffmnlkffffffg o |
  1
):-+:' {rn {ni {j |
  1
/061+ {rn niqffffilki nhqlmffmoggffffffh o |
  1
):-+:' {rn {nf {h |
  1
,+->687+r<*-): {rn ngqffffikjkoooooon nhqlmffmoggffffffh o o rnqkfffffjlfffffffm o o o |
  1
:;8: {rn {m {k {nn {f o |
  1
<0:;8: {rn {nk {mo {rn {no o {mn {rn |
  1
,+->687+r<*-): {rn ngqffffikjkoooooon njqgmffmnlkffffffg o rmqooooonogoooooooj o o o o |
  1
:;8: {rn {k {i {nk {nm o |
  1
<0:;8: {rn {nh {nn {rn {nl o {mn {rn |
  1
,+->687+r<*-): {rn niqffffilki njqgmffmnlkffffffg o o nqkfffffjlfffffffm o o o |
  1
:;8: {rn {i {g {nh {nj o |
  1
<0:;8: {rn {mo {nk {rn {ni o {mn {rn |
  1
,+->687+r<*-): {rn niqffffilki nhqlmffmoggffffffh o mqooooonogoooooooj o o o o |
  1
:;8: {rn {g {m {mo {ng o |
  1
<0:;8: {rn {nn {nh {rn {nf o {mn {rn |
  1
300/ {rn {rn {nn {ml |
  1
/3>1:r,*-9><: {rn nhqffffilfffffffff niqjhffmnnnffffffg o o o rn rn o o o o o o o |
  1
9><: {rn {rn {mn {mk {rn {mm o n o |
  1
,7:33 {rn {rn {rn {ml {mj |
  1
3*2/ {rn {rn {mk {o |
  1
Z1;r09r^ \VLr;>+> 
1001
ACAD_OBJECT_CHANGE_GUID
1070
     1
1071
-1680063229
1070
 18943
1070
 18917
1070
   171
1070
    15
1070
   136
1070
   152
1070
   179
1070
    88
1070
   253
1070
   156
  0
HATCH
  5
C4
330
1F
100
AcDbEntity
  8
TOP_PASTE
 62
     8
100
AcDbHatch
 10
0.0
 20
0.0
 30
0.0
210
0.0
220
0.0
230
1.0
  2
SOLID
 70
     1
 71
     1
 91
        1
 92
        1
 93
        4
 72
     1
 10
18.99996454
 20
17.32992089
 11
18.99996454
 21
15.82992135
 72
     1
 10
18.99996454
 20
15.82992135
 11
16.99996346
 21
15.82992135
 72
     1
 10
16.99996346
 20
15.82992135
 11
16.99996346
 21
17.32992089
 72
     1
 10
16.99996346
 20
17.32992089
 11
18.99996454
 21
17.32992089
 97
        1
330
C3
 75
     0
 76
     1
 98
        0
  0
REGION
  5
C5
102
{ACAD_REACTORS
330
C6
102
}
330
1F
100
AcDbEntity
  8
TOP_PASTE
 62
     8
100
AcDbModelerGeometry
 70
     1
  1
noi ki n o 
  1
=0;& {rn {kj {rn {rn |
  1
/061+ {rn nhqmkffffhgffffffh lqofooomhofffffffg o |
  1
):-+:' {rn {lf {n |
  1
/061+ {rn nhqngfffffoffffffh lqnjooomjgfffffffh o |
  1
):-+:' {rn {mn {l |
  1
/061+ {rn niqkofffgfl lqnjooomjgfffffffh o |
  1
):-+:' {rn {mk {j |
  1
/061+ {rn niqlkffffojoooooon lqofooomhofffffffg o |
  1
):-+:' {rn {mh {h |
  1
/061+ {rn niqlkffffojoooooon mqknooonjlooooooom o |
  1
):-+:' {rn {lo {f |
  1
/061+ {rn niqkofffgfl mqljooonijoooooool o |
  1
):-+:' {rn {ll {nn |
  1
/061+ {rn nhqngfffffoffffffh mqljooonijoooooool o |
  1
):-+:' {rn {li {nl |
  1
/061+ {rn nhqmkffffhgffffffh mqknooonjlooooooom o |
  1
):-+:' {rn {lf {nj |
  1
:336/,:r<*-): {rn nhqngfffffoffffffh lqofooomhofffffffg o o o n oqojffffghfffffffffg o o n o o |
  1
:;8: {rn {m {k {nf {nh o |
  1
<0:;8: {rn {mm {ko {rn {ng o {kn {rn |
  1
,+->687+r<*-): {rn nhqngfffffoffffffh lqnjooomjgfffffffh o roqhgoooofhffffffifi o o o o |
  1
:;8: {rn {k {i {mm {mo o |
  1
<0:;8: {rn {mj {nf {rn {mn o {kn {rn |
  1
:336/,:r<*-): {rn niqkofffgfl lqofooomhofffffffg o o o n o oqojffffghfffffffffg o n o o |
  1
:;8: {rn {i {g {mj {ml o |
  1
<0:;8: {rn {mg {mm {rn {mk o {kn {rn |
  1
,+->687+r<*-): {rn niqlkffffojoooooon lqofooomhofffffffg o o roqigooonnhfffffffij o o o |
  1
:;8: {rn {g {no {mg {mi o |
  1
<0:;8: {rn {ln {mj {rn {mh o {kn {rn |
  1
:336/,:r<*-): {rn niqkofffgfl mqknooonjlooooooom o o o n roqojffffghfffffffffg o o n o o |
  1
:;8: {rn {no {nm {ln {mf o |
  1
<0:;8: {rn {lk {mg {rn {lo o {kn {rn |
  1
,+->687+r<*-): {rn niqkofffgfl mqljooonijoooooool o oqhgoooofhffffffifi o o o o |
  1
:;8: {rn {nm {nk {lk {lm o |
  1
<0:;8: {rn {lh {ln {rn {ll o {kn {rn |
  1
:336/,:r<*-): {rn nhqngfffffoffffffh mqknooonjlooooooom o o o n o roqojffffghfffffffffg o n o o |
  1
:;8: {rn {nk {ni {lh {lj o |
  1
<0:;8: {rn {ko {lk {rn {li o {kn {rn |
  1
,+->687+r<*-): {rn nhqmkffffhgffffffh mqknooonjlooooooom o o oqigooonnhfffffffij o o o |
  1
:;8: {rn {ni {m {ko {lg o |
  1
<0:;8: {rn {nf {lh {rn {lf o {kn {rn |
  1
300/ {rn {rn {nf {kl |
  1
/3>1:r,*-9><: {rn niqhfffffknfffffff lqofooomhofffffffg o o o n rn o o o o o o o |
  1
9><: {rn {rn {kn {kk {rn {km o n o |
  1
,7:33 {rn {rn {rn {kl {kj |
  1
3*2/ {rn {rn {kk {o |
  1
Z1;r09r^ \VLr;>+> 
1001
ACAD_OBJECT_CHANGE_GUID
1070
     1
1071
399608372
1070
  8649
1070
 20442
1070
   146
1070
   219
1070
   134
1070
    94
1070
    65
1070
    42
1070
   102
1070
   170
  0
HATCH
  5
C6
330
1F
100
AcDbEntity
  8
TOP_PASTE
 62
     8
100
AcDbHatch
 10
0.0
 20
0.0
 30
0.0
210
0.0
220
0.0
230
1.0
  2
SOLID
 70
     1
 71
     1
 91
        1
 92
        1
 93
        8
 72
     2
 10
17.18999991
 20
3.09000271
 40
0.05999988
 50
0.0
 51
90.0
 73
     1
 72
     1
 10
17.18999991
 20
3.15000259
 11
16.40999893
 21
3.15000259
 72
     2
 10
16.40999893
 20
3.09000271
 40
0.05999988
 50
90.0
 51
180.0
 73
     1
 72
     1
 10
16.34999905
 20
3.09000271
 11
16.34999905
 21
2.41000153
 72
     2
 10
16.40999893
 20
2.41000153
 40
0.05999988
 50
180.0
 51
270.0
 73
     1
 72
     1
 10
16.40999893
 20
2.35000165
 11
17.18999991
 21
2.35000165
 72
     2
 10
17.18999991
 20
2.41000153
 40
0.05999988
 50
270.0
 51
360.0
 73
     1
 72
     1
 10
17.24999979
 20
2.41000153
 11
17.24999979
 21
3.09000271
 97
        1
330
C5
 75
     0
 76
     1
 98
        0
  0
REGION
  5
C7
102
{ACAD_REACTORS
330
C8
102
}
330
1F
100
AcDbEntity
  8
TOP_PASTE
 62
     8
100
AcDbModelerGeometry
 70
     1
  1
noi ki n o 
  1
=0;& {rn {kj {rn {rn |
  1
/061+ {rn nhqmkffffhgffffffh nqjfooooimfffffffg o |
  1
):-+:' {rn {lf {n |
  1
/061+ {rn nhqngfffffoffffffh nqijoooojofffffffh o |
  1
):-+:' {rn {mn {l |
  1
/061+ {rn niqkofffgfl nqijoooojofffffffh o |
  1
):-+:' {rn {mk {j |
  1
/061+ {rn niqlkffffojoooooon nqjfooooimfffffffg o |
  1
):-+:' {rn {mh {h |
  1
/061+ {rn niqlkffffojoooooon oqfoffffkkffffffffl o |
  1
):-+:' {rn {lo {f |
  1
/061+ {rn niqkofffgfl oqgkffffjiffffffffl o |
  1
):-+:' {rn {ll {nn |
  1
/061+ {rn nhqngfffffoffffffh oqgkffffjiffffffffl o |
  1
):-+:' {rn {li {nl |
  1
/061+ {rn nhqmkffffhgffffffh oqfoffffkkffffffffl o |
  1
):-+:' {rn {lf {nj |
  1
:336/,:r<*-): {rn nhqngfffffoffffffh nqjfooooimfffffffg o o o n oqojffffghfffffffffg o o n o o |
  1
:;8: {rn {m {k {nf {nh o |
  1
<0:;8: {rn {mm {ko {rn {ng o {kn {rn |
  1
,+->687+r<*-): {rn nhqngfffffoffffffh nqijoooojofffffffh o roqhgoooofhffffffifi o o o o |
  1
:;8: {rn {k {i {mm {mo o |
  1
<0:;8: {rn {mj {nf {rn {mn o {kn {rn |
  1
:336/,:r<*-): {rn niqkofffgfl nqjfooooimfffffffg o o o n o oqojffffghfffffffffg o n o o |
  1
:;8: {rn {i {g {mj {ml o |
  1
<0:;8: {rn {mg {mm {rn {mk o {kn {rn |
  1
,+->687+r<*-): {rn niqlkffffojoooooon nqjfooooimfffffffg o o roqigooonnhfffffffgh o o o |
  1
:;8: {rn {g {no {mg {mi o |
  1
<0:;8: {rn {ln {mj {rn {mh o {kn {rn |
  1
:336/,:r<*-): {rn niqkofffgfl oqfoffffkkffffffffl o o o n roqojffffghfffffffffg o o n o o |
  1
:;8: {rn {no {nm {ln {mf o |
  1
<0:;8: {rn {lk {mg {rn {lo o {kn {rn |
  1
,+->687+r<*-): {rn niqkofffgfl oqgkffffjiffffffffl o oqhgoooofhffffffifi o o o o |
  1
:;8: {rn {nm {nk {lk {lm o |
  1
<0:;8: {rn {lh {ln {rn {ll o {kn {rn |
  1
:336/,:r<*-): {rn nhqngfffffoffffffh oqfoffffkkffffffffl o o o n o roqojffffghfffffffffg o n o o |
  1
:;8: {rn {nk {ni {lh {lj o |
  1
<0:;8: {rn {ko {lk {rn {li o {kn {rn |
  1
,+->687+r<*-): {rn nhqmkffffhgffffffh oqfoffffkkffffffffl o o oqigooonnhfffffffgh o o o |
  1
:;8: {rn {ni {m {ko {lg o |
  1
<0:;8: {rn {nf {lh {rn {lf o {kn {rn |
  1
300/ {rn {rn {nf {kl |
  1
/3>1:r,*-9><: {rn niqhfffffknfffffff nqjfooooimfffffffg o o o n rn o o o o o o o |
  1
9><: {rn {rn {kn {kk {rn {km o n o |
  1
,7:33 {rn {rn {rn {kl {kj |
  1
3*2/ {rn {rn {kk {o |
  1
Z1;r09r^ \VLr;>+> 
1001
ACAD_OBJECT_CHANGE_GUID
1070
     1
1071
1915075371
1070
 -2697
1070
 19398
1070
   158
1070
   193
1070
   166
1070
   203
1070
   112
1070
   157
1070
    85
1070
    76
  0
HATCH
  5
C8
330
1F
100
AcDbEntity
  8
TOP_PASTE
 62
     8
100
AcDbHatch
 10
0.0
 20
0.0
 30
0.0
210
0.0
220
0.0
230
1.0
  2
SOLID
 70
     1
 71
     1
 91
        1
 92
        1
 93
        8
 72
     2
 10
17.18999991
 20
1.59000063
 40
0.05999988
 50
0.0
 51
90.0
 73
     1
 72
     1
 10
17.18999991
 20
1.65000051
 11
16.40999893
 21
1.65000051
 72
     2
 10
16.40999893
 20
1.59000063
 40
0.05999988
 50
90.0
 51
180.0
 73
     1
 72
     1
 10
16.34999905
 20
1.59000063
 11
16.34999905
 21
0.9099994499999999
 72
     2
 10
16.40999893
 20
0.9099994499999999
 40
0.05999988
 50
180.0
 51
270.0
 73
     1
 72
     1
 10
16.40999893
 20
0.8499995699999999
 11
17.18999991
 21
0.8499995699999999
 72
     2
 10
17.18999991
 20
0.9099994499999999
 40
0.05999988
 50
270.0
 51
360.0
 73
     1
 72
     1
 10
17.24999979
 20
0.9099994499999999
 11
17.24999979
 21
1.59000063
 97
        1
330
C7
 75
     0
 76
     1
 98
        0
  0
REGION
  5
C9
102
{ACAD_REACTORS
330
CA
102
}
330
1F
100
AcDbEntity
  8
TOP_PASTE
 62
     8
100
AcDbModelerGeometry
 70
     1
  1
noi ki n o 
  1
=0;& {rn {kj {rn {rn |
  1
/061+ {rn nfqojooonmifffffff lqofoooonifffffffh o |
  1
):-+:' {rn {lf {n |
  1
/061+ {rn ngqffooonlf lqnjoooookfffffffi o |
  1
):-+:' {rn {mn {l |
  1
/061+ {rn ngqmnooookofffffff lqnjoooookfffffffi o |
  1
):-+:' {rn {mk {j |
  1
/061+ {rn ngqnjoooojl lqofoooonifffffffh o |
  1
):-+:' {rn {mh {h |
  1
/061+ {rn ngqnjoooojl mqkofffgffooooooon o |
  1
):-+:' {rn {lo {f |
  1
/061+ {rn ngqmnooookofffffff mqlkffffnnooooooom o |
  1
):-+:' {rn {ll {nn |
  1
/061+ {rn ngqffooonlf mqlkffffnnooooooom o |
  1
):-+:' {rn {li {nl |
  1
/061+ {rn nfqojooonmifffffff mqkofffgffooooooon o |
  1
):-+:' {rn {lf {nj |
  1
:336/,:r<*-): {rn ngqffooonlf lqofoooonifffffffh o o o n oqojffffghfffffffffg o o n o o |
  1
:;8: {rn {m {k {nf {nh o |
  1
<0:;8: {rn {mm {ko {rn {ng o {kn {rn |
  1
,+->687+r<*-): {rn ngqffooonlf lqnjoooookfffffffi o roqhgoooofgooooooojn o o o o |
  1
:;8: {rn {k {i {mm {mo o |
  1
<0:;8: {rn {mj {nf {rn {mn o {kn {rn |
  1
:336/,:r<*-): {rn ngqmnooookofffffff lqofoooonifffffffh o o o n o oqojffffghfffffffffg o n o o |
  1
:;8: {rn {i {g {mj {ml o |
  1
<0:;8: {rn {mg {mm {rn {mk o {kn {rn |
  1
,+->687+r<*-): {rn ngqnjoooojl lqofoooonifffffffh o o roqigooonnhfffffffij o o o |
  1
:;8: {rn {g {no {mg {mi o |
  1
<0:;8: {rn {ln {mj {rn {mh o {kn {rn |
  1
:336/,:r<*-): {rn ngqmnooookofffffff mqkofffgffooooooon o o o n roqojffffghfffffffffg o o n o o |
  1
:;8: {rn {no {nm {ln {mf o |
  1
<0:;8: {rn {lk {mg {rn {lo o {kn {rn |
  1
,+->687+r<*-): {rn ngqmnooookofffffff mqlkffffnnooooooom o oqhgoooofgooooooojn o o o o |
  1
:;8: {rn {nm {nk {lk {lm o |
  1
<0:;8: {rn {lh {ln {rn {ll o {kn {rn |
  1
:336/,:r<*-): {rn ngqffooonlf mqkofffgffooooooon o o o n o roqojffffghfffffffffg o n o o |
  1
:;8: {rn {nk {ni {lh {lj o |
  1
<0:;8: {rn {ko {lk {rn {li o {kn {rn |
  1
,+->687+r<*-): {rn nfqojooonmifffffff mqkofffgffooooooon o o oqigooonnhfffffffij o o o |
  1
:;8: {rn {ni {m {ko {lg o |
  1
<0:;8: {rn {nf {lh {rn {lf o {kn {rn |
  1
300/ {rn {rn {nf {kl |
  1
/3>1:r,*-9><: {rn ngqiooooogfffffffg lqofoooonifffffffh o o o n rn o o o o o o o |
  1
9><: {rn {rn {kn {kk {rn {km o n o |
  1
,7:33 {rn {rn {rn {kl {kj |
  1
3*2/ {rn {rn {kk {o |
  1
Z1;r09r^ \VLr;>+> 
1001
ACAD_OBJECT_CHANGE_GUID
1070
     1
1071
2023226117
1070
 28565
1070
 17079
1070
   162
1070
     7
1070
    48
1070
   135
1070
    56
1070
   126
1070
    26
1070
    20
  0
HATCH
  5
CA
330
1F
100
AcDbEntity
  8
TOP_PASTE
 62
     8
100
AcDbHatch
 10
0.0
 20
0.0
 30
0.0
210
0.0
220
0.0
230
1.0
  2
SOLID
 70
     1
 71
     1
 91
        1
 92
        1
 93
        8
 72
     2
 10
18.99000139
 20
3.09000017
 40
0.05999988
 50
0.0
 51
90.0
 73
     1
 72
     1
 10
18.99000139
 20
3.15000005
 11
18.21000041
 21
3.15000005
 72
     2
 10
18.21000041
 20
3.09000017
 40
0.05999988
 50
90.0
 51
180.0
 73
     1
 72
     1
 10
18.15000053
 20
3.09000017
 11
18.15000053
 21
2.40999899
 72
     2
 10
18.21000041
 20
2.40999899
 40
0.05999988
 50
180.0
 51
270.0
 73
     1
 72
     1
 10
18.21000041
 20
2.34999911
 11
18.99000139
 21
2.34999911
 72
     2
 10
18.99000139
 20
2.40999899
 40
0.05999988
 50
270.0
 51
360.0
 73
     1
 72
     1
 10
19.05000127
 20
2.40999899
 11
19.05000127
 21
3.09000017
 97
        1
330
C9
 75
     0
 76
     1
 98
        0
  0
REGION
  5
CB
102
{ACAD_REACTORS
330
CC
102
}
330
1F
100
AcDbEntity
  8
TOP_PASTE
 62
     8
100
AcDbModelerGeometry
 70
     1
  1
noi ki n o 
  1
=0;& {rn {kj {rn {rn |
  1
/061+ {rn nfqojooonmifffffff nqjgfffgogffffffff o |
  1
):-+:' {rn {lf {n |
  1
/061+ {rn ngqffooonlf nqikfffhfifffffffg o |
  1
):-+:' {rn {mn {l |
  1
/061+ {rn ngqmnooookofffffff nqikfffhfifffffffg o |
  1
):-+:' {rn {mk {j |
  1
/061+ {rn ngqnjoooojl nqjgfffgogffffffff o |
  1
):-+:' {rn {mh {h |
  1
/061+ {rn ngqnjoooojl oqfofffifoffffffffk o |
  1
):-+:' {rn {lo {f |
  1
/061+ {rn ngqmnooookofffffff oqgkfffhomffffffffl o |
  1
):-+:' {rn {ll {nn |
  1
/061+ {rn ngqffooonlf oqgkfffhomffffffffl o |
  1
):-+:' {rn {li {nl |
  1
/061+ {rn nfqojooonmifffffff oqfofffifoffffffffk o |
  1
):-+:' {rn {lf {nj |
  1
:336/,:r<*-): {rn ngqffooonlf nqjgfffgogffffffff o o o n oqojffffghfffffffffg o o n o o |
  1
:;8: {rn {m {k {nf {nh o |
  1
<0:;8: {rn {mm {ko {rn {ng o {kn {rn |
  1
,+->687+r<*-): {rn ngqffooonlf nqikfffhfifffffffg o roqhgoooofgooooooojn o o o o |
  1
:;8: {rn {k {i {mm {mo o |
  1
<0:;8: {rn {mj {nf {rn {mn o {kn {rn |
  1
:336/,:r<*-): {rn ngqmnooookofffffff nqjgfffgogffffffff o o o n o oqojffffghfffffffffg o n o o |
  1
:;8: {rn {i {g {mj {ml o |
  1
<0:;8: {rn {mg {mm {rn {mk o {kn {rn |
  1
,+->687+r<*-): {rn ngqnjoooojl nqjgfffgogffffffff o o roqigooonnhffffffffg o o o |
  1
:;8: {rn {g {no {mg {mi o |
  1
<0:;8: {rn {ln {mj {rn {mh o {kn {rn |
  1
:336/,:r<*-): {rn ngqmnooookofffffff oqfofffifoffffffffk o o o n roqojffffghfffffffffg o o n o o |
  1
:;8: {rn {no {nm {ln {mf o |
  1
<0:;8: {rn {lk {mg {rn {lo o {kn {rn |
  1
,+->687+r<*-): {rn ngqmnooookofffffff oqgkfffhomffffffffl o oqhgoooofgooooooojn o o o o |
  1
:;8: {rn {nm {nk {lk {lm o |
  1
<0:;8: {rn {lh {ln {rn {ll o {kn {rn |
  1
:336/,:r<*-): {rn ngqffooonlf oqfofffifoffffffffk o o o n o roqojffffghfffffffffg o n o o |
  1
:;8: {rn {nk {ni {lh {lj o |
  1
<0:;8: {rn {ko {lk {rn {li o {kn {rn |
  1
,+->687+r<*-): {rn nfqojooonmifffffff oqfofffifoffffffffk o o oqigooonnhffffffffg o o o |
  1
:;8: {rn {ni {m {ko {lg o |
  1
<0:;8: {rn {nf {lh {rn {lf o {kn {rn |
  1
300/ {rn {rn {nf {kl |
  1
/3>1:r,*-9><: {rn ngqiooooogfffffffg nqjgfffgogffffffff o o o n rn o o o o o o o |
  1
9><: {rn {rn {kn {kk {rn {km o n o |
  1
,7:33 {rn {rn {rn {kl {kj |
  1
3*2/ {rn {rn {kk {o |
  1
Z1;r09r^ \VLr;>+> 
1001
ACAD_OBJECT_CHANGE_GUID
1070
     1
1071
1112765225
1070
-22450
1070
 19316
1070
   191
1070
    23
1070
    87
1070
    56
1070
   248
1070
   189
1070
    60
1070
    59
  0
HATCH
  5
CC
330
1F
100
AcDbEntity
  8
TOP_PASTE
 62
     8
100
AcDbHatch
 10
0.0
 20
0.0
 30
0.0
210
0.0
220
0.0
230
1.0
  2
SOLID
 70
     1
 71
     1
 91
        1
 92
        1
 93
        8
 72
     2
 10
18.99000139
 20
1.58999809
 40
0.05999988
 50
0.0
 51
90.0
 73
     1
 72
     1
 10
18.99000139
 20
1.64999797
 11
18.21000041
 21
1.64999797
 72
     2
 10
18.21000041
 20
1.58999809
 40
0.05999988
 50
90.0
 51
180.0
 73
     1
 72
     1
 10
18.15000053
 20
1.58999809
 11
18.15000053
 21
0.9099969099999999
 72
     2
 10
18.21000041
 20
0.9099969099999999
 40
0.05999988
 50
180.0
 51
270.0
 73
     1
 72
     1
 10
18.21000041
 20
0.8499970299999999
 11
18.99000139
 21
0.8499970299999999
 72
     2
 10
18.99000139
 20
0.9099969099999999
 40
0.05999988
 50
270.0
 51
360.0
 73
     1
 72
     1
 10
19.05000127
 20
0.9099969099999999
 11
19.05000127
 21
1.58999809
 97
        1
330
CB
 75
     0
 76
     1
 98
        0
  0
REGION
  5
CD
102
{ACAD_REACTORS
330
CE
102
}
330
1F
100
AcDbEntity
  8
TOP_PASTE
 62
     8
100
AcDbModelerGeometry
 70
     1
  1
noi ki n o 
  1
=0;& {rn {kj {rn {rn |
  1
/061+ {rn hqfnooooigfffffffj nkqfkfffflofffffff o |
  1
):-+:' {rn {lf {n |
  1
/061+ {rn hqgjoooogofffffffm nkqggffffkl o |
  1
):-+:' {rn {mn {l |
  1
/061+ {rn hqgjoooogofffffffm nkqnofffgkkfffffff o |
  1
):-+:' {rn {mk {j |
  1
/061+ {rn hqfnooooigfffffffj nkqokfffgjh o |
  1
):-+:' {rn {mh {h |
  1
/061+ {rn gqjfooongh nkqokfffgjh o |
  1
):-+:' {rn {lo {f |
  1
/061+ {rn gqijooonhkfffffffj nkqnofffgkkfffffff o |
  1
):-+:' {rn {ll {nn |
  1
/061+ {rn gqijooonhkfffffffj nkqggffffkl o |
  1
):-+:' {rn {li {nl |
  1
/061+ {rn gqjfooongh nkqfkfffflofffffff o |
  1
):-+:' {rn {lf {nj |
  1
:336/,:r<*-): {rn hqfnooooigfffffffj nkqggffffkl o o o n o oqojffffghfffffffffg o n o o |
  1
:;8: {rn {m {k {nf {nh o |
  1
<0:;8: {rn {mm {ko {rn {ng o {kn {rn |
  1
,+->687+r<*-): {rn hqgjoooogofffffffm nkqggffffkl o o roqhgoooofgooooooojn o o o |
  1
:;8: {rn {k {i {mm {mo o |
  1
<0:;8: {rn {mj {nf {rn {mn o {kn {rn |
  1
:336/,:r<*-): {rn hqfnooooigfffffffj nkqnofffgkkfffffff o o o n roqojffffghfffffffffg o o n o o |
  1
:;8: {rn {i {g {mj {ml o |
  1
<0:;8: {rn {mg {mm {rn {mk o {kn {rn |
  1
,+->687+r<*-): {rn hqfnooooigfffffffj nkqokfffgjh o oqigooonngooooooojk o o o o |
  1
:;8: {rn {g {no {mg {mi o |
  1
<0:;8: {rn {ln {mj {rn {mh o {kn {rn |
  1
:336/,:r<*-): {rn gqjfooongh nkqnofffgkkfffffff o o o n o roqojffffghfffffffffg o n o o |
  1
:;8: {rn {no {nm {ln {mf o |
  1
<0:;8: {rn {lk {mg {rn {lo o {kn {rn |
  1
,+->687+r<*-): {rn gqijooonhkfffffffj nkqnofffgkkfffffff o o oqhgoooofgooooooojn o o o |
  1
:;8: {rn {nm {nk {lk {lm o |
  1
<0:;8: {rn {lh {ln {rn {ll o {kn {rn |
  1
:336/,:r<*-): {rn gqjfooongh nkqggffffkl o o o n oqojffffghfffffffffg o o n o o |
  1
:;8: {rn {nk {ni {lh {lj o |
  1
<0:;8: {rn {ko {lk {rn {li o {kn {rn |
  1
,+->687+r<*-): {rn gqjfooongh nkqfkfffflofffffff o roqigooonngooooooojk o o o o |
  1
:;8: {rn {ni {m {ko {lg o |
  1
<0:;8: {rn {nf {lh {rn {lf o {kn {rn |
  1
300/ {rn {rn {nf {kl |
  1
/3>1:r,*-9><: {rn hqfnooooigfffffffj nkqkffffgflfffffff o o o n rn o o o o o o o |
  1
9><: {rn {rn {kn {kk {rn {km o n o |
  1
,7:33 {rn {rn {rn {kl {kj |
  1
3*2/ {rn {rn {kk {o |
  1
Z1;r09r^ \VLr;>+> 
1001
ACAD_OBJECT_CHANGE_GUID
1070
     1
1071
1674607572
1070
 23508
1070
 17484
1070
   149
1070
   217
1070
   178
1070
    57
1070
   158
1070
   119
1070
    30
1070
    69
  0
HATCH
  5
CE
330
1F
100
AcDbEntity
  8
TOP_PASTE
 62
     8
100
AcDbHatch
 10
0.0
 20
0.0
 30
0.0
210
0.0
220
0.0
230
1.0
  2
SOLID
 70
     1
 71
     1
 91
        1
 92
        1
 93
        8
 72
     2
 10
7.91000069
 20
14.88999943
 40
0.05999988
 50
90.0
 51
180.0
 73
     1
 72
     1
 10
7.850000809999999
 20
14.88999943
 11
7.850000809999999
 21
14.10999845
 72
     2
 10
7.91000069
 20
14.10999845
 40
0.05999988
 50
180.0
 51
270.0
 73
     1
 72
     1
 10
7.91000069
 20
14.04999857
 11
8.59000187
 21
14.04999857
 72
     2
 10
8.59000187
 20
14.10999845
 40
0.05999988
 50
270.0
 51
360.0
 73
     1
 72
     1
 10
8.65000175
 20
14.10999845
 11
8.65000175
 21
14.88999943
 72
     2
 10
8.59000187
 20
14.88999943
 40
0.05999988
 50
0.0
 51
90.0
 73
     1
 72
     1
 10
8.59000187
 20
14.94999931
 11
7.91000069
 21
14.94999931
 97
        1
330
CD
 75
     0
 76
     1
 98
        0
  0
REGION
  5
CF
102
{ACAD_REACTORS
330
D0
102
}
330
1F
100
AcDbEntity
  8
TOP_PASTE
 62
     8
100
AcDbModelerGeometry
 70
     1
  1
noi ki n o 
  1
=0;& {rn {kj {rn {rn |
  1
/061+ {rn iqkofffgiofffffffh nkqfkfffflofffffff o |
  1
):-+:' {rn {lf {n |
  1
/061+ {rn iqlkfffghmfffffffk nkqggffffkl o |
  1
):-+:' {rn {mn {l |
  1
/061+ {rn iqlkfffghmfffffffk nkqnofffgkkfffffff o |
  1
):-+:' {rn {mk {j |
  1
/061+ {rn iqkofffgiofffffffh nkqokfffgjh o |
  1
):-+:' {rn {mh {h |
  1
/061+ {rn hqogffffhfooooooom nkqokfffgjh o |
  1
):-+:' {rn {lo {f |
  1
/061+ {rn hqnkffffihoooooooi nkqnofffgkkfffffff o |
  1
):-+:' {rn {ll {nn |
  1
/061+ {rn hqnkffffihoooooooi nkqggffffkl o |
  1
):-+:' {rn {li {nl |
  1
/061+ {rn hqogffffhfooooooom nkqfkfffflofffffff o |
  1
):-+:' {rn {lf {nj |
  1
:336/,:r<*-): {rn iqkofffgiofffffffh nkqggffffkl o o o n o oqojffffghfffffffffg o n o o |
  1
:;8: {rn {m {k {nf {nh o |
  1
<0:;8: {rn {mm {ko {rn {ng o {kn {rn |
  1
,+->687+r<*-): {rn iqlkfffghmfffffffk nkqggffffkl o o roqhgoooofgooooooojn o o o |
  1
:;8: {rn {k {i {mm {mo o |
  1
<0:;8: {rn {mj {nf {rn {mn o {kn {rn |
  1
:336/,:r<*-): {rn iqkofffgiofffffffh nkqnofffgkkfffffff o o o n roqojffffghfffffffffg o o n o o |
  1
:;8: {rn {i {g {mj {ml o |
  1
<0:;8: {rn {mg {mm {rn {mk o {kn {rn |
  1
,+->687+r<*-): {rn iqkofffgiofffffffh nkqokfffgjh o oqigooonngooooooojk o o o o |
  1
:;8: {rn {g {no {mg {mi o |
  1
<0:;8: {rn {ln {mj {rn {mh o {kn {rn |
  1
:336/,:r<*-): {rn hqogffffhfooooooom nkqnofffgkkfffffff o o o n o roqojffffghfffffffffg o n o o |
  1
:;8: {rn {no {nm {ln {mf o |
  1
<0:;8: {rn {lk {mg {rn {lo o {kn {rn |
  1
,+->687+r<*-): {rn hqnkffffihoooooooi nkqnofffgkkfffffff o o oqhgoooofgooooooojn o o o |
  1
:;8: {rn {nm {nk {lk {lm o |
  1
<0:;8: {rn {lh {ln {rn {ll o {kn {rn |
  1
:336/,:r<*-): {rn hqogffffhfooooooom nkqggffffkl o o o n oqojffffghfffffffffg o o n o o |
  1
:;8: {rn {nk {ni {lh {lj o |
  1
<0:;8: {rn {ko {lk {rn {li o {kn {rn |
  1
,+->687+r<*-): {rn hqogffffhfooooooom nkqfkfffflofffffff o roqigooonngooooooojk o o o o |
  1
:;8: {rn {ni {m {ko {lg o |
  1
<0:;8: {rn {nf {lh {rn {lf o {kn {rn |
  1
300/ {rn {rn {nf {kl |
  1
/3>1:r,*-9><: {rn iqkofffgiofffffffh nkqkffffgflfffffff o o o n rn o o o o o o o |
  1
9><: {rn {rn {kn {kk {rn {km o n o |
  1
,7:33 {rn {rn {rn {kl {kj |
  1
3*2/ {rn {rn {kk {o |
  1
Z1;r09r^ \VLr;>+> 
1001
ACAD_OBJECT_CHANGE_GUID
1070
     1
1071
-1847277883
1070
  7615
1070
 19437
1070
   152
1070
    13
1070
   185
1070
   130
1070
   158
1070
   129
1070
    58
1070
    29
  0
HATCH
  5
D0
330
1F
100
AcDbEntity
  8
TOP_PASTE
 62
     8
100
AcDbHatch
 10
0.0
 20
0.0
 30
0.0
210
0.0
220
0.0
230
1.0
  2
SOLID
 70
     1
 71
     1
 91
        1
 92
        1
 93
        8
 72
     2
 10
6.40999861
 20
14.88999943
 40
0.05999988
 50
90.0
 51
180.0
 73
     1
 72
     1
 10
6.349998729999999
 20
14.88999943
 11
6.349998729999999
 21
14.10999845
 72
     2
 10
6.40999861
 20
14.10999845
 40
0.05999988
 50
180.0
 51
270.0
 73
     1
 72
     1
 10
6.40999861
 20
14.04999857
 11
7.08999979
 21
14.04999857
 72
     2
 10
7.08999979
 20
14.10999845
 40
0.05999988
 50
270.0
 51
360.0
 73
     1
 72
     1
 10
7.149999670000001
 20
14.10999845
 11
7.149999670000001
 21
14.88999943
 72
     2
 10
7.08999979
 20
14.88999943
 40
0.05999988
 50
0.0
 51
90.0
 73
     1
 72
     1
 10
7.08999979
 20
14.94999931
 11
6.40999861
 21
14.94999931
 97
        1
330
CF
 75
     0
 76
     1
 98
        0
  0
REGION
  5
D1
102
{ACAD_REACTORS
330
D2
102
}
330
1F
100
AcDbEntity
  8
TOP_PASTE
 62
     8
100
AcDbModelerGeometry
 70
     1
  1
noi ki n o 
  1
=0;& {rn {kj {rn {rn |
  1
/061+ {rn hqfnooooigfffffffj niqkjooonlgffffffh o |
  1
):-+:' {rn {lf {n |
  1
/061+ {rn hqgjoooogofffffffm niqlfooonjoffffffg o |
  1
):-+:' {rn {mn {l |
  1
/061+ {rn hqgjoooogofffffffm njqinoooojmffffffh o |
  1
):-+:' {rn {mk {j |
  1
/061+ {rn hqfnooooigfffffffj njqjjooooikffffffg o |
  1
):-+:' {rn {mh {h |
  1
/061+ {rn gqjfooongh njqjjooooikffffffg o |
  1
):-+:' {rn {lo {f |
  1
/061+ {rn gqijooonhkfffffffj njqinoooojmffffffh o |
  1
):-+:' {rn {ll {nn |
  1
/061+ {rn gqijooonhkfffffffj niqlfooonjoffffffg o |
  1
):-+:' {rn {li {nl |
  1
/061+ {rn gqjfooongh niqkjooonlgffffffh o |
  1
):-+:' {rn {lf {nj |
  1
:336/,:r<*-): {rn hqfnooooigfffffffj niqlfooonjoffffffg o o o n o oqojffffghfffffffffg o n o o |
  1
:;8: {rn {m {k {nf {nh o |
  1
<0:;8: {rn {mm {ko {rn {ng o {kn {rn |
  1
,+->687+r<*-): {rn hqgjoooogofffffffm niqlfooonjoffffffg o o roqhgoooofgooooooojn o o o |
  1
:;8: {rn {k {i {mm {mo o |
  1
<0:;8: {rn {mj {nf {rn {mn o {kn {rn |
  1
:336/,:r<*-): {rn hqfnooooigfffffffj njqinoooojmffffffh o o o n roqojffffghfffffffffg o o n o o |
  1
:;8: {rn {i {g {mj {ml o |
  1
<0:;8: {rn {mg {mm {rn {mk o {kn {rn |
  1
,+->687+r<*-): {rn hqfnooooigfffffffj njqjjooooikffffffg o oqigooonngooooooojk o o o o |
  1
:;8: {rn {g {no {mg {mi o |
  1
<0:;8: {rn {ln {mj {rn {mh o {kn {rn |
  1
:336/,:r<*-): {rn gqjfooongh njqinoooojmffffffh o o o n o roqojffffghfffffffffg o n o o |
  1
:;8: {rn {no {nm {ln {mf o |
  1
<0:;8: {rn {lk {mg {rn {lo o {kn {rn |
  1
,+->687+r<*-): {rn gqijooonhkfffffffj njqinoooojmffffffh o o oqhgoooofgooooooojn o o o |
  1
:;8: {rn {nm {nk {lk {lm o |
  1
<0:;8: {rn {lh {ln {rn {ll o {kn {rn |
  1
:336/,:r<*-): {rn gqjfooongh niqlfooonjoffffffg o o o n oqojffffghfffffffffg o o n o o |
  1
:;8: {rn {nk {ni {lh {lj o |
  1
<0:;8: {rn {ko {lk {rn {li o {kn {rn |
  1
,+->687+r<*-): {rn gqjfooongh niqkjooonlgffffffh o roqigooonngooooooojk o o o o |
  1
:;8: {rn {ni {m {ko {lg o |
  1
<0:;8: {rn {nf {lh {rn {lf o {kn {rn |
  1
300/ {rn {rn {nf {kl |
  1
/3>1:r,*-9><: {rn hqfnooooigfffffffj niqooooononfffffff o o o n rn o o o o o o o |
  1
9><: {rn {rn {kn {kk {rn {km o n o |
  1
,7:33 {rn {rn {rn {kl {kj |
  1
3*2/ {rn {rn {kk {o |
  1
Z1;r09r^ \VLr;>+> 
1001
ACAD_OBJECT_CHANGE_GUID
1070
     1
1071
1579037990
1070
 12809
1070
 17638
1070
   130
1070
   128
1070
    83
1070
    15
1070
    84
1070
   139
1070
    76
1070
    10
  0
HATCH
  5
D2
330
1F
100
AcDbEntity
  8
TOP_PASTE
 62
     8
100
AcDbHatch
 10
0.0
 20
0.0
 30
0.0
210
0.0
220
0.0
230
1.0
  2
SOLID
 70
     1
 71
     1
 91
        1
 92
        1
 93
        8
 72
     2
 10
7.91000069
 20
16.39000151
 40
0.05999988
 50
90.0
 51
180.0
 73
     1
 72
     1
 10
7.850000809999999
 20
16.39000151
 11
7.850000809999999
 21
15.61000053
 72
     2
 10
7.91000069
 20
15.61000053
 40
0.05999988
 50
180.0
 51
270.0
 73
     1
 72
     1
 10
7.91000069
 20
15.55000065
 11
8.59000187
 21
15.55000065
 72
     2
 10
8.59000187
 20
15.61000053
 40
0.05999988
 50
270.0
 51
360.0
 73
     1
 72
     1
 10
8.65000175
 20
15.61000053
 11
8.65000175
 21
16.39000151
 72
     2
 10
8.59000187
 20
16.39000151
 40
0.05999988
 50
0.0
 51
90.0
 73
     1
 72
     1
 10
8.59000187
 20
16.45000139
 11
7.91000069
 21
16.45000139
 97
        1
330
D1
 75
     0
 76
     1
 98
        0
  0
REGION
  5
D3
102
{ACAD_REACTORS
330
D4
102
}
330
1F
100
AcDbEntity
  8
TOP_PASTE
 62
     8
100
AcDbModelerGeometry
 70
     1
  1
noi ki n o 
  1
=0;& {rn {kj {rn {rn |
  1
/061+ {rn iqkofffgiofffffffh niqkjooonlgffffffh o |
  1
):-+:' {rn {lf {n |
  1
/061+ {rn iqlkfffghmfffffffk niqlfooonjoffffffg o |
  1
):-+:' {rn {mn {l |
  1
/061+ {rn iqlkfffghmfffffffk njqinoooojmffffffh o |
  1
):-+:' {rn {mk {j |
  1
/061+ {rn iqkofffgiofffffffh njqjjooooikffffffg o |
  1
):-+:' {rn {mh {h |
  1
/061+ {rn hqogffffhfooooooom njqjjooooikffffffg o |
  1
):-+:' {rn {lo {f |
  1
/061+ {rn hqnkffffihoooooooi njqinoooojmffffffh o |
  1
):-+:' {rn {ll {nn |
  1
/061+ {rn hqnkffffihoooooooi niqlfooonjoffffffg o |
  1
):-+:' {rn {li {nl |
  1
/061+ {rn hqogffffhfooooooom niqkjooonlgffffffh o |
  1
):-+:' {rn {lf {nj |
  1
:336/,:r<*-): {rn iqkofffgiofffffffh niqlfooonjoffffffg o o o n o oqojffffghfffffffffg o n o o |
  1
:;8: {rn {m {k {nf {nh o |
  1
<0:;8: {rn {mm {ko {rn {ng o {kn {rn |
  1
,+->687+r<*-): {rn iqlkfffghmfffffffk niqlfooonjoffffffg o o roqhgoooofgooooooojn o o o |
  1
:;8: {rn {k {i {mm {mo o |
  1
<0:;8: {rn {mj {nf {rn {mn o {kn {rn |
  1
:336/,:r<*-): {rn iqkofffgiofffffffh njqinoooojmffffffh o o o n roqojffffghfffffffffg o o n o o |
  1
:;8: {rn {i {g {mj {ml o |
  1
<0:;8: {rn {mg {mm {rn {mk o {kn {rn |
  1
,+->687+r<*-): {rn iqkofffgiofffffffh njqjjooooikffffffg o oqigooonngooooooojk o o o o |
  1
:;8: {rn {g {no {mg {mi o |
  1
<0:;8: {rn {ln {mj {rn {mh o {kn {rn |
  1
:336/,:r<*-): {rn hqogffffhfooooooom njqinoooojmffffffh o o o n o roqojffffghfffffffffg o n o o |
  1
:;8: {rn {no {nm {ln {mf o |
  1
<0:;8: {rn {lk {mg {rn {lo o {kn {rn |
  1
,+->687+r<*-): {rn hqnkffffihoooooooi njqinoooojmffffffh o o oqhgoooofgooooooojn o o o |
  1
:;8: {rn {nm {nk {lk {lm o |
  1
<0:;8: {rn {lh {ln {rn {ll o {kn {rn |
  1
:336/,:r<*-): {rn hqogffffhfooooooom niqlfooonjoffffffg o o o n oqojffffghfffffffffg o o n o o |
  1
:;8: {rn {nk {ni {lh {lj o |
  1
<0:;8: {rn {ko {lk {rn {li o {kn {rn |
  1
,+->687+r<*-): {rn hqogffffhfooooooom niqkjooonlgffffffh o roqigooonngooooooojk o o o o |
  1
:;8: {rn {ni {m {ko {lg o |
  1
<0:;8: {rn {nf {lh {rn {lf o {kn {rn |
  1
300/ {rn {rn {nf {kl |
  1
/3>1:r,*-9><: {rn iqkofffgiofffffffh niqooooononfffffff o o o n rn o o o o o o o |
  1
9><: {rn {rn {kn {kk {rn {km o n o |
  1
,7:33 {rn {rn {rn {kl {kj |
  1
3*2/ {rn {rn {kk {o |
  1
Z1;r09r^ \VLr;>+> 
1001
ACAD_OBJECT_CHANGE_GUID
1070
     1
1071
-1555024726
1070
 12449
1070
 19357
1070
   153
1070
   212
1070
    14
1070
   144
1070
   205
1070
   186
1070
     7
1070
    85
  0
HATCH
  5
D4
330
1F
100
AcDbEntity
  8
TOP_PASTE
 62
     8
100
AcDbHatch
 10
0.0
 20
0.0
 30
0.0
210
0.0
220
0.0
230
1.0
  2
SOLID
 70
     1
 71
     1
 91
        1
 92
        1
 93
        8
 72
     2
 10
6.40999861
 20
16.39000151
 40
0.05999988
 50
90.0
 51
180.0
 73
     1
 72
     1
 10
6.349998729999999
 20
16.39000151
 11
6.349998729999999
 21
15.61000053
 72
     2
 10
6.40999861
 20
15.61000053
 40
0.05999988
 50
180.0
 51
270.0
 73
     1
 72
     1
 10
6.40999861
 20
15.55000065
 11
7.08999979
 21
15.55000065
 72
     2
 10
7.08999979
 20
15.61000053
 40
0.05999988
 50
270.0
 51
360.0
 73
     1
 72
     1
 10
7.149999670000001
 20
15.61000053
 11
7.149999670000001
 21
16.39000151
 72
     2
 10
7.08999979
 20
16.39000151
 40
0.05999988
 50
0.0
 51
90.0
 73
     1
 72
     1
 10
7.08999979
 20
16.45000139
 11
6.40999861
 21
16.45000139
 97
        1
330
D3
 75
     0
 76
     1
 98
        0
  0
ENDSEC
  0
SECTION
  2
OBJECTS
  0
DICTIONARY
  5
C
330
0
100
AcDbDictionary
  3
ACAD_GROUP
350
D
  3
ACAD_LAYOUT
350
1A
  3
ACAD_MATERIAL
350
43
  3
ACAD_MLEADERSTYLE
350
5B
  3
ACAD_MLINESTYLE
350
17
  3
ACAD_PLOTSETTINGS
350
19
  3
ACAD_SCALELIST
350
47
  3
ACAD_VISUALSTYLE
350
2A
  3
ACDBHEADERROUNDTRIPXREC
350
D5
  3
ACDBVARIABLEDICTIONARY
350
F6
  3
DWGPROPS
350
FD
  0
DICTIONARY
  5
FF
330
8
100
AcDbDictionary
280
     1
  3
ACAD_XREC_ROUNDTRIP
360
100
  0
DICTIONARY
  5
D
102
{ACAD_REACTORS
330
C
102
}
330
C
100
AcDbDictionary
  0
DICTIONARY
  5
1A
102
{ACAD_REACTORS
330
C
102
}
330
C
100
AcDbDictionary
  0
DICTIONARY
  5
43
102
{ACAD_REACTORS
330
C
102
}
330
C
100
AcDbDictionary
  3
BYBLOCK
350
45
  3
BYLAYER
350
44
  3
GLOBAL
350
46
  0
DICTIONARY
  5
5B
102
{ACAD_REACTORS
330
C
102
}
330
C
100
AcDbDictionary
  3
STANDARD
350
5C
  0
DICTIONARY
  5
17
102
{ACAD_REACTORS
330
C
102
}
330
C
100
AcDbDictionary
  3
STANDARD
350
18
  0
DICTIONARY
  5
19
102
{ACAD_REACTORS
330
C
102
}
330
C
100
AcDbDictionary
  0
DICTIONARY
  5
47
102
{ACAD_REACTORS
330
C
102
}
330
C
100
AcDbDictionary
  3
A0
350
48
  3
A1
350
49
  3
A2
350
4A
  3
A3
350
4B
  3
A4
350
4C
  3
A5
350
4D
  3
A6
350
4E
  3
A7
350
4F
  3
A8
350
50
  3
A9
350
51
  3
B1
350
52
  3
B2
350
53
  3
B3
350
54
  3
B4
350
55
  3
B5
350
56
  3
B6
350
57
  3
B7
350
58
  0
DICTIONARY
  5
2A
102
{ACAD_REACTORS
330
C
102
}
330
C
100
AcDbDictionary
  3
2DWIREFRAME
350
2F
  3
BASIC
350
32
  3
BRIGHTEN
350
36
  3
COLORCHANGE
350
3A
  3
CONCEPTUAL
350
34
  3
DIM
350
35
  3
EDGECOLOROFF
350
3D
  3
FACEPATTERN
350
39
  3
FLAT
350
2B
  3
FLATWITHEDGES
350
2C
  3
GOURAUD
350
2D
  3
GOURAUDWITHEDGES
350
2E
  3
HIDDEN
350
31
  3
JITTEROFF
350
3B
  3
LINEPATTERN
350
38
  3
OVERHANGOFF
350
3C
  3
REALISTIC
350
33
  3
SHADED
350
42
  3
SHADED_WITH_EDGES
350
41
  3
SHADES_OF_GRAY
350
3E
  3
SKETCHY
350
3F
  3
THICKEN
350
37
  3
WIREFRAME
350
30
  3
X-RAY
350
40
  0
DICTIONARY
  5
D5
102
{ACAD_REACTORS
330
C
102
}
330
C
100
AcDbDictionary
  3
CEPSNID
350
DF
  3
CEPSNTYPE
350
DE
  3
DIMSTYLEDATA
350
F5
  3
FINGERPRINTGUID
350
E0
  3
HYPERLINKBASE
350
D8
  3
INSUNITS
350
DD
  3
LAYOUTDICT
350
DA
  3
LWETCUNION
350
DC
  3
PLOTSETDICT
350
DB
  3
PSVPSCALE
350
E2
  3
PUCSBASE
350
E5
  3
PUCSORGBACK
350
EB
  3
PUCSORGBOTTOM
350
E7
  3
PUCSORGFRONT
350
EA
  3
PUCSORGLEFT
350
E8
  3
PUCSORGRIGHT
350
E9
  3
PUCSORGTOP
350
E6
  3
PUCSORTHOREF
350
E3
  3
PUCSORTHOVIEW
350
E4
  3
STYLESHEET
350
D9
  3
TSTACKALIGN
350
D6
  3
TSTACKSIZE
350
D7
  3
UCSBASE
350
EE
  3
UCSORGBACK
350
F4
  3
UCSORGBOTTOM
350
F0
  3
UCSORGFRONT
350
F3
  3
UCSORGLEFT
350
F1
  3
UCSORGRIGHT
350
F2
  3
UCSORGTOP
350
EF
  3
UCSORTHOREF
350
EC
  3
UCSORTHOVIEW
350
ED
  3
VERSIONGUID
350
E1
  0
DICTIONARY
  5
F6
102
{ACAD_REACTORS
330
C
102
}
330
C
100
AcDbDictionary
  3
CANNOSCALE
350
101
  3
CMLEADERSTYLE
350
F8
  3
CTABLESTYLE
350
F7
  3
DIMASSOC
350
FB
  3
HIDETEXT
350
FC
  3
MSLTSCALE
350
102
  0
XRECORD
  5
FD
102
{ACAD_REACTORS
330
C
102
}
330
C
100
AcDbXrecord
  1
DWGPROPS COOKIE
  2

  3

  4

  6

  7

  8
MachineJDG
  9

300
=
301
=
302
=
303
=
304
=
305
=
306
=
307
=
308
=
309
=
 40
0.0
 41
2460221.112137327
 42
2460221.112138715
  1

 90
        0
  0
XRECORD
  5
100
102
{ACAD_REACTORS
330
FF
102
}
330
FF
100
AcDbXrecord
102
VTR_0.000_0.000_1.000_1.000_VISUALSTYLE
340
2F
102
VTR_0.000_0.000_1.000_1.000_GRIDDISPLAY
 70
     3
102
VTR_0.000_0.000_1.000_1.000_GRIDMAJOR
 70
     5
102
VTR_0.000_0.000_1.000_1.000_DEFAULTLIGHTING
280
     1
102
VTR_0.000_0.000_1.000_1.000_DEFAULTLIGHTINGTYPE
 70
     1
102
VTR_0.000_0.000_1.000_1.000_BRIGHTNESS
141
0.0
102
VTR_0.000_0.000_1.000_1.000_CONTRAST
142
0.0
  0
MATERIAL
  5
45
102
{ACAD_REACTORS
330
43
102
}
102
{ACAD_XDICTIONARY
360
105
102
}
330
43
100
AcDbMaterial
  1
BYBLOCK
  0
MATERIAL
  5
44
102
{ACAD_REACTORS
330
43
102
}
102
{ACAD_XDICTIONARY
360
103
102
}
330
43
100
AcDbMaterial
  1
BYLAYER
  0
MATERIAL
  5
46
102
{ACAD_REACTORS
330
43
102
}
102
{ACAD_XDICTIONARY
360
107
102
}
330
43
100
AcDbMaterial
  1
GLOBAL
  0
ACAD_PROXY_OBJECT
  5
5C
102
{ACAD_REACTORS
330
5B
102
}
330
5B
100
AcDbProxyObject
 90
      499
 91
      505
 93
      610
310
40901902A4063FBFFFFFE056BD1B81E855B9FC0AD7A3703D0AD73F4214DD185B99185C9900AD7A3703D0AC73F90141901A02B5E8DC0F42B1CFC02B5E8DC0F42B1CFE5764000000000000300FC0
340
14
340
0
340
11
340
0
 94
        0
1001
ACAD_MLEADERVER
1070
     2
  0
MLINESTYLE
  5
18
102
{ACAD_REACTORS
330
17
102
}
330
17
100
AcDbMlineStyle
  2
Standard
 70
     0
  3

 62
   256
 51
90.0
 52
90.0
 71
     2
 49
0.5
 62
   256
  6
BYLAYER
 49
-0.5
 62
   256
  6
BYLAYER
  0
ACAD_PROXY_OBJECT
  5
48
102
{ACAD_REACTORS
330
47
102
}
330
47
100
AcDbProxyObject
 90
      499
 91
      503
 93
       41
310
903313A31580
  0
ACAD_PROXY_OBJECT
  5
49
102
{ACAD_REACTORS
330
47
102
}
330
47
100
AcDbProxyObject
 90
      499
 91
      503
 93
      257
310
90E312F31323822203D2031272D3022000000000000200FC000000000000284000
  0
ACAD_PROXY_OBJECT
  5
4A
102
{ACAD_REACTORS
330
47
102
}
330
47
100
AcDbProxyObject
 90
      499
 91
      503
 93
      249
310
90D312F363422203D2031272D3022000000000000240FC000000000000284000
  0
ACAD_PROXY_OBJECT
  5
4B
102
{ACAD_REACTORS
330
47
102
}
330
47
100
AcDbProxyObject
 90
      499
 91
      503
 93
      249
310
90D312F333222203D2031272D3022000000000000280FC000000000000284000
  0
ACAD_PROXY_OBJECT
  5
4C
102
{ACAD_REACTORS
330
47
102
}
330
47
100
AcDbProxyObject
 90
      499
 91
      503
 93
      249
310
90D312F313622203D2031272D30220000000000002C0FC000000000000284000
  0
ACAD_PROXY_OBJECT
  5
4D
102
{ACAD_REACTORS
330
47
102
}
330
47
100
AcDbProxyObject
 90
      499
 91
      503
 93
      249
310
90D332F333222203D2031272D30220000000000002E0FC000000000000284000
  0
ACAD_PROXY_OBJECT
  5
4E
102
{ACAD_REACTORS
330
47
102
}
330
47
100
AcDbProxyObject
 90
      499
 91
      503
 93
      241
310
90C312F3822203D2031272D3022000000000000300FC000000000000284000
  0
ACAD_PROXY_OBJECT
  5
4F
102
{ACAD_REACTORS
330
47
102
}
330
47
100
AcDbProxyObject
 90
      499
 91
      503
 93
      249
310
90D332F313622203D2031272D3022000000000000320FC000000000000284000
  0
ACAD_PROXY_OBJECT
  5
50
102
{ACAD_REACTORS
330
47
102
}
330
47
100
AcDbProxyObject
 90
      499
 91
      503
 93
      241
310
90C312F3422203D2031272D3022000000000000340FC000000000000284000
  0
ACAD_PROXY_OBJECT
  5
51
102
{ACAD_REACTORS
330
47
102
}
330
47
100
AcDbProxyObject
 90
      499
 91
      503
 93
      241
310
90C332F3822203D2031272D3022000000000000360FC000000000000284000
  0
ACAD_PROXY_OBJECT
  5
52
102
{ACAD_REACTORS
330
47
102
}
330
47
100
AcDbProxyObject
 90
      499
 91
      503
 93
      241
310
90C312F3222203D2031272D3022000000000000380FC000000000000284000
  0
ACAD_PROXY_OBJECT
  5
53
102
{ACAD_REACTORS
330
47
102
}
330
47
100
AcDbProxyObject
 90
      499
 91
      503
 93
      241
310
90C332F3422203D2031272D30220000000000003A0FC000000000000284000
  0
ACAD_PROXY_OBJECT
  5
54
102
{ACAD_REACTORS
330
47
102
}
330
47
100
AcDbProxyObject
 90
      499
 91
      503
 93
      161
310
90A3122203D2031272D30224000000000000284000
  0
ACAD_PROXY_OBJECT
  5
55
102
{ACAD_REACTORS
330
47
102
}
330
47
100
AcDbProxyObject
 90
      499
 91
      503
 93
      257
310
90E312D312F3222203D2031272D30220000000000003E0FC000000000000284000
  0
ACAD_PROXY_OBJECT
  5
56
102
{ACAD_REACTORS
330
47
102
}
330
47
100
AcDbProxyObject
 90
      499
 91
      503
 93
      225
310
90A3322203D2031272D302200000000000002100000000000000284000
  0
ACAD_PROXY_OBJECT
  5
57
102
{ACAD_REACTORS
330
47
102
}
330
47
100
AcDbProxyObject
 90
      499
 91
      503
 93
      225
310
90A3622203D2031272D302200000000000006100000000000000284000
  0
ACAD_PROXY_OBJECT
  5
58
102
{ACAD_REACTORS
330
47
102
}
330
47
100
AcDbProxyObject
 90
      499
 91
      503
 93
      249
310
90D31272D3022203D2031272D30220000000000000A100000000000000284000
  0
ACAD_PROXY_OBJECT
  5
2F
102
{ACAD_REACTORS
330
2A
102
}
330
2A
100
AcDbProxyObject
 90
      499
 91
      501
 93
      436
310
42CC9915DA5C99599C985B595049028333333333333E33F0000000000000F90107901411070040501600405405064090741402480A0340
1001
ACAD
1000
AcDbSavedByObjectVersion
1070
     0
  0
ACAD_PROXY_OBJECT
  5
32
102
{ACAD_REACTORS
330
2A
102
}
330
2A
100
AcDbProxyObject
 90
      499
 91
      501
 93
      388
310
4150985CDA58D07406404333333333333E33F0000000000000F90107A41107004050150841D405064090741402480A0350
1001
ACAD
1000
AcDbSavedByObjectVersion
1070
     0
  0
ACAD_PROXY_OBJECT
  5
36
102
{ACAD_REACTORS
330
2A
102
}
330
2A
100
AcDbProxyObject
 90
      499
 91
      501
 93
      428
310
42109C9A59DA1D195B90C409028333333333333E33F0000000000000F9010790141107004050150841D405064090741402480A029950
1001
ACAD
1000
AcDbSavedByObjectVersion
1070
     0
  0
ACAD_PROXY_OBJECT
  5
3A
102
{ACAD_REACTORS
330
2A
102
}
330
2A
100
AcDbProxyObject
 90
      499
 91
      501
 93
      452
310
42D0DBDB1BDC90DA185B99D95104090240C333333333333E33F0000000000000F90108901411070040501508421405064090741402480A0350
1001
ACAD
1000
AcDbSavedByObjectVersion
1070
     0
  0
ACAD_PROXY_OBJECT
  5
34
102
{ACAD_REACTORS
330
2A
102
}
330
2A
100
AcDbProxyObject
 90
      499
 91
      501
 93
      500
310
4290DBDB98D95C1D1D585B10940D028333333333333E33F0000000000000F90107902409070040501000000000018199010841D405064090740C02480A0340
1001
ACAD
1000
AcDbSavedByObjectVersion
1070
     0
  0
ACAD_PROXY_OBJECT
  5
35
102
{ACAD_REACTORS
330
2A
102
}
330
2A
100
AcDbProxyObject
 90
      499
 91
      501
 93
      412
310
40D11A5B50B409028333333333333E33F0000000000000F9010790141107004050150841D405064090741402480A02677FFFFFD0
1001
ACAD
1000
AcDbSavedByObjectVersion
1070
     0
  0
ACAD_PROXY_OBJECT
  5
3D
102
{ACAD_REACTORS
330
2A
102
}
330
2A
100
AcDbProxyObject
 90
      499
 91
      501
 93
      452
310
43115919D950DBDB1BDC93D999916409028333333333333E33F0000000000000F9010790141107004050150841D405064090741402480A0350
1001
ACAD
1000
AcDbSavedByObjectVersion
1070
     0
  0
ACAD_PROXY_OBJECT
  5
39
102
{ACAD_REACTORS
330
2A
102
}
330
2A
100
AcDbProxyObject
 90
      499
 91
      501
 93
      444
310
42D19858D95C185D1D195C9B90F409028333333333333E33F0000000000000F9010790141107004050150841D405064090741402480A0350
1001
ACAD
1000
AcDbSavedByObjectVersion
1070
     0
  0
ACAD_PROXY_OBJECT
  5
2B
102
{ACAD_REACTORS
330
2A
102
}
330
2A
100
AcDbProxyObject
 90
      499
 91
      501
 93
      380
310
41119B185D240901404333333333333E33F0000000000000F9010740A907004050150841D405064090741402480A1B50
1001
ACAD
1000
AcDbSavedByObjectVersion
1070
     0
  0
ACAD_PROXY_OBJECT
  5
2C
102
{ACAD_REACTORS
330
2A
102
}
330
2A
100
AcDbProxyObject
 90
      499
 91
      501
 93
      468
310
43519B185D15DA5D1A115919D95CD0140901404333333333333E33F0000000000000F90107409019070040501600405405064090741402480A1B50
1001
ACAD
1000
AcDbSavedByObjectVersion
1070
     0
  0
ACAD_PROXY_OBJECT
  5
2D
102
{ACAD_REACTORS
330
2A
102
}
330
2A
100
AcDbProxyObject
 90
      499
 91
      501
 93
      404
310
41D1DBDD5C985D5910240902404333333333333E33F0000000000000F9010740A9070040501641D405064090741402480A1B50
1001
ACAD
1000
AcDbSavedByObjectVersion
1070
     0
  0
ACAD_PROXY_OBJECT
  5
2E
102
{ACAD_REACTORS
330
2A
102
}
330
2A
100
AcDbProxyObject
 90
      499
 91
      501
 93
      492
310
4411DBDD5C985D5915DA5D1A115919D95CD0340902404333333333333E33F0000000000000F90107409019070040501600405405064090741402480A1B50
1001
ACAD
1000
AcDbSavedByObjectVersion
1070
     0
  0
ACAD_PROXY_OBJECT
  5
31
102
{ACAD_REACTORS
330
2A
102
}
330
2A
100
AcDbProxyObject
 90
      499
 91
      501
 93
      476
310
41921A5919195B90640502408333333333333E33F0000000000000F901079024090700405020000000000001110200405405064090740C02480A0340
1001
ACAD
1000
AcDbSavedByObjectVersion
1070
     0
  0
ACAD_PROXY_OBJECT
  5
3B
102
{ACAD_REACTORS
330
2A
102
}
330
2A
100
AcDbProxyObject
 90
      499
 91
      501
 93
      428
310
42529A5D1D195C93D999914409028333333333333E33F0000000000000F9010790141107004050150A41D405064090741402480A0350
1001
ACAD
1000
AcDbSavedByObjectVersion
1070
     0
  0
ACAD_PROXY_OBJECT
  5
38
102
{ACAD_REACTORS
330
2A
102
}
330
2A
100
AcDbProxyObject
 90
      499
 91
      501
 93
      444
310
42D31A5B995C185D1D195C9B90E409028333333333333E33F0000000000000F9010790141107004050750841D405064090741402483A0350
1001
ACAD
1000
AcDbSavedByObjectVersion
1070
     0
  0
ACAD_PROXY_OBJECT
  5
3C
102
{ACAD_REACTORS
330
2A
102
}
330
2A
100
AcDbProxyObject
 90
      499
 91
      501
 93
      444
310
42D3DD995C9A185B99D3D999915409028333333333333E33F0000000000000F9010790141107004050150941D405064090741402480A0350
1001
ACAD
1000
AcDbSavedByObjectVersion
1070
     0
  0
ACAD_PROXY_OBJECT
  5
33
102
{ACAD_REACTORS
330
2A
102
}
330
2A
100
AcDbProxyObject
 90
      499
 91
      501
 93
      428
310
425499585B1A5CDD1A58D08409038333333333333E33F0000000000000F9010740A907004050150800405405064090740C02480A1B40
1001
ACAD
1000
AcDbSavedByObjectVersion
1070
     0
  0
ACAD_PROXY_OBJECT
  5
42
102
{ACAD_REACTORS
330
2A
102
}
330
2A
100
AcDbProxyObject
 90
      499
 91
      501
 93
      420
310
4194DA1859195911B40902404333333333333E33F0000000000000F9010740A41107004050150800405405064090840C02480A0B40
1001
ACAD
1000
AcDbSavedByObjectVersion
1070
     0
  0
ACAD_PROXY_OBJECT
  5
41
102
{ACAD_REACTORS
330
2A
102
}
330
2A
100
AcDbProxyObject
 90
      499
 91
      501
 93
      516
310
4454DA18591959081DDA5D1A08195919D95CD1A40902404333333333333E33F0000000000000F901074090142907004050250800405405064090740C02480A0B40
1001
ACAD
1000
AcDbSavedByObjectVersion
1070
     0
  0
ACAD_PROXY_OBJECT
  5
3E
102
{ACAD_REACTORS
330
2A
102
}
330
2A
100
AcDbProxyObject
 90
      499
 91
      501
 93
      532
310
4394DA1859195CC81BD98811DC985E5174090240C333333333333E33F0000000000000F901079024090741D01000000000000111010841D405064090740C02480A0340
1001
ACAD
1000
AcDbSavedByObjectVersion
1070
     0
  0
ACAD_PROXY_OBJECT
  5
3F
102
{ACAD_REACTORS
330
2A
102
}
330
2A
100
AcDbProxyObject
 90
      499
 91
      501
 93
      476
310
41D4DAD95D18DA1E51840502408333333333333E33F0000000000000F901079024090741D01000000000000111010B41D405064090741802480A0340
1001
ACAD
1000
AcDbSavedByObjectVersion
1070
     0
  0
ACAD_PROXY_OBJECT
  5
37
102
{ACAD_REACTORS
330
2A
102
}
330
2A
100
AcDbProxyObject
 90
      499
 91
      501
 93
      412
310
41D51A1A58DAD95B90D409028333333333333E33F0000000000000F9010790141107004050150C41D405064090741402480A0350
1001
ACAD
1000
AcDbSavedByObjectVersion
1070
     0
  0
ACAD_PROXY_OBJECT
  5
30
102
{ACAD_REACTORS
330
2A
102
}
330
2A
100
AcDbProxyObject
 90
      499
 91
      501
 93
      420
310
4255DA5C99599C985B595059028333333333333E33F0000000000000F90107901411070040501600405405064090740C02480A0340
1001
ACAD
1000
AcDbSavedByObjectVersion
1070
     0
  0
ACAD_PROXY_OBJECT
  5
40
102
{ACAD_REACTORS
330
2A
102
}
330
2A
100
AcDbProxyObject
 90
      499
 91
      501
 93
      404
310
41560B54985E51940902404000000000000E03F0000000000000F9010740501907004050150841D405064090740C02480A1B40
1001
ACAD
1000
AcDbSavedByObjectVersion
1070
     0
  0
XRECORD
  5
DF
102
{ACAD_REACTORS
330
D5
102
}
330
D5
100
AcDbXrecord
340
0
  0
XRECORD
  5
DE
102
{ACAD_REACTORS
330
D5
102
}
330
D5
100
AcDbXrecord
 90
        0
  0
XRECORD
  5
F5
102
{ACAD_REACTORS
330
D5
102
}
330
D5
100
AcDbXrecord
1000
DSTYLE
1002
{
1070
   171
 70
     2
1070
   143
 40
25.4
1070
   274
 70
     2
1070
    41
 40
0.18
1070
   141
 40
0.09
1070
   271
 70
     4
1070
    43
 40
0.38
1070
   278
 70
    46
1070
    44
 40
0.18
1070
    42
 40
0.0625
1070
   147
 40
0.09
1070
    77
 70
     0
1070
   272
 70
     4
1070
    73
 70
     1
1070
   172
 70
     0
1070
    74
 70
     1
1070
   283
 70
     1
1070
   340
340
11
1070
   140
 40
0.18
1070
   284
 70
     0
1070
    78
 70
     0
1002
}
  0
XRECORD
  5
E0
102
{ACAD_REACTORS
330
D5
102
}
330
D5
100
AcDbXrecord
  1
{64a60a11-e129-4b56-88d5-4b7069bb15b9}
  0
XRECORD
  5
D8
102
{ACAD_REACTORS
330
D5
102
}
330
D5
100
AcDbXrecord
  1

  0
XRECORD
  5
DD
102
{ACAD_REACTORS
330
D5
102
}
330
D5
100
AcDbXrecord
 90
        1
  0
XRECORD
  5
DA
102
{ACAD_REACTORS
330
D5
102
}
330
D5
100
AcDbXrecord
340
1A
  0
XRECORD
  5
DC
102
{ACAD_REACTORS
330
D5
102
}
330
D5
100
AcDbXrecord
 90
    10781
  0
XRECORD
  5
DB
102
{ACAD_REACTORS
330
D5
102
}
330
D5
100
AcDbXrecord
340
19
  0
XRECORD
  5
E2
102
{ACAD_REACTORS
330
D5
102
}
330
D5
100
AcDbXrecord
 40
0.0
  0
XRECORD
  5
E5
102
{ACAD_REACTORS
330
D5
102
}
330
D5
100
AcDbXrecord
340
0
  0
XRECORD
  5
EB
102
{ACAD_REACTORS
330
D5
102
}
330
D5
100
AcDbXrecord
 10
0.0
 20
0.0
 30
0.0
  0
XRECORD
  5
E7
102
{ACAD_REACTORS
330
D5
102
}
330
D5
100
AcDbXrecord
 10
0.0
 20
0.0
 30
0.0
  0
XRECORD
  5
EA
102
{ACAD_REACTORS
330
D5
102
}
330
D5
100
AcDbXrecord
 10
0.0
 20
0.0
 30
0.0
  0
XRECORD
  5
E8
102
{ACAD_REACTORS
330
D5
102
}
330
D5
100
AcDbXrecord
 10
0.0
 20
0.0
 30
0.0
  0
XRECORD
  5
E9
102
{ACAD_REACTORS
330
D5
102
}
330
D5
100
AcDbXrecord
 10
0.0
 20
0.0
 30
0.0
  0
XRECORD
  5
E6
102
{ACAD_REACTORS
330
D5
102
}
330
D5
100
AcDbXrecord
 10
0.0
 20
0.0
 30
0.0
  0
XRECORD
  5
E3
102
{ACAD_REACTORS
330
D5
102
}
330
D5
100
AcDbXrecord
340
0
  0
XRECORD
  5
E4
102
{ACAD_REACTORS
330
D5
102
}
330
D5
100
AcDbXrecord
 70
     0
  0
XRECORD
  5
D9
102
{ACAD_REACTORS
330
D5
102
}
330
D5
100
AcDbXrecord
  1

  0
XRECORD
  5
D6
102
{ACAD_REACTORS
330
D5
102
}
330
D5
100
AcDbXrecord
 90
        1
  0
XRECORD
  5
D7
102
{ACAD_REACTORS
330
D5
102
}
330
D5
100
AcDbXrecord
 90
       70
  0
XRECORD
  5
EE
102
{ACAD_REACTORS
330
D5
102
}
330
D5
100
AcDbXrecord
340
0
  0
XRECORD
  5
F4
102
{ACAD_REACTORS
330
D5
102
}
330
D5
100
AcDbXrecord
 10
0.0
 20
0.0
 30
0.0
  0
XRECORD
  5
F0
102
{ACAD_REACTORS
330
D5
102
}
330
D5
100
AcDbXrecord
 10
0.0
 20
0.0
 30
0.0
  0
XRECORD
  5
F3
102
{ACAD_REACTORS
330
D5
102
}
330
D5
100
AcDbXrecord
 10
0.0
 20
0.0
 30
0.0
  0
XRECORD
  5
F1
102
{ACAD_REACTORS
330
D5
102
}
330
D5
100
AcDbXrecord
 10
0.0
 20
0.0
 30
0.0
  0
XRECORD
  5
F2
102
{ACAD_REACTORS
330
D5
102
}
330
D5
100
AcDbXrecord
 10
0.0
 20
0.0
 30
0.0
  0
XRECORD
  5
EF
102
{ACAD_REACTORS
330
D5
102
}
330
D5
100
AcDbXrecord
 10
0.0
 20
0.0
 30
0.0
  0
XRECORD
  5
EC
102
{ACAD_REACTORS
330
D5
102
}
330
D5
100
AcDbXrecord
340
0
  0
XRECORD
  5
ED
102
{ACAD_REACTORS
330
D5
102
}
330
D5
100
AcDbXrecord
 70
     0
  0
XRECORD
  5
E1
102
{ACAD_REACTORS
330
D5
102
}
330
D5
100
AcDbXrecord
  1
{FAEB1C32-E019-11D5-929B-00C0DF256EC4}
  0
DICTIONARYVAR
  5
101
102
{ACAD_REACTORS
330
F6
102
}
330
F6
100
DictionaryVariables
280
     0
  1
1:1
  0
DICTIONARYVAR
  5
F8
102
{ACAD_REACTORS
330
F6
102
}
330
F6
100
DictionaryVariables
280
     0
  1
Standard
  0
DICTIONARYVAR
  5
F7
102
{ACAD_REACTORS
330
F6
102
}
330
F6
100
DictionaryVariables
280
     0
  1
Standard
  0
DICTIONARYVAR
  5
FB
102
{ACAD_REACTORS
330
F6
102
}
330
F6
100
DictionaryVariables
280
     0
  1
2
  0
DICTIONARYVAR
  5
FC
102
{ACAD_REACTORS
330
F6
102
}
330
F6
100
DictionaryVariables
280
     0
  1
1
  0
DICTIONARYVAR
  5
102
102
{ACAD_REACTORS
330
F6
102
}
330
F6
100
DictionaryVariables
280
     0
  1
1
  0
DICTIONARY
  5
105
330
45
100
AcDbDictionary
280
     1
  3
ACAD_XREC_ROUNDTRIP
360
106
  0
DICTIONARY
  5
103
330
44
100
AcDbDictionary
280
     1
  3
ACAD_XREC_ROUNDTRIP
360
104
  0
DICTIONARY
  5
107
330
46
100
AcDbDictionary
280
     1
  3
ACAD_XREC_ROUNDTRIP
360
108
  0
XRECORD
  5
106
102
{ACAD_REACTORS
330
105
102
}
330
105
100
AcDbXrecord
102
MATERIAL
148
0.0
149
0.0
149
0.0
 93
        0
 94
      127
282
     0
 72
     1
 77
     1
171
     1
175
     1
179
     1
273
     0
  0
XRECORD
  5
104
102
{ACAD_REACTORS
330
103
102
}
330
103
100
AcDbXrecord
102
MATERIAL
148
0.0
149
0.0
149
0.0
 93
        0
 94
      127
282
     0
 72
     1
 77
     1
171
     1
175
     1
179
     1
273
     0
  0
XRECORD
  5
108
102
{ACAD_REACTORS
330
107
102
}
330
107
100
AcDbXrecord
102
MATERIAL
148
0.0
149
0.0
149
0.0
 93
        0
 94
      127
282
     0
 72
     1
 77
     1
171
     1
175
     1
179
     1
273
     0
  0
ENDSEC
  0
EOF
